<svg width="292" height="218" viewBox="0 0 292 218" fill="none" xmlns="http://www.w3.org/2000/svg">
<g clip-path="url(#clip0_263_3919)">
<path d="M279.791 189.234C280.113 179.612 275.718 170.051 267.169 166.772C269.206 176.606 267.477 187.668 262.384 197.38C260.401 201.163 257.827 205.217 258.534 209.076C258.973 211.476 260.676 213.336 262.72 214.516C264.765 215.696 267.146 216.282 269.499 216.857L269.915 217.267C275.164 208.485 279.469 198.856 279.791 189.234Z" fill="#B8BDCC"/>
<path d="M267.051 166.952C271.337 172.952 273.523 180.645 273.049 188.557C272.98 190.308 272.647 192.04 272.062 193.692C271.417 195.349 270.392 196.831 269.07 198.018C267.847 199.159 266.484 200.202 265.521 201.585C265.045 202.26 264.71 203.024 264.536 203.831C264.362 204.639 264.353 205.473 264.508 206.285C264.867 208.208 265.92 209.788 267.009 211.289C268.218 212.956 269.503 214.665 269.786 216.853C269.82 217.118 270.24 216.99 270.206 216.726C269.714 212.919 266.422 210.706 265.224 207.265C264.665 205.659 264.615 203.805 265.635 202.138C266.526 200.68 267.932 199.603 269.178 198.456C270.485 197.311 271.531 195.899 272.247 194.314C272.911 192.687 273.309 190.963 273.424 189.209C273.733 185.425 273.426 181.615 272.515 177.929C271.537 173.872 269.794 170.039 267.379 166.637C267.231 166.43 266.904 166.746 267.051 166.952L267.051 166.952Z" fill="#E6E6E6"/>
<path d="M273.339 185.974C274.716 185.655 275.96 184.914 276.897 183.854C277.835 182.794 278.419 181.467 278.569 180.058C278.59 179.785 278.167 179.798 278.145 180.073C278.008 181.384 277.464 182.62 276.589 183.605C275.715 184.591 274.554 185.277 273.27 185.567C273.243 185.571 273.217 185.581 273.194 185.595C273.17 185.609 273.15 185.628 273.134 185.65C273.118 185.672 273.107 185.698 273.101 185.724C273.094 185.751 273.094 185.778 273.098 185.805C273.103 185.832 273.113 185.858 273.127 185.881C273.142 185.905 273.161 185.925 273.183 185.94C273.206 185.956 273.231 185.967 273.258 185.973C273.284 185.979 273.312 185.979 273.339 185.974V185.974Z" fill="#E6E6E6"/>
<path d="M269.755 197.511C268.695 196.773 267.802 195.819 267.136 194.711C266.47 193.603 266.045 192.366 265.891 191.082C265.856 190.817 265.435 190.944 265.47 191.209C265.634 192.545 266.078 193.831 266.774 194.982C267.47 196.133 268.401 197.124 269.506 197.888C269.718 198.033 269.966 197.654 269.755 197.511Z" fill="#E6E6E6"/>
<path d="M271.053 174.203C270.577 174.428 270.051 174.527 269.525 174.49C269 174.454 268.493 174.284 268.051 173.996C267.842 173.849 267.595 174.227 267.802 174.374C268.291 174.689 268.852 174.877 269.432 174.918C270.012 174.959 270.593 174.854 271.122 174.61C271.177 174.592 271.225 174.556 271.256 174.508C271.288 174.459 271.303 174.401 271.298 174.343C271.293 174.317 271.283 174.292 271.267 174.27C271.252 174.248 271.232 174.23 271.208 174.216C271.185 174.203 271.159 174.195 271.132 174.193C271.105 174.19 271.079 174.194 271.053 174.203Z" fill="#E6E6E6"/>
<path d="M236.942 183.454C237.07 183.55 237.197 183.646 237.324 183.745C239.027 185.044 240.605 186.499 242.037 188.091C242.15 188.212 242.262 188.337 242.371 188.461C245.802 192.39 248.371 196.996 249.913 201.982C250.546 204.015 251.011 206.097 251.306 208.206C251.719 211.147 251.926 214.402 253.275 216.825C253.412 217.079 253.567 217.322 253.738 217.554L269.307 217.819C269.345 217.802 269.383 217.788 269.421 217.771L270.038 217.81C270.03 217.698 270.02 217.582 270.013 217.47C270.009 217.405 270.001 217.34 269.997 217.275C269.993 217.232 269.989 217.189 269.988 217.149C269.987 217.134 269.986 217.12 269.984 217.109C269.983 217.069 269.978 217.033 269.976 216.997C269.921 216.35 269.862 215.703 269.795 215.056C269.796 215.052 269.796 215.052 269.793 215.049C269.284 210.121 268.35 205.252 266.679 200.784C266.629 200.65 266.58 200.512 266.522 200.377C265.764 198.384 264.826 196.464 263.718 194.642C263.113 193.656 262.451 192.706 261.737 191.797C259.887 189.455 257.63 187.468 255.075 185.931C249.958 182.849 243.672 181.594 237.419 183.318C237.259 183.362 237.103 183.406 236.942 183.454Z" fill="#B8BDCC"/>
<path d="M236.946 183.655C244.377 185.327 250.981 189.485 255.368 195.418C256.364 196.695 257.125 198.139 257.616 199.683C258.052 201.29 258.047 202.986 257.6 204.59C257.214 206.148 256.643 207.723 256.632 209.295C256.623 210.065 256.796 210.826 257.136 211.516C257.477 212.206 257.976 212.805 258.592 213.265C260.077 214.418 261.967 214.905 263.841 215.313C265.922 215.767 268.095 216.204 269.674 217.592C269.865 217.761 270.159 217.414 269.968 217.246C267.222 214.83 262.968 215.255 259.82 213.528C258.351 212.723 257.181 211.431 257.068 209.62C256.97 208.037 257.558 206.414 257.962 204.837C258.419 203.27 258.487 201.614 258.158 200.014C257.753 198.443 257.054 196.964 256.096 195.655C254.017 192.715 251.423 190.176 248.441 188.161C244.989 185.808 241.121 184.135 237.045 183.23C236.788 183.172 236.691 183.597 236.946 183.655Z" fill="#E6E6E6"/>
<path d="M254.056 193.399C256.147 191.28 256.581 188.11 255.083 185.995C254.935 185.787 254.569 186.055 254.717 186.263C256.12 188.245 255.702 191.169 253.748 193.15C253.542 193.359 253.851 193.606 254.056 193.399V193.399Z" fill="#E6E6E6"/>
<path d="M257.897 203.811C256.589 203.955 255.266 203.831 254.008 203.447C252.75 203.063 251.583 202.426 250.578 201.577C250.386 201.409 250.091 201.756 250.283 201.923C251.331 202.805 252.548 203.465 253.858 203.862C255.169 204.259 256.546 204.385 257.906 204.232C258.181 204.206 258.17 203.786 257.897 203.811L257.897 203.811Z" fill="#E6E6E6"/>
<path d="M244.886 186.392C244.574 186.859 244.164 187.252 243.684 187.542C243.204 187.833 242.665 188.013 242.108 188.071C241.833 188.094 241.845 188.515 242.117 188.492C242.733 188.426 243.328 188.226 243.859 187.906C244.39 187.586 244.845 187.154 245.194 186.641C245.231 186.6 245.251 186.546 245.25 186.491C245.249 186.435 245.226 186.382 245.187 186.343C245.14 186.311 245.083 186.299 245.026 186.308C244.97 186.317 244.92 186.347 244.886 186.392V186.392Z" fill="#E6E6E6"/>
<path d="M232.311 178.307C232.344 178.27 232.096 178.239 231.636 178.212V162.743H209.348V163.988H199.314C198.138 163.99 197.01 164.458 196.178 165.292C195.346 166.125 194.878 167.255 194.877 168.434V174.832C194.878 176.011 195.346 177.141 196.178 177.975C197.01 178.808 198.138 179.277 199.314 179.278L209.597 179.291L214.113 179.298H214.423L218.942 179.305L231.562 179.322H232.649C232.808 179.143 232.159 178.486 232.311 178.307Z" fill="#263560"/>
<path d="M232.552 178.594C231.815 179.671 231.217 179.631 230.695 178.935C230.42 178.534 230.198 178.099 230.036 177.641C228.448 173.56 227.409 164.199 224.414 167.473C223.822 168.119 223.222 168.76 222.619 169.394C221.498 170.575 220.328 171.857 219.169 172.989C219.168 172.992 219.195 172.866 219.191 172.869C218.619 173.43 219.05 168.581 218.824 167.217C218.776 166.922 218.697 166.791 218.572 166.908C218.562 166.776 218.556 166.644 218.557 166.51C218.556 166.299 218.566 166.088 218.589 165.879C218.608 165.686 218.634 165.491 218.67 165.295L228.463 112.831C228.721 111.457 229.41 110.201 230.429 109.245C231.448 108.29 232.745 107.685 234.13 107.518C234.787 107.445 235.45 107.469 236.1 107.588L237.882 107.922C238.586 108.053 239.263 108.301 239.886 108.655L239.889 108.656C241.08 109.329 242.03 110.357 242.609 111.598C243.187 112.839 243.364 114.23 243.115 115.576L232.552 178.594Z" fill="#263560"/>
<path d="M148.928 208.479L144.331 206.276L150.646 187.022L157.432 190.274L148.928 208.479Z" fill="#A0616A"/>
<path d="M179.751 205.375C179.417 205.585 179.082 205.791 178.745 205.997C178.073 206.41 177.394 206.816 176.715 207.215C176.374 207.415 176.03 207.615 175.688 207.811V207.821L175.668 207.824L175.661 207.828L175.141 207.956L174.395 205.98L174.051 205.07L173.564 203.781L172.673 201.423L167.979 189.006L175.277 187.202L175.55 188.322H175.553L175.688 188.877L178.238 199.237L178.758 201.355L178.775 201.42L179.089 202.685L179.359 203.781L179.66 205.006L179.751 205.375Z" fill="#A0616A"/>
<path d="M223.285 161.768C222.823 162.513 222.35 163.254 221.874 163.988C220.989 165.355 220.081 166.701 219.149 168.028C219.149 168.031 219.145 168.031 219.142 168.035C218.598 168.539 217.997 168.979 217.352 169.344C217.325 169.364 217.295 169.378 217.268 169.395C216.792 169.658 216.286 169.861 215.761 170C215.572 170.048 215.38 170.095 215.191 170.142C214.509 170.305 213.833 170.444 213.161 170.565C211.966 170.779 210.784 170.931 209.608 171.025C209.514 171.036 209.419 171.042 209.325 171.049C204.492 171.404 199.788 170.833 194.878 169.895C192.453 169.435 189.978 168.884 187.415 168.312C186.577 168.122 185.736 167.936 184.885 167.75C184.821 167.737 184.754 167.72 184.686 167.706C183.47 167.439 182.234 167.175 180.968 166.915C179.374 166.586 177.73 166.268 176.021 165.967L176.142 168.38C176.244 170.235 176.628 172.065 177.284 173.803C178.013 175.942 178.591 177.633 177.372 181.155L176.784 182.861C177.089 183.708 177.193 184.613 177.089 185.508C176.986 186.402 176.677 187.259 176.186 188.014L176.068 188.193L180.968 200.614L181.286 201.419H178.776L175.69 201.422H170.459L162.911 186.251L162.55 185.527V185.49L163.33 156.335C163.34 156.077 163.36 155.817 163.394 155.56C163.532 154.391 163.9 153.261 164.478 152.236C165.056 151.212 165.832 150.312 166.761 149.591C167.651 148.895 168.67 148.382 169.759 148.084C170.849 147.785 171.986 147.706 173.106 147.852L175.69 148.187L180.968 148.871L184.686 149.355L184.76 149.365L195.726 150.786L196.512 147.572L196.658 147.517L201.274 145.822L217.241 139.959L217.281 139.945L218.331 139.56L218.456 139.763C218.493 139.824 218.531 139.884 218.564 139.945C219.602 141.81 220.448 143.776 221.087 145.812C222.162 149.139 223.047 152.525 223.738 155.952C223.768 156.101 223.795 156.237 223.819 156.358L223.829 156.396C223.839 156.453 223.846 156.49 223.849 156.5C224.217 158.036 223.961 159.911 223.285 161.768Z" fill="#2F2E41"/>
<path d="M223.959 151.024C223.909 150.808 223.844 150.588 223.777 150.374C223.241 148.76 222.616 147.176 221.906 145.631C221.109 143.872 220.153 141.987 219.015 139.947C218.465 138.959 217.873 137.931 217.239 136.864C216.922 136.33 216.592 135.785 216.25 135.23C216.236 135.205 216.222 135.18 216.206 135.156L216.108 134.993L200.31 137.111L194.427 137.9L194.076 140.837L193.992 141.564C193.988 141.564 193.988 141.564 193.992 141.567L193.755 143.55V143.553L193.441 146.172L193.414 146.169L184.685 145.035L175.688 143.868L170.856 143.242C169.736 143.096 168.598 143.174 167.509 143.473C166.419 143.772 165.4 144.284 164.51 144.981C163.582 145.703 162.806 146.602 162.228 147.626C161.65 148.651 161.281 149.781 161.144 150.95C161.113 151.186 161.093 151.43 161.083 151.67L156.524 162.494C153.796 168.967 152.058 175.815 151.37 182.808L148.027 193.517L148.503 193.561L155.588 194.22L157.459 194.396L161.579 188.37C162.049 187.684 162.494 186.976 162.91 186.252C163.594 185.07 164.202 183.845 164.73 182.585L173.642 161.337C174.331 161.455 175.013 161.568 175.688 161.675C178.812 162.183 181.811 162.597 184.685 162.917C194.029 163.962 202.12 164.044 209.323 163.157C211.346 162.91 213.301 162.585 215.189 162.183C215.882 162.037 216.565 161.88 217.239 161.712C217.398 161.675 217.553 161.638 217.708 161.597C219.104 161.237 220.387 160.531 221.44 159.545C222.493 158.559 223.283 157.324 223.736 155.954C224.278 154.365 224.355 152.655 223.959 151.024Z" fill="#2F2E41"/>
<path d="M150.398 205.335L145.423 202.946L144.643 202.57L143.397 205.636L134.698 207.554C134.268 207.649 133.879 207.878 133.589 208.21C133.298 208.542 133.121 208.958 133.083 209.397C133.046 209.837 133.149 210.277 133.379 210.653C133.609 211.03 133.953 211.323 134.36 211.489L142.86 214.964L145.558 212.531L144.897 215.796L148.098 217.106L151.607 205.917L150.398 205.335Z" fill="#2F2E41"/>
<path d="M180.967 200.614L181.285 201.419H180.967V200.614Z" fill="#2F2E41"/>
<path d="M121.532 142.057C121.532 140.243 120.924 138.771 120.178 138.768H63.954C63.2043 138.771 62.5998 140.243 62.5964 142.057V216.71C62.5965 216.878 62.5339 217.04 62.421 217.165C62.3081 217.29 62.1529 217.368 61.9856 217.384C61.4395 217.437 60.8934 217.486 60.3473 217.531C60.3338 217.531 60.3203 217.534 60.3068 217.534C60.0096 217.561 59.7125 217.581 59.4153 217.605H59.4119C59.259 217.322 59.1079 217.036 58.9586 216.748C58.9081 216.651 58.8817 216.543 58.8817 216.434V137.79C58.8817 137.289 58.902 136.785 58.9357 136.288C58.984 135.605 59.0685 134.925 59.189 134.251C59.7597 131.108 61.0497 128.98 62.5154 128.973H121.613C121.827 128.974 122.038 129.019 122.234 129.105C122.522 129.233 122.783 129.415 123.001 129.643C123.297 129.951 123.551 130.298 123.754 130.675C124.477 131.95 124.993 133.852 125.176 136.065C125.176 136.085 125.179 136.105 125.179 136.125C125.226 136.674 125.25 137.232 125.247 137.79L125.294 145.041L125.324 149.365L125.416 162.932L125.449 167.75L125.598 217.216C125.598 217.396 125.527 217.568 125.4 217.695C125.273 217.821 125.102 217.893 124.923 217.893H122.207C122.028 217.893 121.856 217.821 121.73 217.695C121.603 217.568 121.532 217.396 121.532 217.216L121.532 142.057Z" fill="#263560"/>
<path d="M81.4548 108.859L77.5439 126.099L75.0449 128.841H73.2419L80.6727 97.4954L81.0401 102.821V102.824L81.4548 108.859Z" fill="#3F3D56"/>
<path d="M100.276 126.477L77.3328 126.332L75.2964 126.318L73.8443 126.308L72.1524 126.298H72.1389C71.8935 126.298 71.6582 126.396 71.4838 126.569L68.6268 129.431C68.5636 129.493 68.5121 129.567 68.4749 129.648C68.4571 129.67 68.4423 129.695 68.431 129.722C68.3691 129.866 68.3436 130.023 68.3566 130.179C68.3695 130.335 68.4207 130.486 68.5054 130.617C68.5901 130.749 68.7059 130.858 68.8425 130.934C68.9791 131.011 69.1324 131.052 69.2887 131.055H99.0098C99.1881 131.054 99.3627 131.003 99.5133 130.907C99.6639 130.812 99.7843 130.675 99.8608 130.514L100.094 130.006L100.573 128.974L101.117 127.81C101.175 127.687 101.205 127.551 101.205 127.414C101.204 127.168 101.105 126.931 100.932 126.756C100.758 126.58 100.523 126.48 100.276 126.477Z" fill="#3F3D56"/>
<path opacity="0.17" d="M100.093 130.005L99.8588 130.515C99.7825 130.676 99.6624 130.812 99.5122 130.908C99.3621 131.003 99.1881 131.054 99.0102 131.055H69.2879C69.1316 131.053 68.9784 131.011 68.8418 130.935C68.7052 130.859 68.5895 130.75 68.5049 130.618C68.4202 130.487 68.3692 130.336 68.3564 130.18C68.3436 130.024 68.3694 129.867 68.4314 129.723C68.4419 129.696 68.4564 129.671 68.4745 129.649L100.093 130.005Z" fill="black"/>
<path opacity="0.17" d="M81.0401 102.821V102.824L74.6772 128.841H73.2419L80.6727 97.4954L81.0401 102.821Z" fill="black"/>
<path d="M88.8486 107.588L79.8421 38.9345C79.8092 38.6772 79.6755 38.4435 79.4707 38.2849L73.2705 30.5097L72.7132 30.08C72.5068 29.9235 72.2474 29.8542 71.9906 29.8872L71.0585 30.0124C70.8015 30.0456 70.5681 30.1797 70.4098 30.3853C70.2515 30.5909 70.1811 30.8511 70.2143 31.1086L79.5483 102.242V102.245L80.119 106.596L80.7978 111.763V111.77L81.8515 119.809C81.8682 119.946 81.9147 120.079 81.9875 120.197C82.0604 120.315 82.158 120.416 82.2736 120.492C82.3871 120.57 82.516 120.624 82.6517 120.648C82.7874 120.673 82.9267 120.668 83.0604 120.634L83.6514 120.485C83.8778 120.427 84.0763 120.29 84.212 120.1L84.4754 119.724L84.597 119.548L88.6764 108.281C88.8196 108.08 88.8811 107.832 88.8486 107.588Z" fill="#3F3D56"/>
<path opacity="0.17" d="M73.2689 30.5099L84.598 119.549L84.4749 119.724L84.2124 120.098C84.0769 120.289 83.8782 120.426 83.6516 120.484L83.0598 120.633C82.9258 120.666 82.7864 120.671 82.6505 120.647C82.5147 120.622 82.3855 120.569 82.2714 120.491C82.1573 120.414 82.0609 120.313 81.9885 120.195C81.9161 120.077 81.8693 119.945 81.8511 119.808L70.2156 31.1095C70.1819 30.8519 70.2517 30.5915 70.4096 30.3855C70.5675 30.1794 70.8005 30.0446 71.0576 30.0107L71.992 29.8876C72.1188 29.8704 72.2478 29.8787 72.3713 29.912C72.4949 29.9453 72.6106 30.0028 72.7117 30.0813L73.2689 30.5099Z" fill="black"/>
<path d="M73.6024 33.0563L79.6144 41.6539L86.7602 96.1275L82.8861 103.828L73.6024 33.0563Z" fill="#B8BECC"/>
<path d="M202.809 217.326L198.686 217.404L210.146 177.52L214.269 178.796L202.809 217.326Z" fill="#263560"/>
<path d="M229.849 217.402L225.73 217.324L214.423 179.298L214.268 178.797L216.912 177.979C217.436 177.989 217.979 177.995 218.54 178.002L218.942 179.305L229.849 217.402Z" fill="#263560"/>
<path d="M179.235 201.591L174.023 203.4L173.205 203.683L174.472 206.74L169.638 214.236C169.398 214.606 169.284 215.043 169.31 215.484C169.337 215.924 169.503 216.345 169.785 216.683C170.067 217.022 170.449 217.262 170.877 217.368C171.304 217.473 171.754 217.439 172.161 217.27L180.641 213.747L180.85 210.116L182.673 212.903L185.867 211.576L180.503 201.152L179.235 201.591Z" fill="#2F2E41"/>
<path d="M147.6 89.6428C147.847 90.1252 148.197 90.5474 148.625 90.8797C149.052 91.2121 149.547 91.4464 150.075 91.5663C150.603 91.6862 151.151 91.6886 151.68 91.5735C152.208 91.4584 152.706 91.2285 153.136 90.9001L164.096 98.1898L164.117 91.3406L153.706 85.4682C153.107 84.7801 152.278 84.3358 151.374 84.2197C150.47 84.1036 149.555 84.3237 148.803 84.8383C148.05 85.3529 147.512 86.1262 147.29 87.0117C147.069 87.8972 147.179 88.8333 147.6 89.6428V89.6428Z" fill="#A0616A"/>
<path d="M155.788 92.8084L160.902 86.9799L181.723 99.3641L209.324 96.8316C210.688 96.7065 212.063 96.8838 213.351 97.351C214.64 97.8181 215.809 98.5637 216.778 99.5348C217.746 100.506 218.489 101.679 218.954 102.97C219.419 104.261 219.595 105.639 219.468 107.005C219.238 109.474 218.039 111.75 216.136 113.334C214.232 114.918 211.779 115.68 209.315 115.455L178.23 112.572L155.788 92.8084Z" fill="#B8BDCC"/>
<path d="M219.849 92.8984L219.801 92.838L206.755 91.5483L197.941 107.104C190.365 116.384 195.87 122.784 196.2 123.736L193.57 135.885L194.159 139.951L194.454 141.159L224.474 156.875L218.304 136.28L224.329 117.499C225.664 113.346 225.954 108.927 225.173 104.635C224.391 100.343 222.562 96.3109 219.849 92.8984Z" fill="#B8BDCC"/>
<path d="M234.142 79.2094C234.149 79.3752 234.152 79.541 234.152 79.7034C234.149 81.4953 233.723 83.2612 232.909 84.8566C232.095 86.452 230.915 87.8318 229.467 88.883C228.018 89.9343 226.342 90.6273 224.575 90.9054C222.808 91.1834 221.001 91.0387 219.3 90.483L217.217 89.8029C217.2 89.7961 217.18 89.7928 217.163 89.786L213.728 88.6627C213.717 88.5173 213.719 88.3712 213.735 88.2262C208.612 86.0338 215.694 78.8304 217.453 73.4203C217.727 72.5779 208.322 73.2072 208.767 72.4865C208.669 72.4358 208.572 72.385 208.48 72.3343C210.069 69.8223 212.418 67.885 215.183 66.8052C217.949 65.7254 220.986 65.5596 223.852 66.3321C223.927 66.349 224.004 66.3727 224.079 66.393C230.752 66.5588 234.257 71.2177 234.257 77.2673C234.257 77.9164 234.218 78.5648 234.142 79.2094Z" fill="#2F2E41"/>
<path d="M228.361 81.5914C227.466 84.3386 225.518 86.6171 222.946 87.926C220.375 89.2349 217.389 89.4671 214.647 88.5714C214.336 88.4699 214.032 88.3548 213.735 88.2263C211.239 87.1545 209.234 85.186 208.114 82.7079C206.993 80.2297 206.839 77.4212 207.68 74.8347C207.947 74.0111 208.312 73.2227 208.768 72.4866C210.166 70.2181 212.345 68.5419 214.894 67.7753C217.443 67.0086 220.184 67.2048 222.598 68.3265C225.012 69.4483 226.931 71.4179 227.993 73.8624C229.056 76.3069 229.186 79.0567 228.361 81.5914Z" fill="#A0616A"/>
<path d="M217.217 89.8029C217.2 89.7961 217.179 89.7927 217.162 89.786L213.728 88.6627C213.717 88.5173 213.719 88.3712 213.735 88.2262C213.837 87.0933 214.631 85.9069 215.696 84.6261C216.382 83.807 216.859 82.833 217.086 81.7881C217.313 80.7432 217.282 79.6587 216.997 78.6281C216.713 77.5976 216.182 76.6519 215.451 75.8726C214.721 75.0933 213.812 74.5037 212.803 74.1547C212.773 74.1445 212.744 74.1343 212.715 74.1241C211.362 73.6715 210.043 73.1243 208.767 72.4865C208.669 72.4357 208.571 72.385 208.48 72.3342C207.622 71.8605 207.001 71.3869 206.728 70.9335C207.136 69.6766 207.789 68.5128 208.646 67.5084C209.504 66.5041 210.551 65.6789 211.728 65.0801C212.904 64.4812 214.187 64.1204 215.502 64.0183C216.818 63.9161 218.14 64.0746 219.395 64.4847L221.387 65.1343C223.9 65.9525 225.988 67.7331 227.196 70.0876C228.6 71.0959 229.708 72.5779 230.576 74.3271C234.939 83.1037 226.517 92.7939 217.217 89.8029Z" fill="#2F2E41"/>
<path d="M223.792 142.882C223.792 143.477 223.612 144.058 223.275 144.549C222.939 145.039 222.462 145.416 221.908 145.629C221.644 145.731 221.368 145.792 221.087 145.812C221.013 145.819 220.935 145.822 220.861 145.822H215.191V173.384C215.106 173.495 215.018 173.607 214.931 173.719C214.444 174.341 213.951 174.964 213.451 175.576C213.343 175.712 213.235 175.843 213.131 175.975C212.965 176.175 212.803 176.375 212.641 176.571C212.584 176.639 212.53 176.703 212.476 176.771C212.199 177.102 211.922 177.434 211.638 177.765V177.769C211.635 177.772 211.635 177.772 211.635 177.775L211.493 177.938C211.267 178.205 211.04 178.476 210.807 178.743C210.491 178.567 210.211 178.331 209.983 178.049C209.842 177.88 209.722 177.693 209.625 177.495C209.622 177.491 209.622 177.488 209.619 177.481C209.615 177.473 209.611 177.466 209.608 177.457C209.419 177.062 209.322 176.628 209.325 176.189V145.822H196.614C196.238 145.825 195.867 145.752 195.52 145.609C195.082 145.434 194.693 145.156 194.386 144.797C194.079 144.439 193.863 144.012 193.757 143.552V143.549C193.598 142.881 193.682 142.178 193.993 141.566C193.99 141.563 193.99 141.563 193.993 141.563C194.124 141.295 194.299 141.052 194.51 140.842V140.839C194.51 140.835 194.51 140.835 194.513 140.832C194.787 140.551 195.114 140.329 195.474 140.176C195.835 140.024 196.222 139.946 196.614 139.945H220.861C221.638 139.946 222.383 140.255 222.933 140.806C223.482 141.357 223.791 142.103 223.792 142.882Z" fill="#263560"/>
<path d="M239.938 85.9972C238.751 85.775 237.533 85.789 236.352 86.0385C235.171 86.288 234.051 86.7681 233.055 87.4514C232.059 88.1346 231.208 89.0077 230.549 90.0208C229.89 91.0339 229.436 92.167 229.215 93.3556V93.3556C228.823 95.4553 229.172 97.626 230.202 99.4962C231.232 101.366 232.879 102.82 234.86 103.607L232.097 118.411L237.864 119.491L243.974 86.7535L239.938 85.9972Z" fill="#263560"/>
<path d="M231.636 75.112C234.247 75.112 236.364 72.9913 236.364 70.3752C236.364 67.7592 234.247 65.6384 231.636 65.6384C229.025 65.6384 226.908 67.7592 226.908 70.3752C226.908 72.9913 229.025 75.112 231.636 75.112Z" fill="#2F2E41"/>
<path d="M286.75 83.9762C284.699 84.6618 282.505 84.7786 280.343 84.816C274.052 84.925 267.601 84.3727 261.875 81.7589C256.149 79.1451 251.219 74.1779 249.946 68.0039C249.398 65.3429 249.462 62.379 247.788 60.241C245.802 57.7035 241.81 57.3576 239.029 58.9818C236.249 60.606 234.625 63.7667 234.153 66.9566L233.033 68.7811C233.059 69.9558 234.328 70.7369 235.495 70.8471C236.663 70.9572 237.837 70.6349 239.006 70.7221C241.569 70.913 243.659 73.1094 244.406 75.5731C245.153 78.0368 244.793 80.7017 244.154 83.1957C243.514 85.6896 242.601 88.1225 242.236 90.6713C241.871 93.2201 242.119 95.9862 243.616 98.0794C244.739 99.6503 246.451 100.692 248.191 101.525C252.405 103.542 257.021 104.575 261.691 104.546C266.36 104.517 270.963 103.427 275.152 101.358C279.34 99.2897 283.006 96.2958 285.872 92.6023C288.739 88.9087 290.732 84.6118 291.702 80.0349C290.721 81.9662 288.801 83.2905 286.75 83.9762Z" fill="#2F2E41"/>
<path d="M195.979 184.14H186.35C185.82 184.14 185.309 183.948 184.909 183.6C184.509 183.252 184.248 182.771 184.173 182.246C183.579 177.862 183.579 173.418 184.173 169.034C184.247 168.515 184.503 168.039 184.895 167.692C185.287 167.345 185.79 167.149 186.313 167.14C189.343 165.779 192.605 165.78 196.012 167.14C196.33 167.144 196.642 167.218 196.928 167.356C197.214 167.494 197.466 167.693 197.667 167.939C197.876 168.195 198.026 168.495 198.106 168.816C198.185 169.138 198.192 169.473 198.126 169.797C197.353 173.654 197.353 177.626 198.126 181.483C198.192 181.807 198.185 182.142 198.106 182.464C198.026 182.785 197.876 183.085 197.667 183.341C197.463 183.591 197.205 183.793 196.913 183.931C196.621 184.07 196.302 184.141 195.979 184.14Z" fill="#B8BDCC"/>
<path d="M194.97 172.177H186.865C186.731 172.177 186.602 172.123 186.507 172.028C186.412 171.933 186.359 171.804 186.359 171.669C186.359 171.535 186.412 171.405 186.507 171.31C186.602 171.215 186.731 171.162 186.865 171.162H194.97C195.105 171.162 195.233 171.215 195.328 171.31C195.423 171.405 195.477 171.535 195.477 171.669C195.477 171.804 195.423 171.933 195.328 172.028C195.233 172.123 195.105 172.177 194.97 172.177Z" fill="#E6E6E6"/>
<path d="M194.97 176.237H186.865C186.731 176.237 186.602 176.183 186.507 176.088C186.412 175.993 186.359 175.864 186.359 175.729C186.359 175.595 186.412 175.466 186.507 175.371C186.602 175.275 186.731 175.222 186.865 175.222H194.97C195.105 175.222 195.233 175.275 195.328 175.371C195.423 175.466 195.477 175.595 195.477 175.729C195.477 175.864 195.423 175.993 195.328 176.088C195.233 176.183 195.105 176.237 194.97 176.237Z" fill="#E6E6E6"/>
<path d="M194.97 180.297H186.865C186.731 180.297 186.602 180.244 186.507 180.148C186.412 180.053 186.359 179.924 186.359 179.79C186.359 179.655 186.412 179.526 186.507 179.431C186.602 179.336 186.731 179.282 186.865 179.282H194.97C195.105 179.282 195.233 179.336 195.328 179.431C195.423 179.526 195.477 179.655 195.477 179.79C195.477 179.924 195.423 180.053 195.328 180.148C195.233 180.244 195.105 180.297 194.97 180.297Z" fill="#E6E6E6"/>
<path d="M80.9119 76.6007V76.5998C80.9221 76.5175 80.964 76.4424 81.0287 76.3906C81.0934 76.3389 81.1757 76.3144 81.2581 76.3226L133.359 76.4616C133.441 76.454 133.523 76.4787 133.587 76.5307C133.652 76.5826 133.693 76.6577 133.703 76.7398V76.7407C133.693 76.8231 133.651 76.8981 133.586 76.9499C133.521 77.0017 133.439 77.0261 133.357 77.0179L81.2557 76.8789C81.1735 76.8866 81.0916 76.8618 81.0274 76.8098C80.9631 76.7579 80.9217 76.6829 80.9119 76.6007Z" fill="#3F3D56"/>
<path d="M94.69 108.75L92.4777 111.188C92.3752 111.274 92.25 111.329 92.1171 111.347C91.9841 111.364 91.8491 111.343 91.7279 111.285C91.361 111.155 91.0346 110.931 90.7811 110.635C89.2001 108.837 87.4252 107.22 85.4888 105.814C85.1707 105.59 84.917 105.285 84.7528 104.932C84.6862 104.818 84.6525 104.688 84.6554 104.556C84.6584 104.424 84.6978 104.296 84.7694 104.185C84.7915 102.851 85.5414 102.025 86.9987 101.728C87.2542 101.462 87.8314 101.563 88.3487 101.967C90.4769 103.631 92.4769 105.453 94.3319 107.417C94.7874 107.9 94.9414 108.473 94.69 108.75Z" fill="#B8BDCC"/>
<path d="M89.0034 103.503L87.1414 105.555C87.0771 105.625 86.9222 105.589 86.7952 105.473C86.6682 105.358 86.6174 105.207 86.6817 105.136L88.5437 103.084C88.608 103.013 88.763 103.049 88.8899 103.165C89.0169 103.281 89.0677 103.432 89.0034 103.503Z" fill="#E6E6E6"/>
<path d="M90.8432 105.178L88.9813 107.229C88.917 107.3 88.762 107.264 88.635 107.148C88.5081 107.033 88.4573 106.882 88.5216 106.811L90.3835 104.759C90.4478 104.688 90.6028 104.724 90.7298 104.84C90.8567 104.956 90.9075 105.107 90.8432 105.178Z" fill="#E6E6E6"/>
<path d="M92.6814 106.853L90.8194 108.904C90.7552 108.975 90.6002 108.939 90.4732 108.823C90.3463 108.708 90.2955 108.556 90.3598 108.486L92.2217 106.434C92.286 106.363 92.441 106.399 92.568 106.515C92.6949 106.631 92.7457 106.782 92.6814 106.853Z" fill="#E6E6E6"/>
<path d="M292 217.597C292 217.65 291.99 217.703 291.97 217.751C291.95 217.8 291.92 217.845 291.883 217.882C291.845 217.92 291.801 217.949 291.752 217.97C291.703 217.99 291.651 218 291.598 218H0.401865C0.295284 218 0.193067 217.957 0.117703 217.882C0.0423386 217.806 0 217.704 0 217.597C0 217.49 0.0423386 217.388 0.117703 217.312C0.193067 217.237 0.295284 217.195 0.401865 217.195H291.598C291.651 217.194 291.703 217.205 291.752 217.225C291.801 217.245 291.845 217.275 291.883 217.312C291.92 217.35 291.95 217.394 291.97 217.443C291.99 217.492 292 217.544 292 217.597Z" fill="#CCCCCC"/>
<path d="M198.8 171.808C199.266 171.532 199.666 171.157 199.972 170.71C200.278 170.262 200.482 169.753 200.57 169.218C200.658 168.683 200.628 168.135 200.482 167.613C200.336 167.091 200.077 166.607 199.724 166.196L206.337 154.802L199.512 155.188L194.279 165.949C193.629 166.588 193.235 167.444 193.173 168.355C193.111 169.266 193.385 170.168 193.942 170.89C194.499 171.612 195.302 172.105 196.197 172.274C197.092 172.443 198.019 172.277 198.8 171.808V171.808Z" fill="#A0616A"/>
<path d="M201.469 163.43L195.358 158.662L206.462 137.103L202.302 109.649C202.096 108.292 202.191 106.906 202.58 105.59C202.969 104.274 203.643 103.06 204.553 102.034C205.463 101.008 206.587 100.195 207.846 99.6533C209.105 99.1116 210.467 98.8542 211.836 98.8993C214.309 98.9837 216.648 100.047 218.339 101.857C220.03 103.667 220.936 106.075 220.857 108.553L219.829 139.814L201.469 163.43Z" fill="#B8BDCC"/>
<path d="M148.476 95.4996H127.842C127.289 95.499 126.759 95.2786 126.368 94.8868C125.977 94.4951 125.757 93.9639 125.756 93.4099V66.0366C125.757 65.4826 125.977 64.9514 126.368 64.5597C126.759 64.1679 127.289 63.9475 127.842 63.9469H148.476C149.029 63.9475 149.559 64.1679 149.95 64.5597C150.341 64.9514 150.561 65.4826 150.561 66.0366V93.4099C150.561 93.9639 150.341 94.4951 149.95 94.8869C149.559 95.2786 149.029 95.499 148.476 95.4996Z" fill="#E6E6E6"/>
<path d="M147.025 93.7579H129.292C128.801 93.7573 128.331 93.5617 127.984 93.2138C127.636 92.866 127.441 92.3944 127.441 91.9024V67.5439C127.441 67.052 127.636 66.5804 127.984 66.2325C128.331 65.8847 128.801 65.689 129.292 65.6885H147.025C147.516 65.689 147.987 65.8847 148.334 66.2325C148.682 66.5804 148.877 67.052 148.877 67.5439V91.9024C148.877 92.3944 148.682 92.866 148.334 93.2138C147.987 93.5617 147.516 93.7573 147.025 93.7579Z" fill="#E6E6E6"/>
<path d="M145.257 70.3175H131.062C131.001 70.3177 130.94 70.3058 130.884 70.2826C130.828 70.2594 130.777 70.2252 130.733 70.1821C130.69 70.139 130.656 70.0879 130.633 70.0315C130.609 69.9752 130.597 69.9147 130.597 69.8537C130.597 69.7927 130.609 69.7323 130.633 69.6759C130.656 69.6196 130.69 69.5684 130.733 69.5253C130.777 69.4822 130.828 69.4481 130.884 69.4248C130.94 69.4016 131.001 69.3897 131.062 69.3899H145.257C145.317 69.3897 145.378 69.4016 145.434 69.4248C145.49 69.4481 145.542 69.4822 145.585 69.5253C145.628 69.5684 145.662 69.6196 145.685 69.6759C145.709 69.7323 145.721 69.7927 145.721 69.8537C145.721 69.9147 145.709 69.9752 145.685 70.0315C145.662 70.0879 145.628 70.139 145.585 70.1821C145.542 70.2252 145.49 70.2594 145.434 70.2826C145.378 70.3058 145.317 70.3177 145.257 70.3175Z" fill="#263560"/>
<path d="M145.257 72.1503H131.062C130.939 72.1503 130.821 72.1015 130.734 72.0145C130.647 71.9275 130.599 71.8095 130.599 71.6865C130.599 71.5635 130.647 71.4455 130.734 71.3585C130.821 71.2715 130.939 71.2227 131.062 71.2227H145.257C145.317 71.2227 145.378 71.2347 145.434 71.258C145.49 71.2813 145.541 71.3154 145.584 71.3585C145.627 71.4016 145.661 71.4527 145.684 71.509C145.708 71.5653 145.72 71.6256 145.72 71.6865C145.72 71.7474 145.708 71.8077 145.684 71.864C145.661 71.9203 145.627 71.9714 145.584 72.0145C145.541 72.0576 145.49 72.0917 145.434 72.115C145.378 72.1384 145.317 72.1503 145.257 72.1503Z" fill="#263560"/>
<path d="M137.215 73.9831H131.062C130.939 73.9831 130.821 73.9342 130.734 73.8472C130.647 73.7603 130.599 73.6423 130.599 73.5193C130.599 73.3962 130.647 73.2783 130.734 73.1913C130.821 73.1043 130.939 73.0554 131.062 73.0554H137.215C137.338 73.0554 137.455 73.1043 137.542 73.1913C137.629 73.2783 137.678 73.3962 137.678 73.5193C137.678 73.6423 137.629 73.7603 137.542 73.8472C137.455 73.9342 137.338 73.9831 137.215 73.9831Z" fill="#263560"/>
<path d="M145.257 77.8218H131.062C131.001 77.822 130.94 77.8101 130.884 77.7869C130.828 77.7636 130.777 77.7295 130.733 77.6864C130.69 77.6433 130.656 77.5921 130.633 77.5358C130.609 77.4794 130.597 77.419 130.597 77.358C130.597 77.297 130.609 77.2366 130.633 77.1802C130.656 77.1238 130.69 77.0727 130.733 77.0296C130.777 76.9865 130.828 76.9523 130.884 76.9291C130.94 76.9059 131.001 76.894 131.062 76.8942H145.257C145.317 76.894 145.378 76.9059 145.434 76.9291C145.49 76.9523 145.542 76.9865 145.585 77.0296C145.628 77.0727 145.662 77.1238 145.685 77.1802C145.709 77.2366 145.721 77.297 145.721 77.358C145.721 77.419 145.709 77.4794 145.685 77.5358C145.662 77.5921 145.628 77.6433 145.585 77.6864C145.542 77.7295 145.49 77.7636 145.434 77.7869C145.378 77.8101 145.317 77.822 145.257 77.8218Z" fill="#E4E4E4"/>
<path d="M145.257 79.6546H131.062C131.001 79.6548 130.94 79.6429 130.884 79.6197C130.828 79.5964 130.777 79.5623 130.733 79.5192C130.69 79.4761 130.656 79.4249 130.633 79.3686C130.609 79.3122 130.597 79.2518 130.597 79.1908C130.597 79.1298 130.609 79.0693 130.633 79.013C130.656 78.9566 130.69 78.9054 130.733 78.8623C130.777 78.8192 130.828 78.7851 130.884 78.7619C130.94 78.7386 131.001 78.7268 131.062 78.7269H145.257C145.317 78.7268 145.378 78.7386 145.434 78.7619C145.49 78.7851 145.542 78.8192 145.585 78.8623C145.628 78.9054 145.662 78.9566 145.685 79.013C145.709 79.0693 145.721 79.1298 145.721 79.1908C145.721 79.2518 145.709 79.3122 145.685 79.3686C145.662 79.4249 145.628 79.4761 145.585 79.5192C145.542 79.5623 145.49 79.5964 145.434 79.6197C145.378 79.6429 145.317 79.6548 145.257 79.6546Z" fill="#E4E4E4"/>
<path d="M137.215 81.4874H131.062C130.939 81.4874 130.821 81.4385 130.734 81.3515C130.647 81.2645 130.599 81.1466 130.599 81.0235C130.599 80.9005 130.647 80.7825 130.734 80.6955C130.821 80.6086 130.939 80.5597 131.062 80.5597H137.215C137.338 80.5597 137.455 80.6086 137.542 80.6955C137.629 80.7825 137.678 80.9005 137.678 81.0235C137.678 81.1466 137.629 81.2645 137.542 81.3515C137.455 81.4385 137.338 81.4874 137.215 81.4874Z" fill="#E4E4E4"/>
<path d="M145.257 85.326H131.062C130.939 85.326 130.821 85.2771 130.734 85.1901C130.648 85.1031 130.599 84.9852 130.599 84.8621C130.599 84.7391 130.648 84.6212 130.734 84.5342C130.821 84.4472 130.939 84.3983 131.062 84.3983H145.257C145.379 84.3983 145.497 84.4472 145.584 84.5342C145.671 84.6212 145.72 84.7391 145.72 84.8621C145.72 84.9852 145.671 85.1031 145.584 85.1901C145.497 85.2771 145.379 85.326 145.257 85.326Z" fill="#E4E4E4"/>
<path d="M145.257 87.1586H131.062C130.939 87.1586 130.821 87.1098 130.734 87.0228C130.647 86.9358 130.599 86.8178 130.599 86.6948C130.599 86.5718 130.647 86.4538 130.734 86.3668C130.821 86.2798 130.939 86.231 131.062 86.231H145.257C145.379 86.231 145.497 86.2798 145.584 86.3668C145.671 86.4538 145.72 86.5718 145.72 86.6948C145.72 86.8178 145.671 86.9358 145.584 87.0228C145.497 87.1098 145.379 87.1586 145.257 87.1586Z" fill="#E4E4E4"/>
<path d="M137.215 88.9915H131.062C130.939 88.9915 130.821 88.9427 130.734 88.8557C130.647 88.7687 130.599 88.6507 130.599 88.5277C130.599 88.4047 130.647 88.2867 130.734 88.1997C130.821 88.1127 130.939 88.0638 131.062 88.0638H137.215C137.338 88.0638 137.455 88.1127 137.542 88.1997C137.629 88.2867 137.678 88.4047 137.678 88.5277C137.678 88.6507 137.629 88.7687 137.542 88.8557C137.455 88.9427 137.338 88.9915 137.215 88.9915Z" fill="#E4E4E4"/>
<path d="M78.2606 59.027L133.615 11.5903H133.703V12.2866H133.872L78.7128 59.5562L78.2606 59.027Z" fill="#2F2E41"/>
<path d="M116.479 113.504H91.0267C90.6291 113.505 90.2478 113.663 89.9666 113.945C89.6855 114.226 89.5273 114.608 89.5269 115.007V130.883C89.5273 131.282 89.6855 131.664 89.9666 131.945C90.2478 132.227 90.6291 132.385 91.0267 132.386H116.479C116.876 132.385 117.257 132.227 117.539 131.945C117.82 131.664 117.978 131.282 117.978 130.883V115.007C117.978 114.608 117.82 114.226 117.539 113.945C117.257 113.663 116.876 113.505 116.479 113.504Z" fill="#E6E6E6"/>
<path d="M116.479 113.504H91.0267C90.6291 113.505 90.2478 113.663 89.9666 113.945C89.6855 114.226 89.5273 114.608 89.5269 115.007V130.883C89.5273 131.282 89.6855 131.664 89.9666 131.945C90.2478 132.227 90.6291 132.385 91.0267 132.386H116.479C116.876 132.385 117.257 132.227 117.539 131.945C117.82 131.664 117.978 131.282 117.978 130.883V115.007C117.978 114.608 117.82 114.226 117.539 113.945C117.257 113.663 116.876 113.505 116.479 113.504ZM116.971 124.908C116.965 126.525 116.327 128.074 115.193 129.225C114.06 130.375 112.522 131.034 110.909 131.062C108.326 131.095 112.338 131.108 109.223 131.108C102.101 131.108 94.6739 131.04 91.9029 130.996C91.5384 130.988 91.1912 130.838 90.9355 130.578C90.6798 130.317 90.5359 129.967 90.5345 129.602V115.008C90.5346 114.877 90.5865 114.752 90.6787 114.659C90.7709 114.566 90.896 114.514 91.0266 114.514H116.478C116.608 114.514 116.733 114.566 116.826 114.658C116.918 114.751 116.97 114.876 116.971 115.007V124.908Z" fill="#CACACA"/>
<path d="M113.121 123.637H93.729C93.5574 123.637 93.3901 123.584 93.2499 123.484C93.1096 123.385 93.0034 123.245 92.9455 123.084L89.9506 114.665C89.9059 114.54 89.892 114.405 89.91 114.273C89.928 114.141 89.9774 114.015 90.054 113.906C90.1307 113.797 90.2323 113.708 90.3505 113.646C90.4686 113.585 90.5998 113.552 90.7329 113.552L116.74 113.506H116.741C116.879 113.506 117.015 113.54 117.136 113.605C117.257 113.671 117.36 113.765 117.436 113.88C117.512 113.996 117.558 114.128 117.57 114.265C117.582 114.402 117.56 114.541 117.506 114.667L117.461 114.648L117.506 114.667L113.885 123.132C113.821 123.282 113.714 123.41 113.579 123.5C113.443 123.589 113.283 123.637 113.121 123.637Z" fill="#CACACA"/>
<path d="M103.739 125.713C104.883 125.713 105.811 124.783 105.811 123.637C105.811 122.49 104.883 121.561 103.739 121.561C102.594 121.561 101.667 122.49 101.667 123.637C101.667 124.783 102.594 125.713 103.739 125.713Z" fill="#3F3D56"/>
<path d="M47.9979 207.205C47.5926 210.196 45.563 212.895 42.9526 214.658C42.3307 215.079 41.6743 215.447 40.9906 215.758C40.2388 216.098 39.4635 216.383 38.6706 216.611C35.1922 217.629 31.4336 217.673 27.7763 217.693C24.0785 217.717 20.3818 217.741 16.6862 217.764C13.7719 217.781 10.763 217.781 8.07148 216.661C8.03124 216.646 7.99178 216.629 7.95329 216.611C5.30909 215.467 3.05662 212.953 3.12078 210.077C3.14658 209.064 3.4327 208.075 3.95153 207.205C4.29496 206.62 4.7077 206.079 5.18076 205.594C6.64638 204.072 8.67934 202.877 10.584 201.916C13.7246 200.336 17.2738 198.286 18.1924 195.038C18.2893 194.696 18.3549 194.346 18.3882 193.992C18.6044 191.759 17.5204 189.705 16.1392 187.868C16.0041 187.686 15.8622 187.503 15.717 187.32C15.4063 186.931 15.0855 186.549 14.7681 186.183C14.633 186.028 14.4979 185.869 14.3595 185.71C13.083 184.228 11.7963 182.644 11.1243 180.875C10.835 180.134 10.674 179.349 10.6481 178.554C10.5738 175.681 13.7786 172.788 16.2033 174.145C17.392 174.03 18.5807 173.912 19.7694 173.79C21.2283 173.644 22.6804 173.499 24.1359 173.35H24.1393C24.4669 173.323 24.7877 173.289 25.1085 173.255C28.1377 172.954 31.1646 172.651 34.1893 172.345C35.5333 172.213 37.1138 172.162 37.9884 173.198C38.9407 174.328 38.4477 176.114 37.5055 177.254C36.5633 178.391 35.2564 179.197 34.3716 180.374C33.2268 181.897 32.96 183.822 33.2876 185.71C33.3825 186.258 33.5249 186.797 33.7131 187.32C34.0438 188.255 34.5017 189.14 35.0741 189.949C37.0597 192.737 40.0011 194.659 42.6115 196.868C45.2253 199.081 47.6703 201.889 48.0283 205.293C48.0384 205.391 48.0485 205.493 48.0519 205.594C48.0898 206.131 48.0717 206.671 47.9979 207.205Z" fill="#E6E6E6"/>
<path d="M26.761 176.224C24.1259 173.616 21.8814 170.639 20.0973 167.387C18.3185 164.151 17.0047 160.68 16.1947 157.077C15.3736 153.42 15.1016 149.66 15.3878 145.922C15.9813 138.31 18.7888 131.039 23.4631 125.008C23.7485 124.642 24.0408 124.28 24.3399 123.925C24.6733 123.527 25.2399 124.1 24.9088 124.495C20.1389 130.225 17.1505 137.231 16.3135 144.645C15.7081 150.311 16.3841 156.04 18.2912 161.409C20.1983 166.777 23.2877 171.646 27.3299 175.654C27.6992 176.019 27.1302 176.589 26.761 176.224V176.224Z" fill="#E6E6E6"/>
<path d="M23.1381 125.693C23.4638 125.571 23.7828 125.432 24.0936 125.276C24.1093 125.3 24.1247 125.324 24.1404 125.349L23.1381 125.693Z" fill="#E6E6E6"/>
<path d="M29.3501 118.582C29.2184 119.321 28.9807 120.037 28.6444 120.707C27.7155 122.576 26.2361 124.114 24.4062 125.112C24.3049 125.166 24.2002 125.224 24.0955 125.275C23.9706 125.078 23.8422 124.882 23.7207 124.686C22.8587 123.4 22.2215 121.977 21.8363 120.477C21.4446 118.714 21.6573 116.735 22.7852 115.324C23.9098 113.913 26.0576 113.28 27.6144 114.194C28.0638 114.463 28.4452 114.832 28.7288 115.273C28.5734 115.466 28.4181 115.656 28.2627 115.848C28.2491 115.866 28.2344 115.883 28.2188 115.899C28.0838 116.068 27.9453 116.234 27.8102 116.403C27.2463 117.097 26.6857 117.794 26.1217 118.484C26.9166 118.631 27.7255 118.686 28.5329 118.65C28.5971 118.647 28.6646 118.643 28.7288 118.64C28.9348 118.626 29.1442 118.609 29.3501 118.582Z" fill="#E6E6E6"/>
<path d="M17.9593 132.458L17.7432 135.279L17.6858 136.044C17.625 136.014 17.5608 135.983 17.5001 135.953C15.3995 134.908 13.5457 133.426 12.0624 131.607C10.5792 129.787 9.50059 127.671 8.89881 125.4C8.69762 124.612 8.55651 123.81 8.47668 123.001C9.57084 122.832 10.6684 122.659 11.7625 122.49C10.8767 121.336 9.76707 120.372 8.50033 119.658C8.78918 116.834 9.80761 114.135 11.4552 111.826C11.7389 116.556 16.6828 119.563 18.4929 123.938C19.0482 125.307 19.2886 126.784 19.1962 128.259C19.1039 129.734 18.6811 131.169 17.9593 132.458Z" fill="#E6E6E6"/>
<path d="M17.0203 157.241C16.7569 157.255 16.4935 157.262 16.2335 157.258C13.9862 157.244 11.7654 156.77 9.70745 155.865C7.64945 154.961 5.79759 153.644 4.26539 151.997C3.02507 150.636 2.02781 149.072 1.31726 147.372C1.3409 147.369 1.36116 147.365 1.3848 147.362C2.47895 147.193 3.57648 147.02 4.67063 146.851C3.50857 145.334 1.9641 144.154 0.196092 143.434C-0.0430181 141.905 -0.0612166 140.349 0.142059 138.815C2.61403 142.852 8.3921 143.177 12.0426 146.181C13.7836 147.635 14.9705 149.646 15.4028 151.875C15.5105 152.426 15.5682 152.986 15.575 153.547C15.5784 153.682 15.5784 153.814 15.575 153.946L15.656 154.129L17.0203 157.241Z" fill="#E6E6E6"/>
<path d="M27.8812 161.914C27.1821 162.773 26.4831 163.639 25.784 164.499C26.6435 164.657 27.519 164.709 28.3911 164.654C27.6167 167.433 26.13 169.961 24.0787 171.986C23.8862 172.176 23.6869 172.362 23.4843 172.538C23.4438 172.575 23.3999 172.612 23.3593 172.649L23.177 172.132L23.1736 172.128L22.1402 169.263C20.8292 167.942 19.9213 166.274 19.5231 164.455V164.448C19.2809 163.383 19.2249 162.284 19.3576 161.2C19.9351 156.5 23.8997 152.274 22.9136 147.643C25.0863 149.406 26.7721 151.697 27.8103 154.298C27.2463 154.991 26.6857 155.688 26.1217 156.379C26.9166 156.525 27.7255 156.581 28.5329 156.544C28.8158 157.69 28.9698 158.863 28.9922 160.043C28.9956 160.212 28.9956 160.378 28.9922 160.547C28.6376 160.987 28.2797 161.423 27.9251 161.863C27.9114 161.881 27.8968 161.898 27.8812 161.914Z" fill="#E6E6E6"/>
<path d="M151.515 23.0942H130.882C130.329 23.0935 129.798 22.8732 129.407 22.4814C129.016 22.0896 128.796 21.5585 128.796 21.0044V2.08971C128.796 1.53568 129.016 1.00452 129.407 0.612756C129.798 0.220995 130.329 0.000628648 130.882 0H151.515C152.068 0.000625962 152.598 0.220994 152.989 0.612756C153.38 1.00452 153.6 1.53568 153.601 2.08971V21.0044C153.6 21.5585 153.38 22.0896 152.989 22.4814C152.598 22.8732 152.068 23.0935 151.515 23.0942Z" fill="#E6E6E6"/>
<path d="M150.065 21.3524H132.332C131.841 21.3518 131.37 21.1562 131.023 20.8083C130.676 20.4605 130.481 19.9889 130.48 19.497V3.59701C130.481 3.10509 130.676 2.63347 131.023 2.28563C131.37 1.93779 131.841 1.74214 132.332 1.74158H150.065C150.556 1.74213 151.027 1.93779 151.374 2.28563C151.721 2.63347 151.916 3.10509 151.917 3.59701V19.497C151.916 19.9889 151.721 20.4605 151.374 20.8083C151.027 21.1562 150.556 21.3519 150.065 21.3524Z" fill="#E6E6E6"/>
<path d="M148.296 6.37077H134.101C134.04 6.37093 133.98 6.35906 133.924 6.33582C133.867 6.31259 133.816 6.27845 133.773 6.23536C133.73 6.19227 133.696 6.14108 133.672 6.08473C133.649 6.02837 133.637 5.96796 133.637 5.90694C133.637 5.84592 133.649 5.78551 133.672 5.72915C133.696 5.6728 133.73 5.62161 133.773 5.57852C133.816 5.53544 133.867 5.5013 133.924 5.47806C133.98 5.45483 134.04 5.44295 134.101 5.44312H148.296C148.357 5.44295 148.417 5.45483 148.474 5.47806C148.53 5.5013 148.581 5.53544 148.624 5.57852C148.667 5.62161 148.702 5.6728 148.725 5.72915C148.748 5.78551 148.76 5.84592 148.76 5.90694C148.76 5.96796 148.748 6.02837 148.725 6.08473C148.702 6.14108 148.667 6.19227 148.624 6.23536C148.581 6.27845 148.53 6.31259 148.474 6.33582C148.417 6.35906 148.357 6.37093 148.296 6.37077Z" fill="#263560"/>
<path d="M148.296 8.20358H134.101C133.978 8.20358 133.861 8.1547 133.774 8.06771C133.687 7.98073 133.638 7.86275 133.638 7.73973C133.638 7.61671 133.687 7.49872 133.774 7.41174C133.861 7.32475 133.978 7.27588 134.101 7.27588H148.296C148.419 7.27588 148.537 7.32475 148.623 7.41174C148.71 7.49872 148.759 7.61671 148.759 7.73973C148.759 7.86275 148.71 7.98073 148.623 8.06771C148.537 8.1547 148.419 8.20358 148.296 8.20358Z" fill="#263560"/>
<path d="M140.254 10.0363H134.101C133.978 10.0363 133.861 9.98747 133.774 9.90048C133.687 9.81349 133.638 9.69551 133.638 9.57249C133.638 9.44947 133.687 9.33149 133.774 9.2445C133.861 9.15752 133.978 9.10864 134.101 9.10864H140.254C140.377 9.10864 140.495 9.15752 140.582 9.2445C140.668 9.33149 140.717 9.44947 140.717 9.57249C140.717 9.69551 140.668 9.81349 140.582 9.90048C140.495 9.98747 140.377 10.0363 140.254 10.0363Z" fill="#263560"/>
<path d="M148.296 13.8749H134.101C134.04 13.8751 133.98 13.8632 133.924 13.84C133.867 13.8167 133.816 13.7826 133.773 13.7395C133.73 13.6964 133.696 13.6452 133.672 13.5889C133.649 13.5325 133.637 13.4721 133.637 13.4111C133.637 13.3501 133.649 13.2897 133.672 13.2333C133.696 13.1769 133.73 13.1258 133.773 13.0827C133.816 13.0396 133.867 13.0054 133.924 12.9822C133.98 12.959 134.04 12.9471 134.101 12.9473H148.296C148.357 12.9471 148.417 12.959 148.474 12.9822C148.53 13.0054 148.581 13.0396 148.624 13.0827C148.667 13.1258 148.702 13.1769 148.725 13.2333C148.748 13.2897 148.76 13.3501 148.76 13.4111C148.76 13.4721 148.748 13.5325 148.725 13.5889C148.702 13.6452 148.667 13.6964 148.624 13.7395C148.581 13.7826 148.53 13.8167 148.474 13.84C148.417 13.8632 148.357 13.8751 148.296 13.8749Z" fill="#E4E4E4"/>
<path d="M148.296 15.7078H134.101C134.04 15.708 133.98 15.6961 133.924 15.6729C133.867 15.6497 133.816 15.6155 133.773 15.5724C133.73 15.5293 133.696 15.4782 133.672 15.4218C133.649 15.3654 133.637 15.305 133.637 15.244C133.637 15.183 133.649 15.1226 133.672 15.0662C133.696 15.0098 133.73 14.9587 133.773 14.9156C133.816 14.8725 133.867 14.8383 133.924 14.8151C133.98 14.7919 134.04 14.78 134.101 14.7802H148.296C148.357 14.78 148.417 14.7919 148.474 14.8151C148.53 14.8383 148.581 14.8725 148.624 14.9156C148.667 14.9587 148.702 15.0098 148.725 15.0662C148.748 15.1226 148.76 15.183 148.76 15.244C148.76 15.305 148.748 15.3654 148.725 15.4218C148.702 15.4782 148.667 15.5293 148.624 15.5724C148.581 15.6155 148.53 15.6497 148.474 15.6729C148.417 15.6961 148.357 15.708 148.296 15.7078Z" fill="#E4E4E4"/>
<path d="M140.254 17.5405H134.101C133.978 17.5405 133.861 17.4916 133.774 17.4046C133.687 17.3176 133.638 17.1997 133.638 17.0766C133.638 16.9536 133.687 16.8356 133.774 16.7487C133.861 16.6617 133.978 16.6128 134.101 16.6128H140.254C140.377 16.6128 140.495 16.6617 140.582 16.7487C140.668 16.8356 140.717 16.9536 140.717 17.0766C140.717 17.1997 140.668 17.3176 140.582 17.4046C140.495 17.4916 140.377 17.5405 140.254 17.5405Z" fill="#E4E4E4"/>
</g>
<defs>
<clipPath id="clip0_263_3919">
<rect width="292" height="218" fill="white"/>
</clipPath>
</defs>
</svg>
