<svg width="298" height="271" viewBox="0 0 298 271" fill="none" xmlns="http://www.w3.org/2000/svg">
<g clip-path="url(#clip0_263_3771)">
<path d="M298 135.5C298.031 154.376 294.103 173.048 286.472 190.308C286.225 190.866 285.976 191.42 285.723 191.971C285.598 192.248 285.47 192.521 285.341 192.799C285.213 193.072 285.085 193.349 284.953 193.623C284.784 193.978 284.616 194.329 284.444 194.681C284.231 195.123 284.015 195.563 283.792 196.002C283.765 196.063 283.735 196.124 283.701 196.184C283.516 196.556 283.33 196.928 283.138 197.299C283.097 197.381 283.057 197.462 283.013 197.539C282.793 197.972 282.567 198.404 282.338 198.834V198.837C282.095 199.293 281.851 199.748 281.605 200.202C280.998 201.324 280.374 202.436 279.732 203.537C279.54 203.865 279.351 204.193 279.155 204.517C278.976 204.821 278.798 205.122 278.615 205.423C278.491 205.632 278.366 205.838 278.237 206.044C278.035 206.379 277.829 206.714 277.62 207.048C277.616 207.051 277.616 207.051 277.616 207.055C277.154 207.798 276.682 208.538 276.206 209.271H276.202C275.983 209.613 275.76 209.951 275.538 210.289V210.292C274.866 211.306 274.181 212.309 273.482 213.303V213.306C273.48 213.306 273.477 213.307 273.476 213.309V213.313L273.469 213.32C272.915 214.114 272.351 214.901 271.775 215.682V215.685C271.407 216.185 271.036 216.685 270.661 217.178C270.354 217.584 270.044 217.988 269.73 218.392C269.666 218.479 269.598 218.564 269.527 218.652V218.655C269.443 218.767 269.358 218.875 269.267 218.986V218.99C267.934 220.696 266.561 222.369 265.147 224.007H265.143C265.069 224.099 264.991 224.187 264.914 224.274C264.84 224.362 264.759 224.45 264.681 224.541H264.678C264.56 224.68 264.438 224.818 264.317 224.957C264.198 225.096 264.074 225.234 263.949 225.373V225.376C256.578 233.702 248.214 241.09 239.043 247.374C237.821 248.215 236.584 249.034 235.331 249.83C235.02 250.03 234.71 250.226 234.396 250.422C234.301 250.486 234.207 250.543 234.112 250.601C233.947 250.705 233.778 250.81 233.61 250.915C233.444 251.016 233.276 251.121 233.107 251.222C232.435 251.635 231.757 252.04 231.079 252.439C230.91 252.54 230.738 252.638 230.566 252.74C230.397 252.838 230.225 252.936 230.053 253.034C230.05 253.037 230.047 253.04 230.044 253.042C230.04 253.045 230.037 253.046 230.032 253.047L230.026 253.05L230.019 253.057H230.016C229.165 253.547 228.311 254.03 227.447 254.497C225.902 255.341 224.34 256.156 222.763 256.94C222.372 257.136 221.977 257.328 221.582 257.521C221.255 257.68 220.924 257.839 220.597 257.994C220.505 258.038 220.418 258.082 220.327 258.122C220.053 258.251 219.78 258.379 219.507 258.504C219.21 258.646 218.909 258.781 218.612 258.916C218.278 259.069 217.947 259.217 217.613 259.366C216.358 259.927 215.089 260.467 213.817 260.988C209.272 262.851 204.626 264.46 199.903 265.806C199.683 265.871 199.46 265.935 199.238 265.996C197.216 266.563 195.18 267.083 193.129 267.553C189.549 268.378 185.936 269.055 182.29 269.584C182.283 269.584 182.273 269.588 182.266 269.588C181.831 269.652 181.392 269.713 180.957 269.773C180.92 269.78 180.879 269.787 180.839 269.79C180.835 269.794 180.832 269.794 180.825 269.79C180.825 269.79 180.825 269.794 180.822 269.79C180.339 269.854 179.857 269.919 179.371 269.979C179.337 269.986 179.303 269.99 179.269 269.993C178.817 270.047 178.362 270.101 177.906 270.152C177.417 270.206 176.927 270.257 176.435 270.307C176.06 270.344 175.685 270.382 175.311 270.415C175.277 270.422 175.244 270.426 175.21 270.426C174.869 270.456 174.528 270.486 174.187 270.513C174.173 270.513 174.157 270.517 174.143 270.517C173.846 270.544 173.549 270.564 173.252 270.588C169.759 270.865 166.233 271.002 162.672 271C158.808 271 154.983 270.839 151.198 270.517C151.185 270.517 151.171 270.513 151.158 270.513C150.351 270.446 149.546 270.371 148.741 270.29C148.529 270.27 148.319 270.246 148.107 270.226C148.066 270.223 148.026 270.219 147.985 270.213C147.921 270.206 147.857 270.199 147.79 270.192C147.756 270.189 147.719 270.186 147.685 270.179C147.405 270.148 147.125 270.118 146.841 270.084C146.527 270.047 146.21 270.01 145.896 269.969C145.583 269.932 145.265 269.892 144.951 269.848C144.884 269.841 144.813 269.834 144.746 269.821C144.516 269.794 144.287 269.763 144.061 269.729C143.949 269.716 143.841 269.699 143.733 269.682C143.514 269.652 143.298 269.621 143.078 269.588C143.072 269.588 143.062 269.584 143.055 269.584C136.163 268.588 129.36 267.052 122.708 264.992H122.705C122.344 264.88 121.983 264.766 121.622 264.651C121.514 264.62 121.406 264.587 121.298 264.549C120.36 264.249 119.427 263.938 118.5 263.617C117.221 263.177 115.951 262.718 114.69 262.238C114.346 262.106 114.005 261.975 113.661 261.843C112.976 261.572 112.294 261.302 111.616 261.025C110.458 260.552 109.308 260.064 108.167 259.562H108.163V259.559C107.097 259.089 106.038 258.604 104.988 258.106C104.957 258.096 104.927 258.083 104.9 258.065C104.896 258.065 104.896 258.062 104.893 258.062C104.66 257.953 104.427 257.842 104.195 257.73L104.188 257.727C98.3992 254.949 92.8176 251.758 87.4861 248.178C85.7751 247.032 84.0934 245.849 82.4409 244.626C81.1078 243.643 79.7939 242.635 78.4991 241.602C72.0496 236.47 66.0808 230.759 60.6669 224.541H60.6636V224.538C60.2822 224.102 59.911 223.67 59.533 223.23V223.227C59.479 223.166 59.4284 223.105 59.3778 223.044C59.1382 222.764 58.9053 222.487 58.6724 222.203V222.2C58.3552 221.825 58.0447 221.448 57.741 221.071C57.6735 220.99 57.6094 220.912 57.5453 220.831H57.5419V220.828C57.2922 220.524 57.0458 220.216 56.8028 219.909C56.678 219.757 56.5565 219.601 56.435 219.446H56.4316V219.442C55.6959 218.513 54.9748 217.575 54.2684 216.628V216.624C54.0727 216.364 53.8803 216.104 53.6913 215.84H53.6879C52.7835 214.617 51.9027 213.379 51.0455 212.127V212.123C50.7215 211.654 50.4009 211.181 50.0837 210.704C49.7665 210.228 49.4526 209.75 49.1421 209.271H49.1388C48.8182 208.778 48.501 208.283 48.1871 207.785C48.1702 207.758 48.1533 207.734 48.1399 207.71C47.8294 207.22 47.5234 206.727 47.2219 206.23C46.9789 205.835 46.7393 205.443 46.5065 205.048C46.3445 204.781 46.1859 204.517 46.0306 204.247C45.9733 204.156 45.9226 204.064 45.872 203.976C45.5143 203.365 45.1633 202.753 44.8123 202.138C44.404 201.415 43.999 200.685 43.6042 199.955C43.4422 199.655 43.2802 199.351 43.1216 199.046C43.0642 198.948 43.0136 198.85 42.963 198.749C42.774 198.391 42.585 198.033 42.3994 197.671C42.2138 197.313 42.0282 196.951 41.8459 196.59C41.6637 196.228 41.4815 195.867 41.3026 195.502C41.1676 195.228 41.0326 194.951 40.901 194.677C40.8873 194.654 40.8749 194.631 40.8639 194.606C40.8031 194.478 40.739 194.353 40.6816 194.225C40.6682 194.205 40.6579 194.183 40.6513 194.16C40.5129 193.876 40.3779 193.596 40.2463 193.312C40.0708 192.947 39.9021 192.579 39.7333 192.211C39.6119 191.954 39.4971 191.694 39.379 191.433C39.2103 191.069 39.0449 190.7 38.8829 190.328C38.7108 189.947 38.5454 189.561 38.3801 189.176C38.3362 189.078 38.2957 188.984 38.2552 188.886C38.1776 188.71 38.1033 188.534 38.0291 188.358C37.83 187.892 37.6342 187.419 37.4419 186.949C37.2225 186.419 37.0088 185.887 36.8007 185.355C36.6015 184.858 36.4081 184.36 36.2202 183.861L36.1493 183.679V183.675C33.217 175.959 30.9984 167.989 29.5213 159.866V159.863C28.6791 155.225 28.0798 150.547 27.726 145.847C27.7057 145.59 27.6888 145.333 27.672 145.076C27.4492 141.897 27.3401 138.704 27.3446 135.5C27.3446 134.077 27.3671 132.662 27.4121 131.253C28.2871 101.794 38.7751 73.4324 57.2719 50.5067C58.0853 49.4964 58.9132 48.4984 59.7558 47.5129C84.5737 18.4327 121.473 0 162.672 0C210.84 0 253.133 25.1976 277.11 63.1477C278.359 65.1143 279.554 67.117 280.694 69.1557C292.076 89.4079 298.037 112.262 298 135.5Z" fill="#F2F2F2"/>
<path d="M228.203 241.856C227.717 243.2 227.232 244.545 226.748 245.89C226.657 246.147 226.563 246.4 226.472 246.657C225.236 250.084 224 253.511 222.763 256.94C222.371 257.136 221.976 257.328 221.582 257.521C221.254 257.68 220.923 257.839 220.596 257.994C220.505 258.038 220.417 258.082 220.326 258.122C220.053 258.251 219.779 258.379 219.506 258.504C219.209 258.646 218.909 258.781 218.612 258.916C218.278 259.068 217.947 259.217 217.613 259.366C217.439 258.913 217.34 258.435 217.319 257.95C217.305 257.189 217.395 256.43 217.586 255.693C217.879 254.476 218.345 253.284 218.652 252.064C218.669 252.006 218.683 251.945 218.696 251.888C219.381 248.976 219.064 245.917 217.798 243.207C217.036 241.592 215.942 240.122 215.466 238.399C215.053 236.781 215.236 235.067 215.983 233.574C216.26 232.994 216.608 232.452 217.019 231.958C217.117 231.833 217.221 231.715 217.329 231.597C218.322 230.505 219.641 229.764 221.089 229.485C223.859 228.992 226.755 230.468 228.304 232.786C228.939 233.718 229.326 234.796 229.428 235.919C229.597 237.949 228.895 239.94 228.203 241.856Z" fill="#E4E4E4"/>
<path d="M220.553 255.581C219.918 254.409 218.855 253.382 218.653 252.064C217.995 247.833 216.409 244.799 213.78 243.079C213.017 242.582 212.895 241.484 212.426 240.693C212.217 240.338 212.005 239.984 211.785 239.636C211.431 239.058 211.062 238.491 210.678 237.936C209.951 236.863 209.149 235.842 208.279 234.881C207.918 234.479 207.536 234.091 207.142 233.722L207.138 233.719C206.892 233.482 206.642 233.256 206.382 233.036C206.281 232.949 206.176 232.861 206.068 232.773L206.062 232.766C205.606 232.37 205.128 232 204.631 231.658C203.487 230.884 202.194 230.347 200.868 230.776C200.347 230.955 199.845 231.186 199.369 231.465C199.126 231.604 198.887 231.749 198.647 231.894C198.485 231.992 198.323 232.09 198.161 232.192C198.03 232.269 197.898 232.347 197.766 232.421C196.747 233.009 195.724 233.586 194.695 234.151C194.547 234.236 194.398 234.317 194.247 234.398H194.243C194.139 234.459 194.031 234.516 193.923 234.574C193.717 234.689 193.508 234.804 193.302 234.915C192.684 235.25 192.065 235.581 191.446 235.909C191.128 236.078 190.808 236.24 190.487 236.402C190.339 236.476 190.19 236.551 190.045 236.628H190.042C189.988 236.655 189.937 236.682 189.883 236.709C189.444 236.936 189.012 237.169 188.594 237.422C187.38 238.154 186.325 239.123 185.492 240.271C185.33 240.494 185.175 240.724 185.033 240.96C184.848 241.266 184.679 241.582 184.527 241.906C184.423 242.126 184.325 242.346 184.237 242.569V242.572C183.407 244.708 183.291 247.055 183.906 249.263V249.266C183.947 249.418 183.991 249.567 184.041 249.715C184.122 249.965 184.213 250.215 184.315 250.459C184.426 250.73 184.553 250.995 184.693 251.253V251.256C185.444 252.539 186.381 253.703 187.473 254.71L187.507 254.743C187.642 254.875 187.781 255.01 187.916 255.142C187.99 255.213 188.067 255.284 188.148 255.352C189.316 256.355 191.203 257.115 192.269 258.146C192.839 258.697 193.173 259.322 193.042 260.103C192.691 262.174 192.768 263.515 193.126 264.377C194.098 266.729 197.149 265.533 199.238 265.996C199.461 265.935 199.683 265.871 199.903 265.806C204.626 264.46 209.272 262.851 213.817 260.988C215.089 260.468 216.358 259.927 217.613 259.366C217.947 259.217 218.278 259.069 218.612 258.917C218.909 258.781 219.21 258.646 219.507 258.504C219.78 258.379 220.053 258.251 220.327 258.122C220.418 258.082 220.506 258.038 220.597 257.994C220.924 257.839 221.255 257.68 221.582 257.521C221.248 256.869 220.9 256.223 220.553 255.581Z" fill="#E4E4E4"/>
<path d="M195.862 222.776C196.571 220.631 195.596 219.215 193.086 218.464C193 218.387 192.896 218.332 192.784 218.304C192.671 218.277 192.554 218.279 192.442 218.309C192.33 218.339 192.228 218.396 192.144 218.476C192.06 218.556 191.998 218.656 191.962 218.766L189.771 225.268C187.479 224.681 185.797 225.083 185.432 227.353C186.337 225.041 185.486 223.59 182.941 222.972C182.858 222.889 182.756 222.829 182.644 222.796C182.531 222.764 182.413 222.761 182.299 222.786C182.185 222.812 182.08 222.867 181.992 222.944C181.905 223.022 181.839 223.12 181.8 223.23L180.359 229.086C178.604 231.734 177.742 234.874 177.899 238.048C178.057 241.221 179.226 244.261 181.235 246.721C183.244 249.181 185.987 250.931 189.062 251.716C192.137 252.501 195.382 252.279 198.322 251.082C201.262 249.886 203.742 247.777 205.397 245.067C207.053 242.356 207.798 239.186 207.523 236.02C207.248 232.854 205.967 229.86 203.869 227.477C201.77 225.093 198.964 223.446 195.862 222.776H195.862Z" fill="#E4E4E4"/>
<path d="M194.466 241.305C194.17 241.464 193.823 241.498 193.501 241.401C193.179 241.304 192.909 241.083 192.75 240.787C192.728 240.745 192.723 240.695 192.737 240.649C192.751 240.603 192.782 240.565 192.824 240.542C192.867 240.519 192.916 240.514 192.962 240.528C193.008 240.542 193.046 240.573 193.069 240.616C193.183 240.827 193.376 240.984 193.605 241.054C193.835 241.123 194.083 241.098 194.294 240.984C194.505 240.871 194.663 240.678 194.733 240.448C194.802 240.218 194.777 239.97 194.664 239.758C194.642 239.716 194.637 239.667 194.651 239.621C194.665 239.575 194.696 239.536 194.739 239.514C194.781 239.491 194.83 239.486 194.876 239.5C194.922 239.513 194.961 239.545 194.983 239.587C195.142 239.884 195.176 240.231 195.079 240.553C194.982 240.875 194.762 241.146 194.466 241.305Z" fill="#E6E6E6"/>
<path d="M193.141 238.639C193.845 238.26 194.299 237.733 194.153 237.462C194.008 237.191 193.319 237.278 192.614 237.656C191.909 238.035 191.456 238.562 191.601 238.833C191.747 239.105 192.436 239.018 193.141 238.639Z" fill="#E6E6E6"/>
<path d="M185.649 239.099C185.745 238.636 185.94 238.2 186.222 237.821C186.504 237.443 186.866 237.13 187.282 236.907C187.698 236.684 188.157 236.554 188.629 236.528C189.1 236.502 189.571 236.58 190.009 236.757C190.229 236.082 190.244 235.358 190.053 234.675C189.862 233.991 189.473 233.38 188.936 232.919C188.398 232.457 187.735 232.165 187.032 232.08C186.328 231.996 185.615 232.122 184.983 232.442C184.352 232.763 183.829 233.265 183.481 233.883C183.134 234.501 182.978 235.209 183.032 235.916C183.086 236.623 183.348 237.299 183.786 237.857C184.224 238.415 184.817 238.83 185.49 239.051C185.543 239.068 185.596 239.084 185.649 239.099Z" fill="#E6E6E6"/>
<path d="M186.72 237.797C187.4 237.797 187.952 237.244 187.952 236.563C187.952 235.881 187.4 235.329 186.72 235.329C186.039 235.329 185.487 235.881 185.487 236.563C185.487 237.244 186.039 237.797 186.72 237.797Z" fill="#3F3D56"/>
<path d="M194.179 234.659C194.274 234.196 194.47 233.76 194.752 233.381C195.034 233.002 195.396 232.69 195.812 232.467C196.227 232.243 196.687 232.114 197.158 232.088C197.629 232.062 198.101 232.14 198.538 232.316C198.759 231.642 198.774 230.917 198.583 230.234C198.392 229.551 198.003 228.94 197.465 228.478C196.927 228.016 196.265 227.725 195.561 227.64C194.858 227.555 194.145 227.681 193.513 228.002C192.881 228.323 192.359 228.824 192.011 229.443C191.664 230.061 191.507 230.768 191.562 231.476C191.616 232.183 191.878 232.858 192.316 233.416C192.753 233.974 193.346 234.39 194.02 234.61C194.072 234.628 194.126 234.644 194.179 234.659Z" fill="#E6E6E6"/>
<path d="M195.702 233.287C196.383 233.287 196.935 232.735 196.935 232.054C196.935 231.372 196.383 230.82 195.702 230.82C195.022 230.82 194.47 231.372 194.47 232.054C194.47 232.735 195.022 233.287 195.702 233.287Z" fill="#3F3D56"/>
<path d="M201.886 231.968L197.678 236.261L198.103 236.679L202.31 232.386L201.886 231.968Z" fill="#E6E6E6"/>
<path d="M203.223 234.045L198.139 237.25L198.456 237.754L203.54 234.55L203.223 234.045Z" fill="#E6E6E6"/>
<path d="M188.652 241.111L182.753 242.248L182.865 242.833L188.764 241.696L188.652 241.111Z" fill="#E6E6E6"/>
<path d="M189.22 242.042L183.743 244.512L183.987 245.055L189.465 242.586L189.22 242.042Z" fill="#E6E6E6"/>
<path d="M15.508 150.398C3.96956 140 -3.01706 123.465 1.27657 108.529C10.9662 122.37 25.233 132.333 41.5528 136.655C47.8527 138.299 55.0307 139.471 58.8634 144.741C61.2484 148.019 61.8022 152.352 61.2377 156.368C60.6731 160.385 59.0951 164.178 57.5315 167.92L57.6143 168.929C42.3768 165.96 27.0464 160.796 15.508 150.398Z" fill="#E6E6E6"/>
<path d="M1.5988 108.576C4.53139 120.962 11.4351 132.491 21.1222 140.765C23.2165 142.554 25.4965 144.186 28.054 145.241C30.5549 146.25 33.28 146.571 35.9463 146.169C38.4399 145.844 40.953 145.223 43.482 145.511C46.1477 145.814 48.3747 147.31 49.9305 149.463C51.8341 152.098 52.6785 155.261 53.397 158.382C54.1947 161.848 54.9685 165.461 57.2538 168.293C57.5307 168.636 56.9826 169.046 56.7062 168.704C52.7302 163.776 53.2741 156.954 50.3945 151.508C49.0508 148.967 46.9342 146.816 44.019 146.282C41.4698 145.816 38.8777 146.454 36.3557 146.805C33.7076 147.173 31.1455 147.084 28.605 146.185C26.0062 145.266 23.6576 143.72 21.5268 141.993C16.7241 138.04 12.572 133.355 9.22265 128.111C5.36688 122.147 2.55847 115.566 0.918942 108.654C0.817638 108.226 1.49816 108.151 1.5988 108.576L1.5988 108.576Z" fill="#E6E6E6"/>
<path d="M17.8322 138.242C16.2017 139.684 14.1123 140.499 11.9372 140.541C9.76207 140.583 7.64284 139.85 5.95796 138.472C5.61799 138.191 6.03659 137.649 6.377 137.93C7.94359 139.216 9.91773 139.899 11.9431 139.856C13.9685 139.812 15.9118 139.046 17.4221 137.694C17.7506 137.4 18.1589 137.95 17.8322 138.242V138.242Z" fill="#E6E6E6"/>
<path d="M34.7037 146.5C35.0184 142.058 33.6494 137.661 30.8699 134.185C30.5942 133.841 31.1422 133.431 31.4175 133.774C34.3032 137.397 35.7185 141.976 35.381 146.598C35.3485 147.038 34.6714 146.938 34.7037 146.5Z" fill="#E6E6E6"/>
<path d="M6.26196 121.997C7.00896 121.57 7.6385 120.965 8.09405 120.235C8.54959 119.505 8.81688 118.672 8.87191 117.813C8.89879 117.373 9.57585 117.473 9.54913 117.911C9.48393 118.86 9.18762 119.778 8.68609 120.586C8.18457 121.394 7.49309 122.066 6.67208 122.545C6.59846 122.597 6.50799 122.618 6.41904 122.605C6.33009 122.593 6.24934 122.546 6.1932 122.476C6.13926 122.403 6.11623 122.312 6.1291 122.222C6.14198 122.133 6.18972 122.051 6.26196 121.997Z" fill="#E6E6E6"/>
<path d="M49.4634 87.5151C49.4545 87.7908 49.4455 88.0664 49.4411 88.3456C49.3397 92.0519 49.5391 95.7604 50.0374 99.4344C50.0715 99.7191 50.1102 100.007 50.1523 100.29C51.4472 109.129 54.3697 117.65 58.7713 125.421C60.5257 128.511 62.5123 131.463 64.7139 134.252C67.7548 138.103 71.3578 142.036 72.905 146.536C73.0716 147.004 73.2092 147.481 73.3169 147.966L58.8374 168.75C58.7808 168.78 58.7288 168.815 58.672 168.845L58.1318 169.702C58.0082 169.566 57.8829 169.422 57.7594 169.286C57.6874 169.208 57.6186 169.125 57.5465 169.046C57.4996 168.992 57.4527 168.938 57.4072 168.893C57.3915 168.875 57.376 168.857 57.365 168.842C57.3195 168.796 57.2821 168.749 57.2414 168.706C56.539 167.905 55.8411 167.098 55.1475 166.285C55.1427 166.282 55.1427 166.282 55.1412 166.274C49.8723 160.063 45.0749 153.357 41.4467 146.135C41.3376 145.918 41.2236 145.697 41.1211 145.47C39.5037 142.206 38.1554 138.815 37.0898 135.33C36.5124 133.421 36.032 131.483 35.6503 129.524C34.6738 124.462 34.4986 119.278 35.1312 114.161C36.3937 103.961 40.9001 94.2792 48.8513 87.9897C49.0548 87.8289 49.2552 87.6726 49.4634 87.5151Z" fill="#E6E6E6"/>
<path d="M49.6948 87.7459C44.5882 99.4038 43.1682 112.771 45.9277 125.217C46.5244 127.907 47.3634 130.585 48.771 132.969C50.1609 135.283 52.1441 137.181 54.5146 138.468C56.7009 139.712 59.081 140.731 60.9271 142.485C62.8731 144.334 63.7519 146.871 63.6992 149.528C63.6348 152.78 62.4073 155.814 61.1041 158.739C59.657 161.987 58.1026 165.338 58.2241 168.978C58.2388 169.419 57.5546 169.416 57.5399 168.975C57.3286 162.644 61.8648 157.525 62.8401 151.441C63.2952 148.602 62.8986 145.609 60.8919 143.425C59.1371 141.516 56.6836 140.463 54.4591 139.222C52.1234 137.92 50.1313 136.304 48.643 134.055C47.1207 131.755 46.1752 129.104 45.5125 126.441C44.0548 120.389 43.5564 114.146 44.0356 107.939C44.5432 100.853 46.2578 93.9058 49.1052 87.3982C49.2816 86.9955 49.8701 87.3459 49.6948 87.7459L49.6948 87.7459Z" fill="#E6E6E6"/>
<path d="M44.8177 121.218C42.6487 121.387 40.4905 120.778 38.7285 119.5C36.9665 118.223 35.7154 116.359 35.1988 114.243C35.0957 113.815 35.7559 113.634 35.8591 114.064C36.3366 116.035 37.5021 117.77 39.1453 118.957C40.7885 120.143 42.8011 120.702 44.82 120.533C45.2587 120.497 45.254 121.182 44.8177 121.218Z" fill="#E6E6E6"/>
<path d="M53.3227 137.983C56.2448 134.626 57.7959 130.29 57.6667 125.839C57.6535 125.398 58.3377 125.401 58.3509 125.841C58.4766 130.473 56.8533 134.983 53.8049 138.469C53.5141 138.801 53.0335 138.313 53.3227 137.983L53.3227 137.983Z" fill="#E6E6E6"/>
<path d="M45.3477 101.273C46.2005 101.383 47.0673 101.279 47.87 100.97C48.6728 100.662 49.3865 100.159 49.9471 99.5058C50.2335 99.1702 50.7139 99.6583 50.4293 99.9918C49.8066 100.71 49.0177 101.265 48.1315 101.608C47.2453 101.95 46.2888 102.071 45.3455 101.958C45.2557 101.954 45.1704 101.917 45.1071 101.853C45.0438 101.79 45.0071 101.704 45.0045 101.614C45.0053 101.523 45.0417 101.437 45.106 101.373C45.1703 101.309 45.2571 101.273 45.3477 101.273V101.273Z" fill="#E6E6E6"/>
<path d="M181.738 88.9013C183.749 77.7623 180.406 65.1227 171.281 58.4407C171.868 70.7364 168.092 82.8436 160.621 92.6202C157.727 96.3802 154.116 100.26 154.257 105.006C154.344 107.958 155.955 110.7 158.069 112.76C160.183 114.821 162.782 116.3 165.349 117.756L165.75 118.374C173.201 109.86 179.726 100.04 181.738 88.9013Z" fill="#E6E6E6"/>
<path d="M171.117 58.6118C174.984 67.1437 176.068 76.6787 174.215 85.8626C173.851 87.8468 173.177 89.7612 172.218 91.5352C171.228 93.2331 169.801 94.6345 168.087 95.5938C166.507 96.5205 164.783 97.2851 163.456 98.5802C162.786 99.2533 162.266 100.061 161.929 100.949C161.593 101.837 161.448 102.787 161.504 103.736C161.581 106.103 162.504 108.301 163.481 110.418C164.565 112.77 165.729 115.195 165.675 117.847C165.668 118.168 166.167 118.159 166.173 117.839C166.267 113.226 162.915 109.541 162.147 105.12C161.789 103.057 162.05 100.873 163.49 99.2643C164.75 97.8572 166.527 97.0672 168.135 96.1428C169.821 95.2315 171.258 93.9207 172.321 92.325C173.368 90.6056 174.114 88.7204 174.529 86.7502C175.533 82.3296 175.837 77.7784 175.429 73.2633C174.992 68.1077 173.678 63.0649 171.543 58.353C171.411 58.0614 170.985 58.3221 171.117 58.6118L171.117 58.6118Z" fill="#E6E6E6"/>
<path d="M174.985 82.9406C176.566 83.0427 178.132 82.5788 179.403 81.6317C180.674 80.6845 181.567 79.3158 181.923 77.77C181.994 77.457 181.512 77.3318 181.441 77.6453C181.112 79.0853 180.279 80.3602 179.094 81.2397C177.908 82.1193 176.448 82.5456 174.976 82.4418C174.657 82.4196 174.667 82.9185 174.985 82.9406Z" fill="#E6E6E6"/>
<path d="M168.95 95.2297C166.79 92.8129 165.62 89.67 165.672 86.4274C165.677 86.1062 165.179 86.1147 165.173 86.4356C165.126 89.8099 166.351 93.0782 168.603 95.5882C168.818 95.8272 169.164 95.4675 168.95 95.2297Z" fill="#E6E6E6"/>
<path d="M174.41 68.4208C173.79 68.5089 173.158 68.4415 172.57 68.2245C171.983 68.0076 171.458 67.6479 171.044 67.1778C170.832 66.9362 170.487 67.2962 170.697 67.5363C171.158 68.0536 171.737 68.4501 172.386 68.6912C173.035 68.9323 173.732 69.0108 174.418 68.9196C174.483 68.9165 174.545 68.8885 174.591 68.8414C174.636 68.7943 174.662 68.7317 174.663 68.6662C174.662 68.6001 174.634 68.5373 174.587 68.4914C174.54 68.4454 174.476 68.4201 174.41 68.4208L174.41 68.4208Z" fill="#E6E6E6"/>
<path d="M134.177 67.8616C134.305 68.0163 134.433 68.171 134.56 68.3297C136.27 70.4183 137.807 72.6424 139.156 74.9802C139.264 75.1593 139.37 75.3424 139.471 75.5242C142.663 81.1912 144.776 87.4022 145.703 93.8416C146.07 96.4043 146.241 98.9912 146.216 101.58C146.18 105.155 145.858 109.029 146.972 112.31C147.084 112.654 147.217 112.99 147.371 113.317L164.966 118.817C165.012 118.809 165.057 118.806 165.103 118.798L165.796 119.05C165.807 118.916 165.815 118.778 165.825 118.644C165.832 118.567 165.834 118.489 165.841 118.411C165.844 118.359 165.847 118.307 165.853 118.26C165.854 118.243 165.855 118.226 165.854 118.212C165.86 118.166 165.861 118.122 165.865 118.079C165.913 117.304 165.955 116.528 165.992 115.75C165.993 115.746 165.993 115.746 165.991 115.741C166.258 109.812 166.032 103.809 164.904 98.0306C164.87 97.8568 164.838 97.679 164.796 97.5026C164.273 94.9009 163.539 92.3464 162.6 89.8645C162.082 88.5071 161.495 87.1769 160.843 85.8789C159.15 82.5284 156.941 79.4653 154.298 76.802C149.028 71.4935 142.121 67.9317 134.741 67.8614C134.553 67.8597 134.368 67.8592 134.177 67.8616Z" fill="#E6E6E6"/>
<path d="M134.148 68.0975C142.366 72.5785 148.965 79.5382 153.008 87.9882C153.911 89.7918 154.524 91.7266 154.824 93.7213C155.055 95.6739 154.759 97.6527 153.967 99.452C153.262 101.144 152.346 102.794 152.064 104.629C151.934 105.57 152.004 106.528 152.27 107.44C152.536 108.352 152.991 109.198 153.606 109.921C155.091 111.765 157.149 112.963 159.203 114.066C161.483 115.289 163.87 116.524 165.421 118.674C165.609 118.934 166.002 118.627 165.814 118.367C163.116 114.627 158.224 113.706 154.952 110.639C153.426 109.208 152.321 107.307 152.503 105.154C152.663 103.271 153.607 101.569 154.335 99.8616C155.133 98.1177 155.492 96.2046 155.382 94.2895C155.183 92.2859 154.646 90.3307 153.792 88.5076C151.936 84.3726 149.442 80.5556 146.402 77.1963C142.953 73.3431 138.871 70.1091 134.333 67.634C134.052 67.481 133.869 67.9455 134.148 68.0975L134.148 68.0975Z" fill="#E6E6E6"/>
<path d="M151.866 85.1906C153.19 84.319 154.161 83.0046 154.607 81.4822C155.052 79.9597 154.942 78.3283 154.297 76.8794C154.166 76.5867 153.705 76.7776 153.837 77.0707C154.44 78.4188 154.542 79.9385 154.125 81.3554C153.707 82.7722 152.797 83.9929 151.56 84.7972C151.291 84.9723 151.599 85.3647 151.866 85.1906Z" fill="#E6E6E6"/>
<path d="M154.436 98.6409C151.259 98.0132 148.434 96.2094 146.526 93.5891C146.337 93.3294 145.944 93.6365 146.133 93.8959C148.124 96.6189 151.067 98.4901 154.375 99.136C154.69 99.1974 154.75 98.7019 154.436 98.6409Z" fill="#E6E6E6"/>
<path d="M142.676 73.944C142.234 74.3881 141.688 74.7153 141.089 74.8962C140.489 75.0772 139.854 75.1062 139.241 74.9807C138.926 74.9154 138.867 75.4109 139.18 75.4758C139.858 75.6114 140.559 75.5784 141.222 75.38C141.885 75.1815 142.489 74.8236 142.982 74.3374C143.033 74.2954 143.065 74.2359 143.073 74.1709C143.081 74.1058 143.064 74.0402 143.025 73.9872C142.985 73.9354 142.925 73.9017 142.86 73.8936C142.794 73.8855 142.728 73.9036 142.676 73.944L142.676 73.944Z" fill="#E6E6E6"/>
<path d="M44.3016 127.734C46.7374 127.734 49.0735 128.703 50.7959 130.428C52.5183 132.152 53.4859 134.491 53.4859 136.93V136.93C53.4856 139.063 52.7447 141.13 51.3901 142.777C50.0355 144.423 48.1514 145.547 46.0603 145.956V160.996H40.198V127.734H44.3016Z" fill="#3F3D56"/>
<path d="M269.268 215.839V218.988C267.935 220.695 266.561 222.367 265.147 224.006C264.996 224.185 264.84 224.361 264.682 224.54C264.442 224.821 264.196 225.098 263.949 225.375V215.839H269.268Z" fill="#CACACA"/>
<path d="M253.663 209.27C252.487 209.272 251.36 209.74 250.529 210.572C249.697 211.405 249.23 212.533 249.228 213.71V220.1C249.23 221.277 249.697 222.406 250.529 223.238C251.36 224.071 252.487 224.539 253.663 224.54H264.681C264.84 224.361 264.995 224.185 265.147 224.006C266.561 222.367 267.935 220.695 269.268 218.988C269.355 218.877 269.443 218.765 269.527 218.654C270.29 217.677 271.039 216.684 271.775 215.684C272.349 214.9 272.919 214.109 273.476 213.312C273.479 213.308 273.483 213.308 273.483 213.305C274.414 211.98 275.322 210.635 276.206 209.27H253.663Z" fill="#3F3D56"/>
<path d="M282.035 154.577C281.358 154.343 280.646 154.224 279.929 154.225H278.117C277.457 154.226 276.801 154.325 276.17 154.519C274.839 154.938 273.676 155.771 272.851 156.896C272.025 158.021 271.578 159.381 271.577 160.777V214.082C271.577 214.281 271.587 214.477 271.604 214.67C271.633 215.012 271.691 215.351 271.776 215.684C272.349 214.9 272.92 214.109 273.477 213.312C273.48 213.308 273.483 213.308 273.483 213.305C274.415 211.98 275.323 210.635 276.207 209.27C276.683 208.537 277.155 207.797 277.617 207.054C280.958 201.687 283.918 196.091 286.473 190.307V160.777C286.471 159.41 286.043 158.076 285.247 156.965C284.451 155.853 283.328 155.018 282.035 154.577Z" fill="#3F3D56"/>
<path d="M58.6731 215.839V222.202C57.1545 220.384 55.6865 218.525 54.2691 216.626C54.0733 216.366 53.881 216.103 53.6886 215.839H58.6731Z" fill="#CACACA"/>
<path d="M68.9593 209.27H49.1394C49.7637 210.233 50.3993 211.185 51.0461 212.126C51.9033 213.379 52.7841 214.617 53.6886 215.839C53.8809 216.103 54.0733 216.366 54.269 216.626C55.6898 218.525 57.1578 220.384 58.6731 222.202C58.9566 222.547 59.2434 222.888 59.5336 223.229C59.9049 223.668 60.2817 224.105 60.6642 224.54H68.9593C70.1346 224.539 71.2613 224.07 72.0921 223.238C72.9228 222.405 73.3898 221.277 73.3904 220.1V213.71C73.3898 212.534 72.9228 211.405 72.0921 210.573C71.2613 209.74 70.1346 209.272 68.9593 209.27Z" fill="#3F3D56"/>
<path d="M47.5267 154.965C46.5923 154.48 45.5554 154.227 44.5029 154.225H42.694C41.8381 154.224 40.9904 154.393 40.2001 154.722C39.0027 155.217 37.9789 156.057 37.2581 157.135C36.5373 158.213 36.1518 159.48 36.1504 160.777V183.677C39.5579 192.647 43.9124 201.227 49.1398 209.27C49.7642 210.233 50.3997 211.185 51.0466 212.125V160.777C51.0457 159.579 50.7172 158.404 50.0967 157.38C49.4762 156.355 48.5874 155.52 47.5267 154.965Z" fill="#3F3D56"/>
<path d="M121.253 253.932L127.198 252.566L124.766 228.956L115.992 230.972L121.253 253.932Z" fill="#9E616A"/>
<path d="M126.662 233.447C126.54 233.031 126.457 232.605 126.415 232.173C126.366 231.664 126.266 231.16 126.118 230.67C125.949 230.224 125.74 229.794 125.494 229.386C125.376 229.169 125.251 228.953 125.14 228.734C125.027 228.514 124.93 228.287 124.849 228.054C121.37 217.765 116.514 203.783 113.146 195.599C111.165 190.783 98.9818 189.182 87.4874 188.773C86.0869 188.722 84.6965 188.688 83.3364 188.671C82.8674 188.665 82.4016 188.658 81.9393 188.655C80.7581 188.648 79.6073 188.648 78.5004 188.661C78.3553 188.661 78.2102 188.661 78.0651 188.665C77.2585 188.671 76.4767 188.683 75.7196 188.698C70.5158 188.8 66.6922 189.036 66.0105 189.08L59.9393 185.259L58.7547 184.512L58.6299 185.259L57.6748 190.956L56.0448 200.677L60.1316 201.826L62.7842 202.569L78.5004 206.983L81.8414 207.922L81.8617 207.929L87.4874 207.919L102.87 207.892L103.612 209.861C103.345 210.276 103.17 210.743 103.097 211.23C103.025 211.718 103.057 212.216 103.191 212.69C103.326 213.164 103.559 213.605 103.877 213.982C104.194 214.358 104.588 214.663 105.033 214.876L105.61 215.15L112.639 233.775C112.661 235.46 113.186 237.099 114.148 238.482C114.266 238.654 114.394 238.823 114.529 238.989L114.685 239.175L117.388 244.47L118.997 244.098L125.848 242.527L125.882 242.459C125.885 242.449 125.973 242.263 126.101 241.939V241.929C126.638 240.587 127.826 236.921 126.662 233.447Z" fill="#2F2E41"/>
<path d="M143.363 255.502C143.107 254.367 142.629 253.294 141.957 252.345C141.285 251.395 140.432 250.588 139.448 249.97C138.463 249.352 137.366 248.935 136.22 248.743C135.074 248.552 133.901 248.589 132.769 248.852L128.021 246.707L126.691 247.643L121.177 251.515L120.721 251.62L119.243 251.958L121.285 260.868L143.43 255.783L143.363 255.502Z" fill="#2F2E41"/>
<path d="M113.989 241.763L111.981 258.064L111.913 258.598L111.616 261.027C110.459 260.554 109.304 260.064 108.164 259.561C107.097 259.091 106.039 258.607 104.988 258.108V241.767L113.989 241.763Z" fill="#9E616A"/>
<path d="M70.416 129.703C77.1394 129.703 82.5898 124.246 82.5898 117.514C82.5898 110.782 77.1394 105.324 70.416 105.324C63.6926 105.324 58.2422 110.782 58.2422 117.514C58.2422 124.246 63.6926 129.703 70.416 129.703Z" fill="#9E616A"/>
<path d="M115.281 247.984C114.944 247.521 114.593 247.038 114.573 246.575C114.495 244.943 114.414 243.328 114.33 241.746C114.269 240.641 114.208 239.55 114.147 238.482C114.141 238.347 114.13 238.212 114.124 238.08C114.019 236.313 114.542 234.448 115.045 232.64C115.21 232.048 115.376 231.45 115.524 230.852C115.896 229.519 116.052 228.136 115.987 226.753C115.123 215.809 111.262 205.516 109.531 203.783C106.898 201.147 94.9956 195.058 87.4868 191.354C86.1538 190.696 84.9591 190.114 83.9804 189.641C83.1131 189.219 82.4145 188.884 81.9387 188.655C81.5742 188.482 81.338 188.371 81.257 188.33L81.2165 188.31L78.4998 188.614L78.0645 188.665L75.6684 188.935L60.0804 190.685L57.6742 190.956L54.2691 191.341L51.1947 191.686L51.0799 191.696L51.0597 191.811C51.0597 191.814 51.0529 191.838 51.0462 191.882C50.5175 195.222 50.5175 198.625 51.0462 201.965C51.4444 204.232 52.197 206.537 53.5334 208.476C53.7156 208.74 53.9046 208.993 54.1071 209.236C54.1139 209.249 54.1231 209.261 54.1341 209.27C54.1779 209.324 54.2218 209.378 54.2691 209.432V209.436C55.7977 211.216 57.8496 212.466 60.131 213.007C60.4685 213.099 60.8127 213.173 61.1671 213.234C64.9434 213.903 69.2091 214.518 73.3904 215.059C75.1217 215.282 76.8394 215.491 78.4998 215.687C81.8239 216.079 84.9287 216.41 87.4868 216.674C91.0708 217.039 93.5883 217.265 94.1486 217.312L100.409 246.555C99.9175 247.387 99.7215 248.36 99.8526 249.318C99.9837 250.275 100.434 251.161 101.131 251.829L101.644 252.326L102.238 255.11L104.195 257.733L104.442 258.064H113.078L113.125 258.006C113.155 257.966 116.192 254.06 115.987 249.407C115.966 248.927 115.632 248.471 115.281 247.984Z" fill="#2F2E41"/>
<path d="M115.046 149.98C114.392 149.801 113.707 149.767 113.039 149.882C112.37 149.997 111.735 150.257 111.178 150.644C110.622 151.031 110.156 151.536 109.815 152.123C109.474 152.709 109.266 153.364 109.204 154.04L99.0894 157.205L99.5113 163.829L113.733 159.158C114.874 159.186 115.986 158.793 116.857 158.055C117.729 157.317 118.299 156.284 118.461 155.153C118.623 154.021 118.365 152.87 117.735 151.916C117.106 150.963 116.149 150.274 115.046 149.98Z" fill="#9E616A"/>
<path d="M108.446 160.941L100.886 163.806L100.693 164.181C100.463 164.627 100.148 165.023 99.7657 165.347C99.3833 165.671 98.941 165.916 98.4639 166.069C97.9868 166.222 97.4844 166.279 96.9853 166.237C96.4861 166.195 96.0001 166.056 95.5549 165.826L78.5629 172.265C78.5629 172.265 70.9746 164.662 65.572 157.876L67.4133 146.537C67.8398 143.906 68.7462 141.376 70.0873 139.073C81.167 141.506 87.5271 157.014 87.5271 157.014L107.496 153.199L108.446 160.941Z" fill="#263560"/>
<path d="M68.686 129.051C65.6383 129.875 62.2783 128.78 59.8998 126.701C57.5214 124.623 56.0336 121.678 55.1763 118.635C54.5485 116.407 54.2508 113.934 55.2416 111.843C56.2323 109.751 58.8988 108.34 60.956 109.396C59.687 107.916 60.321 105.467 61.8032 104.201C63.2853 102.934 65.3206 102.571 67.259 102.373C70.0722 102.085 72.978 102.052 75.655 102.965C78.3319 103.877 80.7642 105.873 81.602 108.577C82.4577 108.976 83.4213 109.079 84.342 108.871C85.2628 108.663 86.0885 108.155 86.69 107.427C86.8451 108.263 86.7205 109.127 86.3356 109.886C85.9507 110.644 85.3268 111.255 84.5606 111.622L88.6622 110.291C89.3676 111.786 88.1316 113.636 86.551 114.115C84.9704 114.594 83.2642 114.07 81.7643 113.379C80.2644 112.687 78.8109 111.813 77.1816 111.543C75.5524 111.273 73.6387 111.797 72.8851 113.269C72.4904 114.039 72.4698 114.942 72.2407 115.777C72.0115 116.612 71.431 117.478 70.5688 117.546C70.024 117.589 69.4907 117.299 68.9475 117.358C68.6141 117.424 68.3071 117.585 68.0641 117.823C67.8211 118.061 67.6526 118.364 67.5792 118.697C67.444 119.363 67.4423 120.05 67.5743 120.717L68.6162 128.691L68.686 129.051Z" fill="#2F2E41"/>
<path d="M83.9807 189.641L83.3361 188.672L78.6317 181.606L78.5372 181.467L79.9918 173.912L80.444 171.553L81.4328 166.42L81.1459 154.671L80.9401 146.359L80.9097 145.055L79.8669 141.872C79.3725 140.383 78.5783 139.012 77.5334 137.843C76.4886 136.674 75.2153 135.733 73.7923 135.076L66.7728 131.859C65.9467 131.483 65.0051 131.45 64.155 131.769C63.305 132.088 62.6162 132.731 62.2401 133.558C62.2087 133.628 62.1796 133.698 62.1528 133.769C61.191 133.9 57.0164 134.603 53.4763 137.354C50.9962 139.243 49.2649 141.951 48.5896 144.997C48.5829 145.021 48.5795 145.045 48.5728 145.068C48.1037 147.167 47.7527 150.478 47.5266 154.965C47.3747 157.932 47.2791 161.408 47.2397 165.393C47.1768 172.036 47.5499 178.675 48.3568 185.269C48.4344 185.897 48.5154 186.522 48.5998 187.151C48.6706 187.678 49.1768 188.182 49.6662 188.665C50.115 189.107 50.5774 189.567 50.6415 189.983C50.6989 190.348 50.466 190.729 50.1893 191.128C50.1555 191.179 50.1184 191.229 50.0846 191.28C49.7404 191.77 49.3861 192.28 49.4772 192.818C49.6898 194.027 49.8147 195.257 49.9328 196.447C50.0647 198.084 50.3014 199.712 50.6415 201.319C50.7596 201.813 50.8946 202.309 51.0465 202.806C51.4008 203.972 51.8294 205.134 52.2479 206.27C52.609 207.256 52.9836 208.27 53.3008 209.27C53.3615 209.456 53.4189 209.639 53.4729 209.821L53.4999 209.916L53.5978 209.933H53.6045C53.7375 209.695 53.8959 209.473 54.077 209.27C54.0852 209.257 54.0954 209.246 54.1074 209.236C54.1546 209.179 54.2086 209.118 54.2694 209.054C55.0084 208.246 56.6148 206.797 60.1313 204.354C60.9176 203.81 61.7984 203.218 62.7839 202.57C66.3982 200.201 71.4469 197.116 78.5001 193.132C80.2685 192.132 82.1662 191.074 84.1933 189.959L83.9807 189.641Z" fill="#263560"/>
<path d="M121.835 263.974C121.015 263.15 120.041 262.496 118.967 262.051C117.894 261.607 116.743 261.379 115.582 261.382L111.913 258.598L111.431 258.229L108.164 259.561C109.305 260.064 110.459 260.554 111.616 261.027C115.237 262.507 118.935 263.83 122.709 264.994C122.444 264.632 122.152 264.291 121.835 263.974Z" fill="#2F2E41"/>
<path d="M203.312 253.702L198.718 251.502L205.029 232.273L211.81 235.521L203.312 253.702Z" fill="#FFB6B6"/>
<path d="M234.113 250.603C232.776 251.437 231.423 252.248 230.053 253.036V253.046L230.033 253.049L230.026 253.053L229.506 253.181L228.76 251.208L227.039 246.656L222.348 234.255L229.641 232.454L230.053 234.126L233.137 246.653L234.022 250.234L234.113 250.603Z" fill="#FFB6B6"/>
<path d="M215.514 170.127C216.169 171.192 217.214 171.959 218.427 172.264C219.639 172.568 220.922 172.386 222.002 171.757C222.219 171.625 222.425 171.476 222.618 171.31L237.143 179.656L236.512 171.088L222.815 164.476C222.07 163.727 221.098 163.246 220.05 163.109C219.002 162.973 217.939 163.188 217.027 163.721C215.983 164.349 215.231 165.366 214.936 166.55C214.641 167.733 214.827 168.985 215.454 170.03C215.474 170.063 215.493 170.095 215.514 170.127Z" fill="#FFB6B6"/>
<path d="M230.898 176.513L233.465 178.08L244.997 185.121C245.753 185.595 246.596 185.915 247.477 186.063C248.357 186.211 249.258 186.184 250.128 185.984C250.999 185.783 251.821 185.413 252.548 184.894C253.275 184.375 253.893 183.718 254.367 182.96L254.371 182.954C255.224 181.546 255.526 179.87 255.219 178.252L250.093 152.614C249.904 151.608 249.5 150.654 248.909 149.818C248.317 148.983 247.553 148.285 246.667 147.772C245.782 147.259 244.796 146.944 243.778 146.848C242.759 146.752 241.732 146.878 240.767 147.216C239.144 147.787 237.799 148.955 237.006 150.484C236.213 152.012 236.032 153.786 236.499 155.444L241.858 173.639L233.643 169.804L230.898 176.513Z" fill="#263560"/>
<path d="M278.181 201.792C278.177 201.782 278.17 201.745 278.16 201.688L278.15 201.651C278.127 201.529 278.1 201.394 278.069 201.245C277.381 197.821 276.496 194.44 275.42 191.118C274.782 189.084 273.938 187.12 272.899 185.259C272.865 185.198 272.828 185.137 272.791 185.076L272.666 184.874L271.617 185.259L271.576 185.272L255.62 191.128L251.007 192.821L250.862 192.875L250.076 196.085L239.044 194.656L230.053 193.49L227.471 193.156C226.352 193.01 225.215 193.088 224.127 193.386C223.038 193.684 222.019 194.196 221.13 194.892C220.203 195.613 219.427 196.511 218.85 197.534C218.272 198.557 217.903 199.686 217.766 200.853C217.732 201.11 217.712 201.37 217.702 201.627L216.922 230.744V230.781L217.283 231.504L224.826 246.656H230.053L233.138 246.653H235.645L230.431 233.444L230.549 233.265C231.04 232.512 231.349 231.655 231.453 230.762C231.556 229.869 231.452 228.964 231.147 228.119L231.734 226.416C232.952 222.898 232.375 221.208 231.646 219.073C230.991 217.336 230.607 215.51 230.505 213.656L230.384 211.247C233.445 211.784 236.296 212.382 239.044 212.984C239.961 213.183 240.87 213.385 241.77 213.589C244.332 214.16 246.805 214.711 249.229 215.17C254.135 216.106 258.836 216.677 263.666 216.322C263.76 216.316 263.855 216.309 263.949 216.299C265.124 216.204 266.305 216.052 267.499 215.839C268.171 215.718 268.846 215.579 269.528 215.417C269.717 215.369 269.909 215.322 270.098 215.275C270.623 215.136 271.128 214.933 271.603 214.67C272.279 214.292 272.907 213.837 273.476 213.312C273.48 213.308 273.483 213.308 273.483 213.305C274.414 211.98 275.322 210.635 276.206 209.27C276.682 208.537 277.155 207.797 277.617 207.054C278.292 205.199 278.548 203.327 278.181 201.792Z" fill="#2F2E41"/>
<path d="M278.292 196.322C278.241 196.105 278.177 195.886 278.11 195.673C277.574 194.061 276.95 192.479 276.24 190.936C275.443 189.178 274.488 187.296 273.351 185.259C272.801 184.272 272.209 183.246 271.576 182.18C271.259 181.647 270.929 181.102 270.587 180.548C270.574 180.523 270.559 180.498 270.543 180.474L270.445 180.312L254.658 182.427L248.78 183.214L248.429 186.147L248.344 186.874C248.341 186.874 248.341 186.874 248.344 186.877L248.108 188.857V188.861L247.794 191.476L247.767 191.473L239.043 190.341L230.053 189.175L225.224 188.55C224.105 188.404 222.968 188.482 221.879 188.78C220.79 189.079 219.772 189.591 218.883 190.287C217.955 191.007 217.179 191.905 216.602 192.928C216.024 193.952 215.656 195.08 215.518 196.247C215.488 196.484 215.467 196.727 215.457 196.967L210.901 207.777C208.175 214.241 206.439 221.081 205.751 228.065L202.41 238.759L202.886 238.803L209.966 239.462L211.836 239.638L215.953 233.62C216.422 232.934 216.868 232.228 217.283 231.504C217.966 230.323 218.574 229.1 219.102 227.842L228.008 206.621C228.696 206.739 229.378 206.852 230.053 206.959C233.175 207.466 236.171 207.879 239.043 208.199C248.381 209.243 256.467 209.324 263.666 208.439C265.687 208.192 267.641 207.868 269.528 207.466C270.219 207.321 270.902 207.164 271.576 206.996C271.735 206.959 271.89 206.922 272.045 206.881C273.44 206.521 274.722 205.816 275.774 204.832C276.827 203.847 277.616 202.614 278.069 201.245C278.61 199.659 278.687 197.951 278.292 196.322Z" fill="#2F2E41"/>
<path d="M244.722 132.502C250.753 132.502 255.642 127.497 255.642 121.324C255.642 115.151 250.753 110.146 244.722 110.146C238.691 110.146 233.802 115.151 233.802 121.324C233.802 127.497 238.691 132.502 244.722 132.502Z" fill="#FFB6B6"/>
<path d="M270.652 180.923C270.635 180.798 270.614 180.673 270.587 180.548C270.328 179.176 269.653 177.831 269.001 176.527C268.38 175.284 267.79 174.108 267.547 172.939C267.307 171.786 267.449 170.631 267.587 169.516C267.736 168.306 267.891 167.056 267.543 165.843C265.78 159.647 263.359 153.659 260.321 147.981C259.555 145.484 258.085 143.262 256.089 141.58C254.093 139.898 251.655 138.828 249.067 138.499C249.369 137.934 249.495 137.292 249.428 136.654C249.385 136.243 249.262 135.843 249.064 135.48C248.867 135.116 248.599 134.795 248.277 134.536C247.967 134.286 247.611 134.1 247.23 133.989C246.848 133.877 246.448 133.843 246.053 133.887L240.977 134.458C240.164 134.56 239.423 134.98 238.917 135.626C238.411 136.272 238.18 137.092 238.274 137.908C238.303 138.159 238.359 138.406 238.443 138.645C233.732 144.653 231.312 150.127 231.089 155.303V155.307C231.062 155.905 231.066 156.503 231.099 157.101C231.206 159.034 231.626 160.936 232.341 162.734C233.186 164.811 234.318 166.759 235.703 168.522C235.986 168.88 236.28 169.232 236.583 169.576C236.867 169.914 237.184 170.269 237.535 170.641L238.423 172.033L239.249 173.334L243.67 183.549L245.921 183.474L246.235 185.722L246.309 186.245L247.767 191.473L247.875 191.865L249.87 190.915L261.769 185.259L270.665 181.028L270.652 180.923Z" fill="#263560"/>
<path opacity="0.2" d="M232.475 162.68C233.49 165.168 234.916 167.467 236.694 169.481C236.999 169.845 237.32 170.203 237.657 170.561L239.384 173.275C245.752 168.496 250.911 149.678 250.911 149.678L243.727 148.279L232.475 162.68Z" fill="black"/>
<path d="M228.125 133.546C228.755 134.628 228.937 135.913 228.634 137.128C228.332 138.343 227.567 139.392 226.504 140.051C226.286 140.181 226.058 140.294 225.821 140.386L226.329 157.148L219.08 152.578L219.709 137.362C219.4 136.35 219.435 135.263 219.808 134.273C220.181 133.282 220.871 132.443 221.771 131.887C222.81 131.257 224.057 131.067 225.237 131.357C226.417 131.648 227.433 132.396 228.062 133.437C228.084 133.473 228.105 133.509 228.125 133.546Z" fill="#FFB6B6"/>
<path d="M226.966 150.821L218.995 151.956L219.337 168.486C219.357 169.665 219.678 170.819 220.269 171.84C220.86 172.86 221.702 173.712 222.714 174.314C223.951 175.043 225.391 175.349 226.817 175.187C228.243 175.025 229.578 174.403 230.62 173.415L249.441 155.289C250.765 154.031 251.558 152.313 251.655 150.488C251.753 148.663 251.149 146.87 249.967 145.478C248.808 144.105 247.153 143.249 245.364 143.098C243.576 142.948 241.8 143.515 240.429 144.674C240.376 144.72 240.323 144.766 240.271 144.813C240.085 144.98 239.908 145.156 239.741 145.342L227.313 159.656L226.966 150.821Z" fill="#263560"/>
<path d="M234.316 250.18L234.022 250.234L230.054 250.968L228.761 251.208L226.726 251.583L227.448 254.499C228.316 254.029 229.173 253.546 230.027 253.053L230.033 253.049L230.054 253.046V253.036C231.424 252.252 232.777 251.441 234.114 250.603C234.208 250.545 234.303 250.488 234.397 250.424L234.316 250.18Z" fill="#2F2E41"/>
<path d="M204.78 250.562L199.809 248.177L199.03 247.802L197.784 250.863L189.091 252.779C188.661 252.873 188.273 253.103 187.982 253.434C187.692 253.765 187.515 254.18 187.477 254.619C187.44 255.058 187.543 255.498 187.773 255.874C188.002 256.25 188.346 256.542 188.753 256.709L197.248 260.179L199.944 257.749L199.283 261.01L202.482 262.318L205.988 251.143L204.78 250.562Z" fill="#2F2E41"/>
<path d="M273.943 116.476C272.087 114.309 271.205 111.433 269.721 108.972C268.237 106.511 265.654 104.308 262.926 104.881C261.046 105.276 259.593 106.937 258.857 108.79C258.121 110.642 257.983 112.685 257.854 114.686C257.9 110.574 255.194 106.587 251.466 105.274C247.739 103.962 243.277 105.426 240.935 108.73C239.913 107.781 238.579 107.241 237.185 107.212C235.792 107.182 234.436 107.666 233.375 108.571C231.28 110.446 230.816 114.014 232.357 116.406C233.898 118.798 237.235 119.688 239.684 118.362L240.549 119.159C240.062 120.866 241.007 122.882 242.595 123.524C243.884 124.045 245.702 123.958 246.184 125.312C246.521 126.257 245.891 127.267 245.222 127.994C244.552 128.72 243.757 129.471 243.676 130.476C243.555 131.994 245.121 133.057 246.545 133.377C249.977 134.149 253.786 132.557 255.764 129.524C255.802 129.466 255.844 129.407 255.889 129.348C256.999 127.927 257.808 126.294 258.266 124.549C258.724 122.804 258.823 120.984 258.555 119.2C258.444 118.499 258.556 117.977 259.038 117.811C261.125 117.094 266.971 118.6 268.74 119.961C270.509 121.322 271.926 123.124 273.63 124.573C275.334 126.022 277.506 127.14 279.669 126.745C281.402 126.429 282.877 125.169 283.868 123.65C284.86 122.13 285.43 120.359 285.942 118.599C282.109 120.815 276.865 119.888 273.943 116.476Z" fill="#2F2E41"/>
<path d="M239.042 183.105V247.374C237.821 248.216 236.583 249.035 235.33 249.831V187.366C235.33 185.555 234.723 184.085 233.977 184.081H177.791C177.041 184.085 176.437 185.555 176.434 187.366V270.308C175.685 270.382 174.936 270.453 174.186 270.514C173.876 270.541 173.562 270.565 173.252 270.589C173.073 270.257 172.897 269.923 172.722 269.585V183.105C172.722 182.605 172.742 182.101 172.776 181.605C173.08 177.388 174.588 174.306 176.353 174.299H235.411C235.625 174.3 235.836 174.345 236.032 174.431C237.51 175.059 238.678 177.817 238.972 181.382C239.019 181.949 239.046 182.527 239.042 183.105Z" fill="#E4E4E4"/>
<path d="M148.892 183.105V270.051C148.842 270.132 148.791 270.21 148.741 270.291C147.472 270.163 146.208 270.015 144.951 269.849V187.366C144.951 185.555 144.306 184.085 143.513 184.081H83.8778C83.0847 184.085 82.4401 185.555 82.4401 187.366V244.627C81.1071 243.644 79.7932 242.636 78.4984 241.603V183.105C78.4984 182.605 78.5187 182.101 78.5558 181.605C78.8764 177.388 80.4794 174.306 82.3558 174.299H145.035C145.261 174.3 145.484 174.344 145.693 174.431C147.262 175.059 148.504 177.817 148.818 181.382C148.869 181.949 148.892 182.527 148.892 183.105Z" fill="#E4E4E4"/>
<path d="M128.907 154.21L132.816 171.428L135.313 174.168H137.115L129.689 142.862L129.322 148.18V148.184L128.907 154.21Z" fill="#3F3D56"/>
<path d="M141.922 175.047C141.91 175.021 141.896 174.996 141.878 174.973C141.842 174.891 141.79 174.818 141.726 174.757L141.27 174.3L138.874 171.898C138.698 171.726 138.462 171.629 138.216 171.628H138.206L136.515 171.638L135.061 171.648L133.029 171.661L119.193 171.749L110.098 171.807C109.852 171.81 109.616 171.91 109.443 172.085C109.269 172.26 109.171 172.496 109.17 172.743C109.171 172.879 109.201 173.014 109.258 173.138L109.433 173.513L109.801 174.3L110.28 175.331L110.516 175.838C110.592 175.999 110.711 176.136 110.861 176.232C111.011 176.327 111.185 176.378 111.363 176.379H141.065C141.221 176.376 141.374 176.334 141.511 176.258C141.647 176.182 141.763 176.073 141.847 175.941C141.932 175.81 141.983 175.66 141.996 175.504C142.009 175.348 141.984 175.191 141.922 175.047H141.922Z" fill="#3F3D56"/>
<path opacity="0.17" d="M110.28 175.33L110.515 175.839C110.591 176 110.711 176.136 110.861 176.231C111.011 176.327 111.185 176.378 111.363 176.379H141.065C141.221 176.376 141.375 176.335 141.511 176.259C141.648 176.183 141.763 176.074 141.848 175.942C141.932 175.811 141.983 175.661 141.996 175.505C142.009 175.349 141.983 175.192 141.921 175.048C141.911 175.022 141.896 174.997 141.878 174.974L110.28 175.33Z" fill="black"/>
<path opacity="0.17" d="M129.321 148.18V148.184L135.68 174.168H137.114L129.689 142.862L129.321 148.18Z" fill="black"/>
<path d="M139.296 75.4665L138.365 75.3415C138.109 75.3081 137.851 75.3773 137.646 75.534L137.089 75.9632L130.889 83.7283C130.685 83.8867 130.551 84.1201 130.518 84.377L130.171 87.0195L121.518 152.941C121.487 153.186 121.548 153.433 121.69 153.634L125.767 164.886L125.888 165.062L126.151 165.437C126.287 165.628 126.485 165.764 126.712 165.822L127.302 165.971C127.436 166.005 127.576 166.009 127.712 165.985C127.848 165.961 127.978 165.907 128.092 165.829C128.206 165.752 128.303 165.651 128.375 165.533C128.447 165.416 128.494 165.284 128.51 165.147L129.567 157.111V157.108L130.242 151.951L130.812 147.603V147.599L140.14 76.5613C140.173 76.3048 140.104 76.0454 139.947 75.8402C139.789 75.635 139.557 75.5008 139.301 75.4671L139.296 75.4665Z" fill="#3F3D56"/>
<path opacity="0.17" d="M137.087 75.9635L125.766 164.888L125.889 165.062L126.151 165.436C126.286 165.627 126.485 165.763 126.711 165.821L127.303 165.97C127.437 166.004 127.576 166.008 127.712 165.984C127.848 165.959 127.977 165.907 128.091 165.829C128.205 165.751 128.301 165.65 128.373 165.532C128.446 165.415 128.493 165.283 128.511 165.146L140.138 76.5624C140.172 76.3052 140.102 76.0451 139.945 75.8393C139.787 75.6335 139.554 75.4989 139.297 75.465L138.363 75.3421C138.237 75.3249 138.108 75.3332 137.984 75.3664C137.861 75.3996 137.745 75.4571 137.644 75.5356L137.087 75.9635Z" fill="black"/>
<path d="M136.754 78.5066L130.746 87.0931L123.605 141.496L127.476 149.187L136.754 78.5066Z" fill="#6C63FF"/>
<path d="M195.279 154.21L191.371 171.428L188.873 174.168H187.072L194.497 142.862L194.865 148.18V148.184L195.279 154.21Z" fill="#3F3D56"/>
<path d="M214.087 171.807L191.159 171.661L189.124 171.648L187.673 171.638L185.982 171.628H185.969C185.723 171.628 185.488 171.725 185.314 171.898L182.459 174.757C182.396 174.819 182.344 174.892 182.307 174.973C182.289 174.996 182.275 175.021 182.263 175.047C182.201 175.191 182.176 175.348 182.189 175.504C182.202 175.66 182.253 175.81 182.338 175.941C182.422 176.073 182.538 176.182 182.674 176.258C182.811 176.334 182.964 176.376 183.12 176.379H212.822C213 176.378 213.174 176.327 213.325 176.231C213.475 176.135 213.596 175.999 213.672 175.838L213.905 175.331L214.384 174.3L214.927 173.138C214.985 173.014 215.015 172.879 215.015 172.743C215.014 172.496 214.916 172.26 214.742 172.085C214.569 171.91 214.333 171.81 214.087 171.807Z" fill="#3F3D56"/>
<path opacity="0.17" d="M213.905 175.33L213.671 175.839C213.595 176 213.475 176.136 213.325 176.231C213.175 176.327 213.001 176.378 212.823 176.379H183.12C182.964 176.376 182.811 176.335 182.675 176.259C182.538 176.183 182.423 176.074 182.338 175.942C182.253 175.811 182.202 175.661 182.19 175.505C182.177 175.349 182.203 175.192 182.265 175.048C182.275 175.022 182.29 174.997 182.308 174.974L213.905 175.33Z" fill="black"/>
<path opacity="0.17" d="M194.865 148.18V148.184L188.506 174.168H187.072L194.497 142.862L194.865 148.18Z" fill="black"/>
<path d="M202.667 152.941L193.667 84.3771C193.634 84.1201 193.5 83.8868 193.296 83.7283L187.1 75.9633L186.543 75.5341C186.336 75.3778 186.077 75.3086 185.82 75.3415L184.889 75.4665C184.632 75.4997 184.399 75.6337 184.241 75.839C184.083 76.0443 184.012 76.3041 184.045 76.5614L193.373 147.603V147.606L193.944 151.951L194.622 157.111V157.118L195.675 165.147C195.692 165.284 195.738 165.416 195.811 165.534C195.884 165.652 195.981 165.753 196.097 165.829C196.21 165.907 196.339 165.961 196.475 165.985C196.61 166.009 196.749 166.005 196.883 165.971L197.474 165.822C197.7 165.764 197.898 165.628 198.034 165.437L198.297 165.062L198.418 164.886L202.495 153.634C202.638 153.433 202.7 153.186 202.667 152.941Z" fill="#3F3D56"/>
<path opacity="0.17" d="M187.098 75.9635L198.419 164.888L198.296 165.062L198.034 165.436C197.899 165.627 197.7 165.763 197.474 165.821L196.882 165.97C196.748 166.003 196.609 166.008 196.473 165.984C196.337 165.959 196.208 165.906 196.094 165.829C195.98 165.751 195.884 165.65 195.812 165.532C195.739 165.415 195.692 165.283 195.674 165.146L184.047 76.5624C184.013 76.3052 184.083 76.0451 184.24 75.8393C184.398 75.6335 184.631 75.4988 184.888 75.4649L185.822 75.3421C185.948 75.3249 186.077 75.3332 186.201 75.3664C186.324 75.3996 186.44 75.4571 186.541 75.5356L187.098 75.9635Z" fill="black"/>
<path d="M187.432 78.5066L193.44 87.0931L200.581 141.496L196.709 149.187L187.432 78.5066Z" fill="#6C63FF"/>
<path d="M75.7626 188.192C75.7635 188.362 75.7489 188.531 75.7188 188.699C75.7053 188.78 75.6884 188.857 75.6681 188.935C75.5038 189.563 75.1361 190.119 74.6225 190.516C74.109 190.913 73.4786 191.128 72.83 191.128H60.1308V221.455C60.1313 222.096 59.9214 222.719 59.5334 223.229C59.2432 222.888 58.9563 222.547 58.6729 222.202C57.1542 220.384 55.6862 218.525 54.2688 216.626V191.128H48.5992C47.8432 191.128 47.1167 190.835 46.5713 190.31C46.0259 189.786 45.7039 189.071 45.6726 188.315C45.6412 187.559 45.9029 186.82 46.403 186.252C46.9031 185.684 47.6029 185.332 48.3562 185.269C48.4372 185.262 48.5182 185.259 48.5992 185.259H72.83C73.6073 185.258 74.3528 185.567 74.9028 186.117C75.4527 186.667 75.762 187.413 75.7626 188.192Z" fill="#3F3D56"/>
<path d="M278.123 188.192C278.123 188.786 277.944 189.367 277.607 189.856C277.271 190.346 276.794 190.723 276.24 190.935C275.977 191.036 275.701 191.098 275.42 191.118C275.346 191.125 275.268 191.128 275.194 191.128H269.528V218.654C269.443 218.765 269.356 218.877 269.268 218.988C267.935 220.695 266.561 222.367 265.147 224.006C264.696 223.752 264.321 223.381 264.06 222.932C263.8 222.484 263.664 221.974 263.666 221.455V191.128H250.963C250.588 191.129 250.217 191.057 249.87 190.915C249.433 190.74 249.044 190.462 248.737 190.104C248.431 189.747 248.215 189.32 248.108 188.861V188.857C247.951 188.19 248.034 187.489 248.344 186.877C248.341 186.874 248.341 186.874 248.344 186.874C248.478 186.605 248.654 186.359 248.864 186.144C249.137 185.864 249.464 185.641 249.824 185.489C250.185 185.337 250.572 185.259 250.963 185.259H275.194C275.971 185.259 276.716 185.567 277.265 186.117C277.814 186.667 278.123 187.413 278.123 188.191L278.123 188.192Z" fill="#3F3D56"/>
<path d="M277.929 131.647C276.723 131.647 275.529 131.885 274.415 132.347C273.3 132.809 272.288 133.487 271.435 134.341C270.582 135.195 269.906 136.208 269.444 137.324C268.983 138.44 268.745 139.636 268.745 140.843V140.843C268.745 142.977 269.486 145.043 270.841 146.69C272.196 148.336 274.08 149.46 276.171 149.869V164.909H282.033V131.647H277.929Z" fill="#3F3D56"/>
<path d="M117.579 165.226C116.994 164.883 116.341 164.672 115.666 164.608C114.991 164.544 114.311 164.63 113.672 164.858C113.033 165.086 112.453 165.452 111.971 165.929C111.488 166.406 111.117 166.983 110.882 167.62L100.292 168.034L98.8652 172.972L113.92 173.744C115.014 174.069 116.189 173.98 117.223 173.495C118.257 173.01 119.077 172.162 119.528 171.113C119.979 170.063 120.029 168.884 119.67 167.799C119.311 166.714 118.567 165.799 117.579 165.226H117.579Z" fill="#9E616A"/>
<path d="M108.879 174.277L98.0018 174.141L96.6249 174.122L74.4941 173.843C74.4941 173.843 68.4843 168.102 63.2512 162.192L63.9847 156.88C64.7002 151.667 67.2829 146.891 71.2523 143.442C78.7473 148.457 83.0938 158.382 83.0938 158.382L90.3816 161.648C95.5104 161.877 100.508 163.343 104.95 165.92L107.347 167.31L108.879 174.277Z" fill="#263560"/>
<path d="M143.056 269.586H182.29C179.614 269.978 176.913 270.288 174.188 270.516H151.158C148.432 270.289 145.731 269.979 143.056 269.586Z" fill="#CCCCCC"/>
<path d="M150.944 249.809C151.703 242.947 155.853 236.141 162.348 233.824C159.869 240.909 159.973 248.645 162.642 255.661C163.681 258.363 165.117 261.26 164.21 264.009C163.646 265.72 162.228 267.042 160.635 267.879C159.041 268.715 157.265 269.127 155.512 269.531L155.169 269.822C152.293 263.548 150.185 256.671 150.944 249.809Z" fill="#CCCCCC"/>
<path d="M162.415 233.953C158.672 238.266 156.381 243.652 155.869 249.343C155.737 250.566 155.799 251.803 156.051 253.007C156.335 254.172 156.925 255.239 157.761 256.099C158.523 256.916 159.398 257.663 159.949 258.651C160.224 259.161 160.388 259.724 160.43 260.302C160.472 260.88 160.392 261.46 160.195 262.005C159.738 263.375 158.817 264.499 157.878 265.567C156.835 266.753 155.734 267.968 155.305 269.527C155.253 269.716 154.963 269.624 155.015 269.436C155.761 266.723 158.361 265.153 159.578 262.702C160.146 261.558 160.373 260.237 159.81 259.045C159.318 258.003 158.417 257.232 157.637 256.411C156.81 255.585 156.198 254.568 155.854 253.45C155.541 252.263 155.432 251.031 155.532 249.807C155.713 247.048 156.326 244.335 157.348 241.766C158.499 238.829 160.144 236.11 162.211 233.727C162.339 233.58 162.542 233.806 162.415 233.953H162.415Z" fill="#E6E6E6"/>
<path d="M155.927 247.501C154.985 247.285 154.15 246.741 153.572 245.966C152.993 245.191 152.709 244.235 152.769 243.269C152.772 243.23 152.79 243.193 152.819 243.167C152.849 243.141 152.887 243.127 152.926 243.128C152.966 243.13 153.003 243.146 153.03 243.175C153.058 243.203 153.073 243.241 153.073 243.281C153.015 244.18 153.28 245.07 153.82 245.791C154.36 246.511 155.14 247.015 156.018 247.21C156.209 247.253 156.117 247.543 155.927 247.501H155.927Z" fill="#E6E6E6"/>
<path d="M157.319 255.735C159.002 254.699 160.232 253.066 160.765 251.161C160.818 250.972 161.107 251.064 161.055 251.253C160.496 253.233 159.213 254.931 157.459 256.005C157.292 256.108 157.153 255.837 157.319 255.735Z" fill="#E6E6E6"/>
<path d="M158.785 239.113C159.132 239.272 159.514 239.343 159.895 239.319C160.276 239.294 160.645 239.175 160.969 238.973C161.135 238.868 161.274 239.139 161.109 239.243C160.75 239.465 160.343 239.596 159.921 239.624C159.5 239.652 159.079 239.576 158.694 239.403C158.656 239.39 158.625 239.363 158.607 239.327C158.588 239.292 158.584 239.251 158.595 239.212C158.607 239.174 158.634 239.142 158.67 239.123C158.705 239.105 158.747 239.101 158.785 239.113L158.785 239.113Z" fill="#E6E6E6"/>
<path d="M182.401 245.793C182.299 245.862 182.197 245.93 182.095 246C180.733 246.924 179.448 247.956 178.253 249.087C178.16 249.173 178.066 249.262 177.975 249.351C175.124 252.107 172.81 255.37 171.149 258.973C170.49 260.407 169.94 261.889 169.505 263.407C168.905 265.503 168.42 267.824 167.199 269.548C167.074 269.729 166.938 269.903 166.791 270.067L155.55 270.217C155.525 270.205 155.499 270.195 155.473 270.183L155.025 270.209C155.042 270.129 155.061 270.047 155.078 269.967C155.087 269.921 155.1 269.874 155.109 269.828C155.116 269.797 155.124 269.766 155.129 269.738C155.131 269.727 155.133 269.717 155.136 269.709C155.141 269.681 155.148 269.655 155.153 269.63C155.259 269.168 155.37 268.707 155.483 268.246C155.483 268.243 155.483 268.243 155.486 268.241C156.317 264.718 157.563 261.306 159.197 258.077C159.247 257.982 159.297 257.883 159.353 257.788C160.11 256.358 160.983 254.992 161.963 253.705C162.502 253.002 163.076 252.326 163.683 251.681C165.254 250.018 167.078 248.612 169.086 247.515C173.089 245.33 177.745 244.451 182.071 245.695C182.182 245.727 182.29 245.759 182.401 245.793Z" fill="#CCCCCC"/>
<path d="M182.377 245.937C176.794 247.125 171.728 250.044 167.897 254.279C167.056 255.176 166.361 256.201 165.839 257.314C165.365 258.416 165.194 259.624 165.344 260.814C165.462 261.926 165.711 263.05 165.557 264.171C165.47 264.744 165.262 265.292 164.949 265.779C164.635 266.266 164.222 266.681 163.737 266.997C162.548 267.815 161.137 268.157 159.745 268.444C158.199 268.762 156.589 269.069 155.309 270.055C155.154 270.174 154.978 269.926 155.133 269.807C157.36 268.091 160.38 268.405 162.825 267.181C163.966 266.611 164.942 265.692 165.209 264.402C165.443 263.273 165.187 262.114 165.058 260.989C164.895 259.83 165.017 258.65 165.414 257.549C165.878 256.413 166.532 255.363 167.348 254.446C169.151 252.352 171.272 250.555 173.633 249.121C176.319 247.47 179.267 246.29 182.35 245.634C182.54 245.593 182.566 245.896 182.377 245.937H182.377Z" fill="#E6E6E6"/>
<path d="M169.051 252.843C168.428 252.103 168.089 251.165 168.093 250.197C168.097 249.23 168.445 248.295 169.073 247.561C169.201 247.413 169.437 247.604 169.309 247.753C168.723 248.436 168.399 249.306 168.397 250.207C168.395 251.108 168.714 251.98 169.298 252.666C169.425 252.815 169.177 252.991 169.051 252.843Z" fill="#E6E6E6"/>
<path d="M165.211 260.257C167.178 260.444 169.142 259.881 170.713 258.682C170.869 258.563 171.045 258.811 170.89 258.93C169.253 260.175 167.207 260.756 165.161 260.558C164.966 260.538 165.017 260.238 165.211 260.257V260.257Z" fill="#E6E6E6"/>
<path d="M176.376 247.869C176.558 248.206 176.82 248.492 177.139 248.702C177.458 248.912 177.824 249.04 178.204 249.073C178.4 249.09 178.348 249.39 178.154 249.373C177.734 249.334 177.33 249.193 176.977 248.962C176.624 248.73 176.333 248.416 176.129 248.046C176.107 248.012 176.098 247.972 176.105 247.932C176.111 247.893 176.133 247.858 176.165 247.833C176.197 247.81 176.238 247.801 176.278 247.808C176.317 247.814 176.353 247.836 176.376 247.869Z" fill="#E6E6E6"/>
<path d="M188.231 255.353C190.206 255.353 191.806 253.75 191.806 251.774C191.806 249.797 190.206 248.194 188.231 248.194C186.257 248.194 184.656 249.797 184.656 251.774C184.656 253.75 186.257 255.353 188.231 255.353Z" fill="#CCCCCC"/>
<path d="M199.902 265.806C199.683 265.871 199.46 265.935 199.238 265.996C197.216 266.563 195.18 267.083 193.129 267.553C192.893 267.076 192.767 266.552 192.759 266.02C192.751 265.487 192.861 264.96 193.083 264.476C193.304 263.991 193.631 263.563 194.039 263.221C194.447 262.879 194.926 262.633 195.441 262.5C195.956 262.367 196.494 262.351 197.016 262.453C197.538 262.555 198.031 262.772 198.458 263.089C198.886 263.406 199.237 263.814 199.487 264.284C199.737 264.754 199.879 265.274 199.902 265.806Z" fill="#CCCCCC"/>
<path d="M220.327 258.122C220.053 258.251 219.78 258.379 219.507 258.504C219.21 258.646 218.909 258.781 218.612 258.916C218.278 259.068 217.948 259.217 217.613 259.366C216.358 259.927 215.089 260.467 213.817 260.988C213.8 260.961 213.783 260.93 213.766 260.9C213.321 260.064 213.224 259.084 213.499 258.177C213.773 257.27 214.396 256.509 215.23 256.06C216.064 255.612 217.042 255.514 217.949 255.786C218.855 256.059 219.617 256.68 220.067 257.514C220.17 257.709 220.257 257.913 220.327 258.122Z" fill="#CCCCCC"/>
<path d="M200.84 246.567C202.814 246.567 204.415 244.965 204.415 242.988C204.415 241.011 202.814 239.408 200.84 239.408C198.866 239.408 197.265 241.011 197.265 242.988C197.265 244.965 198.866 246.567 200.84 246.567Z" fill="#CCCCCC"/>
<path d="M168.048 46.8682C147.019 52.4065 123.72 55.7754 100.029 56.6979C96.5574 56.8872 93.0772 56.8635 89.6081 56.6269C81.9846 55.9849 75.4544 53.5858 68.1818 52.2747C64.6856 51.6462 60.7911 51.1866 57.2712 50.5075C58.0846 49.4971 58.9125 48.4992 59.7551 47.5136C67.3449 48.1556 75.0528 50.2574 82.7338 51.2339C95.7907 52.8964 110.42 51.0413 120.318 46.4661C125.121 44.2461 128.799 41.4752 133.585 39.2451C134.235 38.9105 134.94 38.6943 135.667 38.6064C137.182 38.4679 138.512 39.0795 139.595 39.6269C147.624 43.6851 159.28 46.9831 170.099 45.1686C170.906 45.8004 169.374 46.5202 168.048 46.8682Z" fill="#E6E6E6"/>
<path d="M215.926 61.1499C216.025 61.1318 216.124 61.1177 216.222 61.1006C215.807 60.8426 215.415 60.5474 215.053 60.2185L215.926 61.1499Z" fill="#E6E6E6"/>
<path d="M280.694 69.1565C276.175 69.518 271.633 69.7872 267.067 69.9641C263.595 70.1517 260.115 70.128 256.646 69.8931C249.022 69.2477 242.492 66.8519 235.219 65.5409C228.554 64.3413 220.455 63.7635 216.223 61.1008C227.16 59.2051 238.493 63.064 249.771 64.5001C258.894 65.6233 268.142 65.1661 277.11 63.1485C278.359 65.1151 279.553 67.1178 280.694 69.1565Z" fill="#E6E6E6"/>
<path d="M178.972 119.844C168.385 83.4618 162.155 45.9498 162.155 8.05539V5.30902H158.637V8.05533C158.637 45.9498 152.406 83.4618 141.82 119.844C141.308 121.605 141.049 123.43 141.05 125.264V125.264C141.05 125.958 141.187 126.645 141.452 127.286C141.717 127.927 142.106 128.509 142.595 129C143.085 129.491 143.667 129.88 144.307 130.145C144.947 130.411 145.633 130.547 146.326 130.547H153.361C153.361 131.472 153.543 132.388 153.897 133.243C154.25 134.097 154.768 134.874 155.421 135.528C156.075 136.182 156.85 136.701 157.704 137.055C158.557 137.409 159.472 137.591 160.396 137.591C161.32 137.591 162.234 137.409 163.088 137.055C163.941 136.701 164.717 136.182 165.37 135.528C166.023 134.874 166.542 134.097 166.895 133.243C167.249 132.388 167.431 131.472 167.431 130.547H172.905V145.729C172.133 145.751 171.398 146.069 170.853 146.616C170.307 147.164 169.991 147.9 169.97 148.673C169.95 149.446 170.225 150.198 170.741 150.774C171.256 151.351 171.972 151.707 172.742 151.772C173.512 151.836 174.277 151.603 174.88 151.12C175.484 150.637 175.88 149.941 175.987 149.175C176.094 148.409 175.904 147.631 175.457 147.001C175.009 146.37 174.338 145.935 173.58 145.785V130.547H174.465C175.865 130.547 177.207 129.991 178.196 129C179.186 128.009 179.741 126.666 179.741 125.264V125.264C179.743 123.43 179.483 121.605 178.972 119.844Z" fill="#E6E6E6"/>
</g>
<defs>
<clipPath id="clip0_263_3771">
<rect width="298" height="271" fill="white"/>
</clipPath>
</defs>
</svg>
