<svg width="262" height="257" viewBox="0 0 262 257" fill="none" xmlns="http://www.w3.org/2000/svg">
<g clip-path="url(#clip0_263_4338)">
<path d="M38.2848 163.948C59.429 163.948 76.5697 146.864 76.5697 125.791C76.5697 104.717 59.429 87.6334 38.2848 87.6334C17.1407 87.6334 0 104.717 0 125.791C0 146.864 17.1407 163.948 38.2848 163.948Z" fill="#F2F2F2"/>
<path d="M38.6269 127.381C47.0585 127.381 53.8936 120.569 53.8936 112.166C53.8936 103.762 47.0585 96.9497 38.6269 96.9497C30.1953 96.9497 23.3601 103.762 23.3601 112.166C23.3601 120.569 30.1953 127.381 38.6269 127.381Z" fill="#2F2E41"/>
<path d="M76.7772 38.2249C76.7638 45.7716 74.5053 53.145 70.2873 59.4125C66.0694 65.68 60.0814 70.5601 53.0807 73.4358C46.0799 76.3114 38.3808 77.0535 30.9569 75.568C23.533 74.0826 16.7177 70.4364 11.373 65.0906C6.02828 59.7447 2.3941 52.9393 0.930046 45.5349C-0.534012 38.1306 0.237804 30.4598 3.14789 23.4926C6.05798 16.5254 10.9756 10.5747 17.279 6.39306C23.5823 2.21142 30.9883 -0.013381 38.5603 -1.03797e-06C43.5916 -0.00412313 48.5742 0.982767 53.2216 2.90396C57.869 4.82515 62.0897 7.64276 65.641 11.1949C69.1924 14.747 72.0044 18.9635 73.9156 23.6022C75.8267 28.241 76.7992 33.2104 76.7772 38.2249Z" fill="#F2F2F2"/>
<path d="M129.134 163.948C150.278 163.948 167.418 146.864 167.418 125.791C167.418 104.717 150.278 87.6334 129.134 87.6334C107.989 87.6334 90.8488 104.717 90.8488 125.791C90.8488 146.864 107.989 163.948 129.134 163.948Z" fill="#F2F2F2"/>
<path d="M129.023 76.3145C150.167 76.3145 167.307 59.2309 167.307 38.1573C167.307 17.0836 150.167 0 129.023 0C107.878 0 90.7377 17.0836 90.7377 38.1573C90.7377 59.2309 107.878 76.3145 129.023 76.3145Z" fill="#F2F2F2"/>
<path d="M222.331 76.3145C243.476 76.3145 260.616 59.2309 260.616 38.1573C260.616 17.0836 243.476 0 222.331 0C201.187 0 184.047 17.0836 184.047 38.1573C184.047 59.2309 201.187 76.3145 222.331 76.3145Z" fill="#F2F2F2"/>
<path d="M223.715 163.948C244.859 163.948 262 146.864 262 125.791C262 104.717 244.859 87.6334 223.715 87.6334C202.571 87.6334 185.43 104.717 185.43 125.791C185.43 146.864 202.571 163.948 223.715 163.948Z" fill="#F2F2F2"/>
<path d="M76.7773 218.842C76.7773 226.389 74.5319 233.767 70.3251 240.042C66.1183 246.316 60.139 251.207 53.1434 254.095C46.1478 256.983 38.45 257.739 31.0234 256.267C23.5969 254.794 16.7752 251.16 11.421 245.824C6.06674 240.487 2.42046 233.688 0.943229 226.287C-0.533999 218.885 0.224172 211.213 3.12186 204.24C6.01955 197.268 10.9266 191.309 17.2225 187.116C23.5184 182.923 30.9204 180.685 38.4924 180.685C43.5263 180.663 48.5148 181.635 53.1699 183.544C57.8249 185.454 62.0543 188.264 65.6138 191.811C69.1734 195.359 71.9926 199.574 73.9086 204.214C75.8247 208.853 76.7997 213.825 76.7773 218.842Z" fill="#F2F2F2"/>
<path d="M131.483 257C152.627 257 169.768 239.916 169.768 218.843C169.768 197.769 152.627 180.685 131.483 180.685C110.339 180.685 93.1979 197.769 93.1979 218.843C93.1979 239.916 110.339 257 131.483 257Z" fill="#F2F2F2"/>
<path d="M20.7476 25.7447C22.3307 20.7164 25.9306 16.1046 30.9092 14.4047C35.8882 12.7048 43.1786 15.2943 46.9216 19.0122C53.7683 25.8131 55.4392 49.1765 50.7352 56.5596C49.7996 56.5102 46.571 56.4737 45.624 56.4384L44.2844 51.9884V56.3945C42.7758 56.348 41.2553 56.316 39.723 56.2983C34.5856 56.2348 29.673 54.1886 26.0179 50.5898C22.3628 46.9911 20.25 42.1202 20.1236 37.001C20.0011 32.1038 20.1238 27.7263 20.7476 25.7447Z" fill="#2F2E41"/>
<path d="M37.9243 42.4099C43.9502 42.4099 48.8352 37.5412 48.8352 31.5353C48.8352 25.5295 43.9502 20.6608 37.9243 20.6608C31.8983 20.6608 27.0134 25.5295 27.0134 31.5353C27.0134 37.5412 31.8983 42.4099 37.9243 42.4099Z" fill="#9E616A"/>
<path d="M28.5079 21.9848L41.0708 15.7152C43.6392 16.8687 45.8512 18.6861 47.4774 20.9788C49.1036 23.2715 50.0848 25.9561 50.3191 28.7541L50.6323 32.4924L45.3715 31.1577L44.7952 26.3775L43.9018 30.7848L41.4741 30.1691L41.4971 22.748L39.0679 30.1639L30.3969 28.1783L28.5079 21.9848Z" fill="#2F2E41"/>
<path d="M118.62 111.473C121.605 111.473 124.025 109.061 124.025 106.086C124.025 103.11 121.605 100.698 118.62 100.698C115.635 100.698 113.215 103.11 113.215 106.086C113.215 109.061 115.635 111.473 118.62 111.473Z" fill="#2F2E41"/>
<path d="M127.269 131.944C134.831 131.944 140.962 125.834 140.962 118.297C140.962 110.759 134.831 104.649 127.269 104.649C119.706 104.649 113.576 110.759 113.576 118.297C113.576 125.834 119.706 131.944 127.269 131.944Z" fill="#2F2E41"/>
<path d="M128.402 131.941C134.548 131.941 139.53 126.976 139.53 120.851C139.53 114.726 134.548 109.76 128.402 109.76C122.257 109.76 117.275 114.726 117.275 120.851C117.275 126.976 122.257 131.941 128.402 131.941Z" fill="#9E616A"/>
<path d="M135.959 109.546C134.009 108.361 131.776 107.72 129.492 107.69C127.209 107.66 124.959 108.242 122.979 109.375C120.998 110.508 119.36 112.151 118.234 114.131C117.109 116.112 116.538 118.357 116.581 120.632C122.251 122.051 128.207 123.137 134.254 120.972L135.682 117.489L136.523 120.974C138.365 121.725 140.211 122.359 142.057 120.967C142.132 118.698 141.609 116.449 140.539 114.445C139.469 112.44 137.889 110.751 135.959 109.546Z" fill="#2F2E41"/>
<path d="M113.588 91.4615C109.85 89.7534 105.16 90.5549 102.048 93.2332C98.936 95.9115 97.4565 100.271 98.0573 104.325C98.6702 108.461 101.193 112.022 103.518 115.502C105.844 118.981 108.115 122.794 108.113 126.974C108.111 129.986 106.911 132.873 104.776 135.004C102.641 137.134 99.7458 138.334 96.7246 138.34C100.27 139.862 103.971 141.413 107.828 141.233C111.684 141.052 115.726 138.581 116.355 134.785C116.808 132.05 115.462 129.383 114.339 126.846C112.51 122.713 111.187 118.375 110.401 113.927C110.026 111.803 109.782 109.571 110.476 107.529C111.029 106.016 112.056 104.721 113.404 103.833C114.752 102.946 116.35 102.513 117.964 102.6L119.238 101.457C119.805 97.3984 117.325 93.1695 113.588 91.4615Z" fill="#2F2E41"/>
<path d="M206.707 23.2323C206.181 26.0459 205.32 28.7868 204.14 31.3963C197.387 45.6356 216.619 40.9943 223.493 40.9943C231.007 40.9943 238.197 44.9327 237.099 27.433C236.63 19.9579 231.007 13.8717 223.493 13.8717C217.074 13.8717 208.049 16.7152 206.707 23.2323Z" fill="#2F2E41"/>
<path d="M222.367 40.991C228.473 40.991 233.424 36.0571 233.424 29.9709C233.424 23.8847 228.473 18.9508 222.367 18.9508C216.26 18.9508 211.31 23.8847 211.31 29.9709C211.31 36.0571 216.26 40.991 222.367 40.991Z" fill="#FFB6B6"/>
<path d="M214.858 18.7374C216.796 17.5602 219.015 16.9234 221.284 16.8936C223.553 16.8637 225.788 17.442 227.756 18.568C229.724 19.6939 231.353 21.3261 232.471 23.2939C233.589 25.2618 234.157 27.4929 234.114 29.7541C228.48 31.164 222.561 32.2429 216.553 30.0913L215.134 26.6302L214.297 30.0939C212.467 30.8393 210.633 31.47 208.798 30.0867C208.724 27.8319 209.244 25.5969 210.307 23.6053C211.371 21.6137 212.94 19.9351 214.858 18.7374Z" fill="#2F2E41"/>
<path d="M38.6334 129.38C46.1657 129.38 52.2718 123.295 52.2718 115.787C52.2718 108.28 46.1657 102.194 38.6334 102.194C31.1011 102.194 24.9949 108.28 24.9949 115.787C24.9949 123.295 31.1011 129.38 38.6334 129.38Z" fill="#FFB8B8"/>
<path d="M130.639 222.801C137.054 222.801 142.254 217.618 142.254 211.225C142.254 204.831 137.054 199.649 130.639 199.649C124.225 199.649 119.025 204.831 119.025 211.225C119.025 217.618 124.225 222.801 130.639 222.801Z" fill="#9E616A"/>
<path d="M130.583 42.0496C137.477 42.0496 143.067 36.4789 143.067 29.6072C143.067 22.7354 137.477 17.1648 130.583 17.1648C123.688 17.1648 118.099 22.7354 118.099 29.6072C118.099 36.4789 123.688 42.0496 130.583 42.0496Z" fill="#FFB8B8"/>
<path d="M141.574 21.3875C141.574 21.3875 144.825 15.1944 137.674 14.6314C137.674 14.6314 131.578 9.11971 125.364 13.6238C125.364 13.6238 121.975 13.6238 120.121 17.4464C120.121 17.4464 117.455 16.4388 116.87 19.1354C116.87 19.1354 114.919 24.7655 116.87 29.8326C118.82 34.8997 119.468 35.4627 119.468 35.4627C119.468 35.4627 118.099 29.1747 125.901 28.6117C133.703 28.0487 140.86 23.1775 141.51 29.3706C142.161 35.5637 142.875 32.766 142.875 32.766C142.875 32.766 149.051 23.921 141.574 21.3875Z" fill="#2F2E41"/>
<path d="M222.658 130.518C229.408 130.518 234.879 125.064 234.879 118.337C234.879 111.61 229.408 106.157 222.658 106.157C215.909 106.157 210.438 111.61 210.438 118.337C210.438 125.064 215.909 130.518 222.658 130.518Z" fill="#FFB6B6"/>
<path d="M54.1497 209.713V209.713L53.9603 210.053C55.6464 205.911 54.1132 200.808 51.1053 197.685C48.0976 194.562 43.9161 193.135 39.7988 192.568C36.7422 192.148 33.5696 192.16 30.6633 193.276C26.4546 194.892 23.2391 198.632 20.5544 202.524C19.3264 204.304 18.119 206.333 18.2414 208.557C18.3549 210.622 19.5844 212.374 20.5913 214.125C21.5983 215.877 22.4392 218.05 21.7165 219.962C21.2859 221.101 20.3757 221.921 19.6373 222.853C18.8988 223.785 18.2913 225.045 18.648 226.214C18.8064 226.661 19.0785 227.06 19.4377 227.371C19.797 227.682 20.2311 227.895 20.6976 227.989C21.5904 228.197 22.5166 228.061 23.4207 227.925L46.8896 224.391C48.4844 224.151 49.9972 223.53 51.2991 222.581C52.601 221.632 53.6534 220.384 54.3666 218.942C55.0797 217.5 55.4324 215.908 55.3947 214.301C55.3569 212.694 54.9298 211.12 54.1497 209.713Z" fill="#2F2E41"/>
<path d="M48.0194 214.624C49.0345 208.389 44.7865 202.515 38.5312 201.503C32.2759 200.492 26.3821 204.725 25.367 210.96C24.3519 217.194 28.5999 223.069 34.8552 224.08C41.1105 225.092 47.0044 220.858 48.0194 214.624Z" fill="#FFB9B9"/>
<path d="M67.2399 244.036C60.6071 251.558 51.2726 256.179 41.2513 256.9C31.23 257.622 21.3259 254.387 13.6769 247.894L16.9606 238.762C17.7027 237.14 18.8738 235.75 20.3483 234.741C21.8227 233.732 23.545 233.142 25.3304 233.034L27.4195 232.906L32.4008 228.624C32.4008 228.624 45.8228 228.146 45.6236 227.918L53.7538 232.792L53.747 232.758L56.943 232.953C58.7285 233.06 60.451 233.65 61.9256 234.659C63.4001 235.669 64.5711 237.059 65.3128 238.681L67.2399 244.036Z" fill="#263560"/>
<path d="M159.712 244.036C153.079 251.558 143.745 256.179 133.724 256.9C123.702 257.622 113.798 254.387 106.149 247.894L109.433 238.762C110.175 237.14 111.346 235.75 112.821 234.741C114.295 233.732 116.017 233.142 117.803 233.034L119.892 232.906L124.873 228.624C124.873 228.624 138.295 228.146 138.096 227.918L146.226 232.792L146.219 232.758L149.415 232.953C151.201 233.06 152.923 233.65 154.398 234.659C155.872 235.669 157.043 237.059 157.785 238.681L159.712 244.036Z" fill="#263560"/>
<path d="M47.577 202.178C47.2808 200.616 45.6826 199.902 44.3134 199.555C40.3417 198.546 36.2103 198.319 32.1515 198.89C29.1928 199.31 26.1638 200.238 24.017 202.539C22.2859 204.478 21.3051 206.967 21.2507 209.562C21.1631 211.113 21.5109 212.658 22.2549 214.023C23.0275 215.326 24.3443 216.271 25.7037 216.238L25.8413 216.715C31.6023 215.915 36.9536 212.343 40.324 207.047C39.6915 209.298 38.4326 211.325 36.6931 212.893C40.5825 211.342 43.9634 208.745 46.459 205.392C47.1406 204.49 47.8023 203.366 47.577 202.178Z" fill="#2F2E41"/>
<path d="M66.9024 150.863C60.2697 158.385 50.9351 163.006 40.9138 163.727C30.8926 164.449 20.9884 161.214 13.3394 154.721L16.6232 145.589C17.3653 143.967 18.5363 142.577 20.0108 141.568C21.4853 140.559 23.2076 139.968 24.9929 139.861L27.082 139.733L32.0633 135.451C32.0633 135.451 45.4853 134.973 45.2862 134.745L53.4163 139.618L53.4096 139.585L56.6056 139.78C58.3911 139.887 60.1136 140.477 61.5881 141.486C63.0627 142.496 64.2336 143.886 64.9753 145.508L66.9024 150.863Z" fill="#263560"/>
<path d="M157.94 151.321C151.307 158.843 141.972 163.463 131.951 164.185C121.93 164.907 112.026 161.672 104.377 155.179L107.66 146.047C108.403 144.425 109.574 143.034 111.048 142.025C112.523 141.016 114.245 140.426 116.03 140.318L118.119 140.19L123.101 135.909C123.101 135.909 136.523 135.431 136.324 135.202L144.454 140.076L144.447 140.042L147.643 140.238C149.428 140.345 151.151 140.935 152.625 141.944C154.1 142.953 155.271 144.344 156.013 145.966L157.94 151.321Z" fill="#263560"/>
<path d="M252.437 151.321C245.804 158.843 236.469 163.463 226.448 164.185C216.427 164.907 206.523 161.672 198.874 155.179L202.158 146.047C202.9 144.425 204.071 143.034 205.545 142.025C207.02 141.016 208.742 140.426 210.527 140.318L212.616 140.19L217.598 135.909C217.598 135.909 231.02 135.431 230.821 135.202L238.951 140.076L238.944 140.042L242.14 140.238C243.925 140.345 245.648 140.935 247.122 141.944C248.597 142.953 249.768 144.344 250.51 145.966L252.437 151.321Z" fill="#263560"/>
<path d="M66.9024 63.4082C60.2697 70.9301 50.9351 75.5506 40.9138 76.2725C30.8926 76.9943 20.9884 73.7595 13.3394 67.2663L16.6232 58.134C17.3653 56.5119 18.5363 55.1218 20.0108 54.1127C21.4853 53.1036 23.2076 52.5135 24.9929 52.4057L27.082 52.2778L32.0633 47.9959C32.0633 47.9959 45.4853 47.5183 45.2862 47.2896L53.4163 52.1635L53.4096 52.1298L56.6056 52.3249C58.3911 52.4323 60.1136 53.0222 61.5881 54.0314C63.0627 55.0406 64.2336 56.4309 64.9753 58.0532L66.9024 63.4082Z" fill="#263560"/>
<path d="M157.602 63.5294C150.969 71.0513 141.635 75.6719 131.614 76.3937C121.592 77.1155 111.688 73.8807 104.039 67.3875L107.323 58.2552C108.065 56.6332 109.236 55.243 110.711 54.2339C112.185 53.2248 113.907 52.6347 115.693 52.5269L117.782 52.3991L122.763 48.1171C122.763 48.1171 136.185 47.6395 135.986 47.4108L144.116 52.2847L144.109 52.2511L147.305 52.4462C149.091 52.5535 150.813 53.1434 152.288 54.1526C153.762 55.1618 154.933 56.5521 155.675 58.1745L157.602 63.5294Z" fill="#263560"/>
<path d="M252.099 63.5294C245.467 71.0513 236.132 75.6719 226.111 76.3937C216.09 77.1155 206.185 73.8807 198.536 67.3875L201.82 58.2552C202.562 56.6332 203.733 55.243 205.208 54.2339C206.682 53.2248 208.405 52.6347 210.19 52.5269L212.279 52.3991L217.26 48.1171C217.26 48.1171 230.682 47.6395 230.483 47.4108L238.613 52.2847L238.607 52.2511L241.803 52.4462C243.588 52.5535 245.311 53.1434 246.785 54.1526C248.26 55.1618 249.431 56.5521 250.172 58.1745L252.099 63.5294Z" fill="#263560"/>
<path d="M235.548 110.783C234.515 107.099 232.169 103.918 228.949 101.836C226.383 100.2 223.182 99.3651 220.275 100.23C217.368 101.095 214.962 103.938 215.152 107.01C214.103 106.654 212.91 107.127 212.142 107.936C211.374 108.745 210.961 109.833 210.665 110.916C209.733 114.36 209.794 117.997 210.844 121.408L210.786 121.897C212.204 121.663 213.28 120.451 213.948 119.158C214.617 117.866 215.002 116.433 215.727 115.173C216.452 113.912 217.656 112.788 219.092 112.748L218.966 114.936C220.201 114.302 221.437 113.667 222.672 113.033C222.378 113.734 222.084 114.434 221.791 115.135C222.87 114.686 223.949 114.236 225.028 113.787C224.907 114.46 224.786 115.134 224.666 115.808C225.736 113.38 229.045 112.314 231.297 113.671C232.604 114.459 233.462 115.864 233.913 117.34C234.364 118.815 234.454 120.375 234.54 121.918C236.207 118.448 236.565 114.495 235.548 110.783Z" fill="#2F2E41"/>
<path d="M120.087 216.577C120.064 216.513 120.043 216.449 120.02 216.386C119.976 216.425 119.933 216.466 119.884 216.502L120.087 216.577Z" fill="#2F2E41"/>
<path d="M144.553 207.107C144.493 205.932 144.185 204.783 143.647 203.736C143.11 202.689 142.356 201.768 141.435 201.032C140.758 200.499 139.975 200.048 139.527 199.313C139.271 198.793 139.054 198.254 138.878 197.702C137.987 195.587 135.446 194.463 133.166 194.783C130.887 195.103 128.914 196.631 127.586 198.505C126.931 198.192 126.2 198.073 125.48 198.162C124.759 198.25 124.079 198.543 123.52 199.004C122.961 199.466 122.547 200.078 122.326 200.767C122.105 201.456 122.087 202.194 122.274 202.893C121.093 201.945 119.184 202.703 118.447 204.024C117.71 205.344 117.827 206.959 118.046 208.454C118.443 211.156 119.104 213.812 120.02 216.386C121.169 215.377 121.099 213.54 120.958 211.987C120.812 210.374 120.9 208.404 122.315 207.608C123.683 206.839 125.343 207.683 126.851 208.12C128.043 208.457 129.294 208.531 130.518 208.34C131.742 208.148 132.91 207.694 133.941 207.009C134.726 206.479 135.425 205.815 136.272 205.39C137.119 204.964 138.196 204.816 138.985 205.342C139.705 205.821 139.997 206.716 140.242 207.544C140.823 209.507 141.403 211.469 141.984 213.431C142.836 212.618 143.506 211.633 143.949 210.543C144.391 209.453 144.597 208.282 144.553 207.107Z" fill="#2F2E41"/>
<path d="M53.0215 111.02C53.1172 110.005 53.161 108.986 53.1529 107.967C53.2086 105.951 52.838 103.946 52.0652 102.082C51.1147 100.019 49.4201 98.3869 47.318 97.5114C45.2344 96.6738 42.9059 96.6758 40.8238 97.517C38.944 96.3333 36.8553 95.395 34.6557 95.2787C32.4561 95.1625 30.1305 95.9758 28.7749 97.7662C28.4722 98.2388 28.1284 98.6839 27.7475 99.0965C26.6579 100.102 25.002 99.9571 23.5537 99.7515C24.2033 100.306 24.853 100.861 25.503 101.416C24.7167 101.621 23.9303 101.826 23.1438 102.03C24.0615 102.585 24.9791 103.14 25.8966 103.694C23.2327 105.288 22.0219 108.766 22.3417 111.925C22.6443 114.916 24.0931 117.651 25.8249 120.082C26.5158 118.629 26.367 116.89 26.3555 115.254C26.3492 114.723 26.3817 114.192 26.4528 113.666C32.3057 115.064 38.4214 115.962 44.6233 113.741L45.868 110.705C46.0426 110.723 46.2174 110.74 46.3919 110.758L47.113 113.744C48.7478 114.41 50.386 114.992 52.0249 114.38C52.1046 114.841 52.1526 115.312 52.1895 115.764C52.3302 115.223 52.4522 114.678 52.5622 114.131C52.7788 114.015 52.9863 113.883 53.1828 113.736C53.2223 112.828 53.1683 111.918 53.0215 111.02Z" fill="#2F2E41"/>
</g>
<defs>
<clipPath id="clip0_263_4338">
<rect width="262" height="257" fill="white"/>
</clipPath>
</defs>
</svg>
