<svg width="188" height="37" viewBox="0 0 188 37" fill="none" xmlns="http://www.w3.org/2000/svg">
<path d="M115.89 10V1.41914H119.443C119.814 1.41914 120.152 1.49569 120.458 1.64877C120.772 1.80186 121.042 2.01134 121.268 2.27723C121.494 2.53506 121.671 2.82511 121.8 3.1474C121.929 3.46163 121.993 3.78391 121.993 4.11426C121.993 4.58157 121.888 5.02471 121.679 5.44369C121.477 5.8546 121.191 6.18897 120.821 6.4468C120.45 6.70463 120.015 6.83354 119.516 6.83354H116.736V10H115.89ZM116.736 6.08423H119.479C119.818 6.08423 120.112 5.99157 120.362 5.80626C120.611 5.62094 120.805 5.37923 120.942 5.08111C121.079 4.783 121.147 4.46071 121.147 4.11426C121.147 3.75974 121.067 3.43343 120.905 3.13531C120.744 2.8372 120.531 2.60354 120.265 2.43434C120.007 2.25709 119.721 2.16846 119.407 2.16846H116.736V6.08423ZM126.515 4.42849C125.967 4.4446 125.484 4.59769 125.065 4.88774C124.654 5.1778 124.364 5.57663 124.195 6.08423V10H123.373V3.70334H124.147V5.21406C124.364 4.77091 124.65 4.41237 125.005 4.13843C125.367 3.86449 125.75 3.7114 126.153 3.67917C126.233 3.67111 126.302 3.66709 126.358 3.66709C126.423 3.66709 126.475 3.67111 126.515 3.67917V4.42849ZM130.227 10.1209C129.776 10.1209 129.357 10.0363 128.97 9.86706C128.591 9.6898 128.261 9.45211 127.979 9.154C127.705 8.84783 127.491 8.50137 127.338 8.11463C127.185 7.71983 127.109 7.30489 127.109 6.8698C127.109 6.4186 127.185 5.99963 127.338 5.61289C127.491 5.21809 127.709 4.87163 127.991 4.57351C128.273 4.26734 128.603 4.02966 128.982 3.86046C129.369 3.6832 129.788 3.59457 130.239 3.59457C130.69 3.59457 131.105 3.6832 131.484 3.86046C131.862 4.02966 132.193 4.26734 132.475 4.57351C132.757 4.87163 132.974 5.21809 133.127 5.61289C133.28 5.99963 133.357 6.4186 133.357 6.8698C133.357 7.30489 133.28 7.71983 133.127 8.11463C132.974 8.50137 132.757 8.84783 132.475 9.154C132.201 9.45211 131.87 9.6898 131.484 9.86706C131.105 10.0363 130.686 10.1209 130.227 10.1209ZM127.943 6.88189C127.943 7.3492 128.043 7.77623 128.245 8.16297C128.454 8.54166 128.732 8.8438 129.079 9.0694C129.425 9.28694 129.808 9.39571 130.227 9.39571C130.646 9.39571 131.029 9.28291 131.375 9.05731C131.721 8.83171 131.999 8.52554 132.209 8.1388C132.418 7.744 132.523 7.31697 132.523 6.85771C132.523 6.3904 132.418 5.96337 132.209 5.57663C131.999 5.18989 131.721 4.88371 131.375 4.65811C131.029 4.43251 130.646 4.31971 130.227 4.31971C129.808 4.31971 129.425 4.43654 129.079 4.6702C128.74 4.90386 128.466 5.21406 128.257 5.6008C128.047 5.97949 127.943 6.40651 127.943 6.88189ZM138.081 10.1209C137.557 10.1209 137.086 9.98389 136.667 9.70994C136.256 9.436 135.929 9.0976 135.688 8.69474V12.5743H134.866V3.70334H135.603V4.924C135.853 4.5292 136.187 4.21094 136.606 3.96923C137.025 3.71946 137.472 3.59457 137.948 3.59457C138.383 3.59457 138.782 3.68723 139.144 3.87254C139.507 4.0498 139.821 4.29151 140.087 4.59769C140.353 4.90386 140.558 5.25434 140.703 5.64914C140.856 6.03589 140.933 6.43874 140.933 6.85771C140.933 7.44589 140.812 7.98974 140.57 8.48929C140.337 8.98077 140.006 9.37557 139.579 9.67369C139.152 9.9718 138.653 10.1209 138.081 10.1209ZM137.851 9.39571C138.197 9.39571 138.508 9.32723 138.782 9.19026C139.056 9.04523 139.289 8.85186 139.483 8.61014C139.684 8.36843 139.837 8.09851 139.942 7.8004C140.047 7.49423 140.099 7.18 140.099 6.85771C140.099 6.51931 140.038 6.19703 139.918 5.89086C139.805 5.58469 139.64 5.31477 139.422 5.08111C139.205 4.84746 138.955 4.66214 138.673 4.52517C138.391 4.3882 138.085 4.31971 137.754 4.31971C137.545 4.31971 137.327 4.36 137.102 4.44057C136.876 4.52114 136.659 4.63797 136.449 4.79106C136.248 4.93609 136.078 5.10126 135.941 5.28657C135.804 5.47189 135.72 5.66929 135.688 5.87877V7.81249C135.817 8.1106 135.99 8.38051 136.207 8.62223C136.425 8.85589 136.675 9.04523 136.957 9.19026C137.247 9.32723 137.545 9.39571 137.851 9.39571ZM145.142 10.1209C144.691 10.1209 144.272 10.0363 143.885 9.86706C143.507 9.6898 143.176 9.45211 142.894 9.154C142.62 8.84783 142.407 8.50137 142.254 8.11463C142.101 7.71983 142.024 7.30489 142.024 6.8698C142.024 6.4186 142.101 5.99963 142.254 5.61289C142.407 5.21809 142.624 4.87163 142.906 4.57351C143.188 4.26734 143.519 4.02966 143.897 3.86046C144.284 3.6832 144.703 3.59457 145.154 3.59457C145.606 3.59457 146.02 3.6832 146.399 3.86046C146.778 4.02966 147.108 4.26734 147.39 4.57351C147.672 4.87163 147.89 5.21809 148.043 5.61289C148.196 5.99963 148.272 6.4186 148.272 6.8698C148.272 7.30489 148.196 7.71983 148.043 8.11463C147.89 8.50137 147.672 8.84783 147.39 9.154C147.116 9.45211 146.786 9.6898 146.399 9.86706C146.02 10.0363 145.602 10.1209 145.142 10.1209ZM142.858 6.88189C142.858 7.3492 142.959 7.77623 143.16 8.16297C143.37 8.54166 143.648 8.8438 143.994 9.0694C144.341 9.28694 144.723 9.39571 145.142 9.39571C145.561 9.39571 145.944 9.28291 146.29 9.05731C146.637 8.83171 146.915 8.52554 147.124 8.1388C147.334 7.744 147.439 7.31697 147.439 6.85771C147.439 6.3904 147.334 5.96337 147.124 5.57663C146.915 5.18989 146.637 4.88371 146.29 4.65811C145.944 4.43251 145.561 4.31971 145.142 4.31971C144.723 4.31971 144.341 4.43654 143.994 4.6702C143.656 4.90386 143.382 5.21406 143.172 5.6008C142.963 5.97949 142.858 6.40651 142.858 6.88189ZM151.848 10.1209C151.332 10.1209 150.853 10.0363 150.41 9.86706C149.967 9.69786 149.584 9.44003 149.262 9.09357L149.6 8.51346C149.954 8.8438 150.309 9.08551 150.663 9.2386C151.026 9.38363 151.409 9.45614 151.812 9.45614C152.303 9.45614 152.702 9.35946 153.008 9.16609C153.314 8.96466 153.467 8.67863 153.467 8.308C153.467 8.05823 153.391 7.86889 153.238 7.73997C153.093 7.603 152.879 7.49423 152.597 7.41366C152.323 7.32503 151.993 7.23237 151.606 7.13569C151.171 7.01483 150.804 6.88994 150.506 6.76103C150.216 6.62406 149.995 6.45486 149.842 6.25343C149.697 6.04394 149.624 5.77403 149.624 5.44369C149.624 5.03277 149.725 4.69437 149.926 4.42849C150.136 4.15454 150.418 3.94909 150.772 3.81211C151.135 3.66709 151.538 3.59457 151.981 3.59457C152.464 3.59457 152.891 3.67111 153.262 3.8242C153.633 3.97729 153.935 4.1908 154.168 4.46474L153.769 5.02069C153.544 4.76286 153.274 4.57351 152.96 4.45266C152.654 4.32374 152.311 4.25929 151.932 4.25929C151.675 4.25929 151.429 4.29554 151.195 4.36806C150.962 4.43251 150.768 4.54531 150.615 4.70646C150.47 4.85954 150.398 5.07306 150.398 5.347C150.398 5.5726 150.454 5.74986 150.567 5.87877C150.68 5.99963 150.849 6.10437 151.074 6.193C151.3 6.27357 151.578 6.3622 151.908 6.45889C152.384 6.5878 152.799 6.72074 153.153 6.85771C153.508 6.98663 153.782 7.15583 153.975 7.36531C154.168 7.5748 154.265 7.86889 154.265 8.24757C154.265 8.83574 154.043 9.295 153.6 9.62534C153.157 9.95569 152.573 10.1209 151.848 10.1209ZM155.25 8.18714C155.25 7.79234 155.363 7.45394 155.589 7.17194C155.814 6.88189 156.124 6.66031 156.519 6.50723C156.922 6.34609 157.385 6.26551 157.909 6.26551C158.215 6.26551 158.533 6.28969 158.864 6.33803C159.194 6.38637 159.488 6.45889 159.746 6.55557V6.0238C159.746 5.49203 159.589 5.06903 159.275 4.7548C158.96 4.44057 158.525 4.28346 157.969 4.28346C157.631 4.28346 157.297 4.34791 156.966 4.47683C156.644 4.59769 156.306 4.77897 155.951 5.02069L155.637 4.44057C156.048 4.15857 156.451 3.94909 156.845 3.81211C157.24 3.66709 157.643 3.59457 158.054 3.59457C158.827 3.59457 159.44 3.81614 159.891 4.25929C160.342 4.70243 160.568 5.31477 160.568 6.09631V9.00897C160.568 9.12177 160.592 9.20637 160.64 9.26277C160.689 9.31111 160.765 9.33931 160.87 9.34737V10C160.781 10.0081 160.705 10.0161 160.64 10.0242C160.576 10.0322 160.528 10.0322 160.495 10.0242C160.294 10.0161 160.141 9.95166 160.036 9.8308C159.931 9.70994 159.875 9.58103 159.867 9.44406L159.855 8.9848C159.573 9.34737 159.206 9.62937 158.755 9.8308C158.304 10.0242 157.845 10.1209 157.377 10.1209C156.974 10.1209 156.608 10.0363 156.277 9.86706C155.955 9.6898 155.701 9.45614 155.516 9.16609C155.339 8.86797 155.25 8.54166 155.25 8.18714ZM159.468 8.67057C159.557 8.55777 159.625 8.449 159.673 8.34426C159.722 8.23951 159.746 8.14686 159.746 8.06629V7.14777C159.472 7.04303 159.186 6.96246 158.888 6.90606C158.598 6.84966 158.304 6.82146 158.006 6.82146C157.417 6.82146 156.942 6.93829 156.58 7.17194C156.217 7.4056 156.036 7.72386 156.036 8.12671C156.036 8.36037 156.096 8.58194 156.217 8.79143C156.338 8.99286 156.515 9.16206 156.749 9.29903C156.982 9.42794 157.256 9.4924 157.571 9.4924C157.965 9.4924 158.332 9.41586 158.67 9.26277C159.017 9.10969 159.283 8.91229 159.468 8.67057ZM162.514 1.17743H163.336V8.57389C163.336 8.88811 163.392 9.09357 163.505 9.19026C163.618 9.28694 163.755 9.33529 163.916 9.33529C164.061 9.33529 164.206 9.31917 164.351 9.28694C164.496 9.25471 164.621 9.22249 164.726 9.19026L164.871 9.85497C164.718 9.91943 164.528 9.9718 164.303 10.0121C164.085 10.0524 163.896 10.0725 163.735 10.0725C163.364 10.0725 163.066 9.96374 162.84 9.7462C162.623 9.52866 162.514 9.23054 162.514 8.85186V1.17743ZM123.492 22V15.0145L120.386 20.4409H119.854L116.736 15.0145V22H115.89V13.4191H116.76L120.108 19.2928L123.48 13.4191H124.338V22H123.492ZM129.078 22.1209C128.627 22.1209 128.208 22.0363 127.821 21.8671C127.435 21.6898 127.1 21.4521 126.818 21.154C126.536 20.8478 126.315 20.4973 126.154 20.1025C126.001 19.7077 125.924 19.2847 125.924 18.8335C125.924 18.2454 126.057 17.7055 126.323 17.2141C126.597 16.7226 126.971 16.3318 127.447 16.0417C127.922 15.7436 128.462 15.5946 129.066 15.5946C129.687 15.5946 130.227 15.7436 130.686 16.0417C131.153 16.3399 131.52 16.7347 131.786 17.2261C132.051 17.7096 132.184 18.2413 132.184 18.8215C132.184 18.8859 132.184 18.9504 132.184 19.0148C132.184 19.0712 132.18 19.1155 132.172 19.1478H126.782C126.822 19.599 126.947 20.0018 127.157 20.3563C127.374 20.7028 127.652 20.9808 127.991 21.1903C128.337 21.3917 128.712 21.4924 129.115 21.4924C129.526 21.4924 129.912 21.3877 130.275 21.1782C130.646 20.9687 130.903 20.6947 131.048 20.3563L131.761 20.5497C131.633 20.8478 131.435 21.1177 131.169 21.3595C130.903 21.6012 130.589 21.7905 130.227 21.9275C129.872 22.0564 129.489 22.1209 129.078 22.1209ZM126.758 18.5556H131.411C131.379 18.0963 131.254 17.6935 131.036 17.347C130.827 17.0005 130.549 16.7306 130.202 16.5373C129.864 16.3358 129.489 16.2351 129.078 16.2351C128.667 16.2351 128.293 16.3358 127.954 16.5373C127.616 16.7306 127.338 17.0046 127.121 17.3591C126.911 17.7055 126.79 18.1044 126.758 18.5556ZM138.88 22H138.058V18.4831C138.058 17.7418 137.95 17.202 137.732 16.8636C137.515 16.5171 137.172 16.3439 136.705 16.3439C136.382 16.3439 136.064 16.4245 135.75 16.5856C135.436 16.7387 135.158 16.9522 134.916 17.2261C134.682 17.492 134.513 17.7982 134.408 18.1447V22H133.587V15.7033H134.336V17.1295C134.505 16.8233 134.727 16.5574 135.001 16.3318C135.275 16.0981 135.585 15.9169 135.931 15.7879C136.278 15.659 136.636 15.5946 137.007 15.5946C137.353 15.5946 137.647 15.659 137.889 15.7879C138.131 15.9169 138.324 16.1022 138.469 16.3439C138.614 16.5775 138.719 16.8636 138.784 17.202C138.848 17.5323 138.88 17.9029 138.88 18.3139V22ZM143.729 21.6979C143.665 21.722 143.564 21.7663 143.427 21.8308C143.29 21.8953 143.125 21.9517 142.932 22C142.738 22.0483 142.529 22.0725 142.303 22.0725C142.07 22.0725 141.848 22.0282 141.639 21.9396C141.437 21.8509 141.276 21.718 141.155 21.5407C141.034 21.3554 140.974 21.1298 140.974 20.8639V16.356H140.104V15.7033H140.974V13.5763H141.796V15.7033H143.246V16.356H141.796V20.6343C141.812 20.8599 141.892 21.0291 142.037 21.1419C142.191 21.2547 142.364 21.3111 142.557 21.3111C142.783 21.3111 142.988 21.2749 143.173 21.2023C143.359 21.1218 143.472 21.0654 143.512 21.0331L143.729 21.6979ZM147.467 22.1209C147.016 22.1209 146.597 22.0363 146.21 21.8671C145.832 21.6898 145.501 21.4521 145.219 21.154C144.945 20.8478 144.732 20.5014 144.579 20.1146C144.426 19.7198 144.349 19.3049 144.349 18.8698C144.349 18.4186 144.426 17.9996 144.579 17.6129C144.732 17.2181 144.949 16.8716 145.231 16.5735C145.513 16.2673 145.844 16.0297 146.223 15.8605C146.609 15.6832 147.028 15.5946 147.479 15.5946C147.931 15.5946 148.346 15.6832 148.724 15.8605C149.103 16.0297 149.433 16.2673 149.715 16.5735C149.997 16.8716 150.215 17.2181 150.368 17.6129C150.521 17.9996 150.598 18.4186 150.598 18.8698C150.598 19.3049 150.521 19.7198 150.368 20.1146C150.215 20.5014 149.997 20.8478 149.715 21.154C149.441 21.4521 149.111 21.6898 148.724 21.8671C148.346 22.0363 147.927 22.1209 147.467 22.1209ZM145.183 18.8819C145.183 19.3492 145.284 19.7762 145.485 20.163C145.695 20.5417 145.973 20.8438 146.319 21.0694C146.666 21.2869 147.048 21.3957 147.467 21.3957C147.886 21.3957 148.269 21.2829 148.615 21.0573C148.962 20.8317 149.24 20.5255 149.449 20.1388C149.659 19.744 149.764 19.317 149.764 18.8577C149.764 18.3904 149.659 17.9634 149.449 17.5766C149.24 17.1899 148.962 16.8837 148.615 16.6581C148.269 16.4325 147.886 16.3197 147.467 16.3197C147.048 16.3197 146.666 16.4365 146.319 16.6702C145.981 16.9039 145.707 17.2141 145.497 17.6008C145.288 17.9795 145.183 18.4065 145.183 18.8819ZM155.249 16.4285C154.701 16.4446 154.217 16.5977 153.798 16.8877C153.387 17.1778 153.097 17.5766 152.928 18.0842V22H152.106V15.7033H152.88V17.2141C153.097 16.7709 153.383 16.4124 153.738 16.1384C154.1 15.8645 154.483 15.7114 154.886 15.6792C154.967 15.6711 155.035 15.6671 155.091 15.6671C155.156 15.6671 155.208 15.6711 155.249 15.6792V16.4285ZM123.492 34V27.0145L120.386 32.4409H119.854L116.736 27.0145V34H115.89V25.4191H116.76L120.108 31.2928L123.48 25.4191H124.338V34H123.492ZM125.887 32.1871C125.887 31.7923 126 31.4539 126.225 31.1719C126.451 30.8819 126.761 30.6603 127.156 30.5072C127.559 30.3461 128.022 30.2655 128.546 30.2655C128.852 30.2655 129.17 30.2897 129.501 30.338C129.831 30.3864 130.125 30.4589 130.383 30.5556V30.0238C130.383 29.492 130.226 29.069 129.911 28.7548C129.597 28.4406 129.162 28.2835 128.606 28.2835C128.268 28.2835 127.933 28.3479 127.603 28.4768C127.281 28.5977 126.942 28.779 126.588 29.0207L126.274 28.4406C126.685 28.1586 127.087 27.9491 127.482 27.8121C127.877 27.6671 128.28 27.5946 128.691 27.5946C129.464 27.5946 130.077 27.8161 130.528 28.2593C130.979 28.7024 131.205 29.3148 131.205 30.0963V33.009C131.205 33.1218 131.229 33.2064 131.277 33.2628C131.325 33.3111 131.402 33.3393 131.507 33.3474V34C131.418 34.0081 131.342 34.0161 131.277 34.0242C131.213 34.0322 131.164 34.0322 131.132 34.0242C130.931 34.0161 130.778 33.9517 130.673 33.8308C130.568 33.7099 130.512 33.581 130.504 33.4441L130.492 32.9848C130.21 33.3474 129.843 33.6294 129.392 33.8308C128.941 34.0242 128.481 34.1209 128.014 34.1209C127.611 34.1209 127.245 34.0363 126.914 33.8671C126.592 33.6898 126.338 33.4561 126.153 33.1661C125.976 32.868 125.887 32.5417 125.887 32.1871ZM130.105 32.6706C130.193 32.5578 130.262 32.449 130.31 32.3443C130.359 32.2395 130.383 32.1469 130.383 32.0663V31.1478C130.109 31.043 129.823 30.9625 129.525 30.9061C129.235 30.8497 128.941 30.8215 128.642 30.8215C128.054 30.8215 127.579 30.9383 127.216 31.1719C126.854 31.4056 126.672 31.7239 126.672 32.1267C126.672 32.3604 126.733 32.5819 126.854 32.7914C126.975 32.9929 127.152 33.1621 127.386 33.299C127.619 33.4279 127.893 33.4924 128.207 33.4924C128.602 33.4924 128.969 33.4159 129.307 33.2628C129.654 33.1097 129.92 32.9123 130.105 32.6706ZM136.257 28.4285C135.709 28.4446 135.226 28.5977 134.807 28.8877C134.396 29.1778 134.106 29.5766 133.936 30.0842V34H133.115V27.7033H133.888V29.2141C134.106 28.7709 134.392 28.4124 134.746 28.1384C135.109 27.8645 135.491 27.7114 135.894 27.6792C135.975 27.6711 136.043 27.6671 136.1 27.6671C136.164 27.6671 136.217 27.6711 136.257 27.6792V28.4285ZM141.982 34L139.649 30.7731L138.308 32.03V34H137.486V25.1774H138.308V31.1478L141.873 27.7154H142.779L140.205 30.2897L142.876 34H141.982ZM146.418 34.1209C145.967 34.1209 145.548 34.0363 145.161 33.8671C144.774 33.6898 144.44 33.4521 144.158 33.154C143.876 32.8478 143.654 32.4973 143.493 32.1025C143.34 31.7077 143.263 31.2847 143.263 30.8335C143.263 30.2454 143.396 29.7055 143.662 29.2141C143.936 28.7226 144.311 28.3318 144.786 28.0417C145.262 27.7436 145.801 27.5946 146.406 27.5946C147.026 27.5946 147.566 27.7436 148.025 28.0417C148.492 28.3399 148.859 28.7347 149.125 29.2261C149.391 29.7096 149.524 30.2413 149.524 30.8215C149.524 30.8859 149.524 30.9504 149.524 31.0148C149.524 31.0712 149.52 31.1155 149.512 31.1478H144.121C144.162 31.599 144.287 32.0018 144.496 32.3563C144.714 32.7028 144.992 32.9808 145.33 33.1903C145.677 33.3917 146.051 33.4924 146.454 33.4924C146.865 33.4924 147.252 33.3877 147.614 33.1782C147.985 32.9687 148.243 32.6947 148.388 32.3563L149.101 32.5497C148.972 32.8478 148.774 33.1177 148.509 33.3595C148.243 33.6012 147.928 33.7905 147.566 33.9275C147.211 34.0564 146.829 34.1209 146.418 34.1209ZM144.097 30.5556H148.75C148.718 30.0963 148.593 29.6935 148.376 29.347C148.166 29.0005 147.888 28.7306 147.542 28.5373C147.203 28.3358 146.829 28.2351 146.418 28.2351C146.007 28.2351 145.632 28.3358 145.294 28.5373C144.955 28.7306 144.677 29.0046 144.46 29.3591C144.25 29.7055 144.13 30.1044 144.097 30.5556ZM153.888 33.6979C153.824 33.722 153.723 33.7663 153.586 33.8308C153.449 33.8953 153.284 33.9517 153.091 34C152.897 34.0483 152.688 34.0725 152.462 34.0725C152.229 34.0725 152.007 34.0282 151.798 33.9396C151.596 33.8509 151.435 33.718 151.314 33.5407C151.193 33.3554 151.133 33.1298 151.133 32.8639V28.356H150.263V27.7033H151.133V25.5763H151.955V27.7033H153.405V28.356H151.955V32.6343C151.971 32.8599 152.051 33.0291 152.196 33.1419C152.35 33.2547 152.523 33.3111 152.716 33.3111C152.942 33.3111 153.147 33.2749 153.333 33.2023C153.518 33.1218 153.631 33.0654 153.671 33.0331L153.888 33.6979ZM158.264 34.1209C157.741 34.1209 157.269 33.9839 156.85 33.7099C156.439 33.436 156.113 33.0976 155.871 32.6947V36.5743H155.05V27.7033H155.787V28.924C156.037 28.5292 156.371 28.2109 156.79 27.9692C157.209 27.7195 157.656 27.5946 158.131 27.5946C158.567 27.5946 158.965 27.6872 159.328 27.8725C159.69 28.0498 160.005 28.2915 160.271 28.5977C160.536 28.9039 160.742 29.2543 160.887 29.6491C161.04 30.0359 161.117 30.4387 161.117 30.8577C161.117 31.4459 160.996 31.9897 160.754 32.4893C160.52 32.9808 160.19 33.3756 159.763 33.6737C159.336 33.9718 158.836 34.1209 158.264 34.1209ZM158.035 33.3957C158.381 33.3957 158.691 33.3272 158.965 33.1903C159.239 33.0452 159.473 32.8519 159.666 32.6101C159.868 32.3684 160.021 32.0985 160.126 31.8004C160.23 31.4942 160.283 31.18 160.283 30.8577C160.283 30.5193 160.222 30.197 160.101 29.8909C159.989 29.5847 159.823 29.3148 159.606 29.0811C159.388 28.8475 159.139 28.6621 158.857 28.5252C158.575 28.3882 158.268 28.3197 157.938 28.3197C157.729 28.3197 157.511 28.36 157.285 28.4406C157.06 28.5211 156.842 28.638 156.633 28.7911C156.431 28.9361 156.262 29.1013 156.125 29.2866C155.988 29.4719 155.904 29.6693 155.871 29.8788V31.8125C156 32.1106 156.174 32.3805 156.391 32.6222C156.609 32.8559 156.858 33.0452 157.14 33.1903C157.43 33.3272 157.729 33.3957 158.035 33.3957ZM162.679 25.1774H163.501V32.5739C163.501 32.8881 163.557 33.0936 163.67 33.1903C163.783 33.2869 163.92 33.3353 164.081 33.3353C164.226 33.3353 164.371 33.3192 164.516 33.2869C164.661 33.2547 164.786 33.2225 164.891 33.1903L165.036 33.855C164.883 33.9194 164.694 33.9718 164.468 34.0121C164.25 34.0524 164.061 34.0725 163.9 34.0725C163.529 34.0725 163.231 33.9637 163.006 33.7462C162.788 33.5287 162.679 33.2305 162.679 32.8519V25.1774ZM165.563 32.1871C165.563 31.7923 165.675 31.4539 165.901 31.1719C166.127 30.8819 166.437 30.6603 166.832 30.5072C167.234 30.3461 167.698 30.2655 168.221 30.2655C168.528 30.2655 168.846 30.2897 169.176 30.338C169.507 30.3864 169.801 30.4589 170.058 30.5556V30.0238C170.058 29.492 169.901 29.069 169.587 28.7548C169.273 28.4406 168.838 28.2835 168.282 28.2835C167.943 28.2835 167.609 28.3479 167.279 28.4768C166.956 28.5977 166.618 28.779 166.264 29.0207L165.949 28.4406C166.36 28.1586 166.763 27.9491 167.158 27.8121C167.553 27.6671 167.956 27.5946 168.366 27.5946C169.14 27.5946 169.752 27.8161 170.203 28.2593C170.655 28.7024 170.88 29.3148 170.88 30.0963V33.009C170.88 33.1218 170.904 33.2064 170.953 33.2628C171.001 33.3111 171.078 33.3393 171.182 33.3474V34C171.094 34.0081 171.017 34.0161 170.953 34.0242C170.888 34.0322 170.84 34.0322 170.808 34.0242C170.606 34.0161 170.453 33.9517 170.349 33.8308C170.244 33.7099 170.187 33.581 170.179 33.4441L170.167 32.9848C169.885 33.3474 169.519 33.6294 169.067 33.8308C168.616 34.0242 168.157 34.1209 167.69 34.1209C167.287 34.1209 166.92 34.0363 166.59 33.8671C166.268 33.6898 166.014 33.4561 165.828 33.1661C165.651 32.868 165.563 32.5417 165.563 32.1871ZM169.78 32.6706C169.869 32.5578 169.938 32.449 169.986 32.3443C170.034 32.2395 170.058 32.1469 170.058 32.0663V31.1478C169.785 31.043 169.498 30.9625 169.2 30.9061C168.91 30.8497 168.616 30.8215 168.318 30.8215C167.73 30.8215 167.255 30.9383 166.892 31.1719C166.529 31.4056 166.348 31.7239 166.348 32.1267C166.348 32.3604 166.409 32.5819 166.529 32.7914C166.65 32.9929 166.828 33.1621 167.061 33.299C167.295 33.4279 167.569 33.4924 167.883 33.4924C168.278 33.4924 168.644 33.4159 168.983 33.2628C169.329 33.1097 169.595 32.9123 169.78 32.6706ZM175.522 34.1209C175.062 34.1209 174.639 34.0363 174.253 33.8671C173.874 33.6898 173.54 33.4481 173.249 33.1419C172.967 32.8357 172.746 32.4853 172.585 32.0905C172.432 31.6957 172.355 31.2767 172.355 30.8335C172.355 30.2373 172.488 29.6935 172.754 29.202C173.02 28.7105 173.39 28.3197 173.866 28.0297C174.341 27.7396 174.889 27.5946 175.51 27.5946C176.098 27.5946 176.617 27.7315 177.069 28.0055C177.52 28.2714 177.854 28.6339 178.072 29.0932L177.274 29.347C177.097 29.0247 176.847 28.7749 176.525 28.5977C176.21 28.4124 175.86 28.3197 175.473 28.3197C175.054 28.3197 174.672 28.4285 174.325 28.646C173.979 28.8636 173.701 29.1617 173.491 29.5404C173.29 29.9191 173.189 30.3501 173.189 30.8335C173.189 31.3089 173.294 31.74 173.503 32.1267C173.713 32.5135 173.991 32.8237 174.337 33.0573C174.684 33.2829 175.066 33.3957 175.485 33.3957C175.759 33.3957 176.021 33.3474 176.271 33.2507C176.529 33.154 176.75 33.0251 176.936 32.8639C177.129 32.6947 177.258 32.5135 177.322 32.3201L178.132 32.5618C178.019 32.8599 177.83 33.1298 177.564 33.3715C177.306 33.6052 177 33.7905 176.646 33.9275C176.299 34.0564 175.924 34.1209 175.522 34.1209ZM182.218 34.1209C181.767 34.1209 181.348 34.0363 180.961 33.8671C180.574 33.6898 180.24 33.4521 179.958 33.154C179.676 32.8478 179.454 32.4973 179.293 32.1025C179.14 31.7077 179.063 31.2847 179.063 30.8335C179.063 30.2454 179.196 29.7055 179.462 29.2141C179.736 28.7226 180.111 28.3318 180.586 28.0417C181.062 27.7436 181.601 27.5946 182.206 27.5946C182.826 27.5946 183.366 27.7436 183.825 28.0417C184.292 28.3399 184.659 28.7347 184.925 29.2261C185.191 29.7096 185.324 30.2413 185.324 30.8215C185.324 30.8859 185.324 30.9504 185.324 31.0148C185.324 31.0712 185.32 31.1155 185.312 31.1478H179.921C179.962 31.599 180.087 32.0018 180.296 32.3563C180.514 32.7028 180.792 32.9808 181.13 33.1903C181.477 33.3917 181.851 33.4924 182.254 33.4924C182.665 33.4924 183.052 33.3877 183.414 33.1782C183.785 32.9687 184.043 32.6947 184.188 32.3563L184.901 32.5497C184.772 32.8478 184.574 33.1177 184.309 33.3595C184.043 33.6012 183.728 33.7905 183.366 33.9275C183.011 34.0564 182.629 34.1209 182.218 34.1209ZM179.897 30.5556H184.55C184.518 30.0963 184.393 29.6935 184.176 29.347C183.966 29.0005 183.688 28.7306 183.342 28.5373C183.003 28.3358 182.629 28.2351 182.218 28.2351C181.807 28.2351 181.432 28.3358 181.094 28.5373C180.755 28.7306 180.477 29.0046 180.26 29.3591C180.05 29.7055 179.93 30.1044 179.897 30.5556Z" fill="white"/>
<path d="M3.76 35.0857V1.71569H17.766C19.27 1.71569 20.6487 2.02902 21.902 2.65569C23.1553 3.28236 24.252 4.11269 25.192 5.14669C26.132 6.18069 26.8527 7.34003 27.354 8.62469C27.8553 9.90936 28.106 11.2254 28.106 12.5727C28.106 14.4214 27.683 16.1917 26.837 17.8837C26.0223 19.5444 24.8473 20.8917 23.312 21.9257C21.808 22.9597 20.0533 23.4767 18.048 23.4767H9.024V35.0857H3.76ZM9.024 18.8237H17.719C18.7217 18.8237 19.599 18.5574 20.351 18.0247C21.103 17.4607 21.6827 16.7087 22.09 15.7687C22.5287 14.8287 22.748 13.7634 22.748 12.5727C22.748 11.3507 22.4973 10.2697 21.996 9.32969C21.4947 8.38969 20.8367 7.66903 20.022 7.16769C19.2387 6.63503 18.377 6.36869 17.437 6.36869H9.024V18.8237ZM61.2365 35.0857V11.3037L51.4135 29.3517H48.3115L38.4415 11.3037V35.0857H33.1775V1.71569H38.8175L49.8625 22.1137L60.9075 1.71569H66.5475V35.0857H61.2365ZM102.266 35.0857V11.3037L92.4433 29.3517H89.3413L79.4713 11.3037V35.0857H74.2073V1.71569H79.8473L90.8923 22.1137L101.937 1.71569H107.577V35.0857H102.266Z" fill="white"/>
</svg>
