<svg width="560" height="111" viewBox="0 0 560 111" fill="none" xmlns="http://www.w3.org/2000/svg">
<path d="M345.204 31V5.44H355.788C356.892 5.44 357.9 5.668 358.812 6.124C359.748 6.58 360.552 7.204 361.224 7.996C361.92 8.764 362.448 9.628 362.808 10.588C363.192 11.524 363.384 12.484 363.384 13.468C363.384 14.86 363.072 16.18 362.448 17.428C361.824 18.652 360.96 19.648 359.856 20.416C358.752 21.184 357.468 21.568 356.004 21.568H347.724V31H345.204ZM347.724 19.336H355.896C356.904 19.336 357.78 19.06 358.524 18.508C359.268 17.956 359.844 17.236 360.252 16.348C360.66 15.46 360.864 14.5 360.864 13.468C360.864 12.412 360.624 11.452 360.144 10.588C359.664 9.7 359.028 8.992 358.236 8.464C357.468 7.936 356.616 7.672 355.68 7.672H347.724V19.336ZM376.855 14.404C375.223 14.452 373.783 14.908 372.535 15.772C371.311 16.636 370.447 17.824 369.943 19.336V31H367.495V12.244H369.799V16.744C370.447 15.424 371.299 14.356 372.355 13.54C373.435 12.724 374.575 12.268 375.775 12.172C376.015 12.148 376.219 12.136 376.387 12.136C376.555 12.136 376.711 12.148 376.855 12.172V14.404ZM387.945 31.36C386.145 31.36 384.537 30.916 383.121 30.028C381.729 29.14 380.637 27.964 379.845 26.5C379.053 25.012 378.657 23.404 378.657 21.676C378.657 19.924 379.053 18.316 379.845 16.852C380.661 15.364 381.765 14.176 383.157 13.288C384.573 12.376 386.169 11.92 387.945 11.92C389.745 11.92 391.341 12.376 392.733 13.288C394.149 14.176 395.253 15.364 396.045 16.852C396.861 18.316 397.269 19.924 397.269 21.676C397.269 23.404 396.873 25.012 396.081 26.5C395.289 27.964 394.185 29.14 392.769 30.028C391.377 30.916 389.769 31.36 387.945 31.36ZM381.141 21.712C381.141 23.104 381.441 24.376 382.041 25.528C382.665 26.656 383.493 27.556 384.525 28.228C385.557 28.876 386.697 29.2 387.945 29.2C389.193 29.2 390.333 28.864 391.365 28.192C392.397 27.52 393.225 26.608 393.849 25.456C394.473 24.304 394.785 23.032 394.785 21.64C394.785 20.248 394.473 18.976 393.849 17.824C393.225 16.672 392.397 15.76 391.365 15.088C390.333 14.416 389.193 14.08 387.945 14.08C386.721 14.08 385.593 14.428 384.561 15.124C383.529 15.796 382.701 16.708 382.077 17.86C381.453 19.012 381.141 20.296 381.141 21.712ZM411.339 31.36C409.779 31.36 408.375 30.952 407.127 30.136C405.903 29.32 404.931 28.312 404.211 27.112V38.668H401.763V12.244H403.959V15.88C404.703 14.704 405.687 13.756 406.911 13.036C408.159 12.292 409.503 11.92 410.943 11.92C412.239 11.92 413.427 12.196 414.507 12.748C415.587 13.276 416.523 13.996 417.315 14.908C418.131 15.82 418.755 16.864 419.187 18.04C419.619 19.192 419.835 20.392 419.835 21.64C419.835 23.392 419.475 25.012 418.755 26.5C418.059 27.964 417.063 29.14 415.767 30.028C414.495 30.916 413.019 31.36 411.339 31.36ZM410.655 29.2C412.023 29.2 413.199 28.84 414.183 28.12C415.191 27.376 415.971 26.428 416.523 25.276C417.075 24.124 417.351 22.912 417.351 21.64C417.351 20.296 417.039 19.048 416.415 17.896C415.791 16.744 414.951 15.82 413.895 15.124C412.863 14.428 411.687 14.08 410.367 14.08C409.551 14.08 408.687 14.296 407.775 14.728C406.887 15.136 406.095 15.7 405.399 16.42C404.727 17.116 404.331 17.884 404.211 18.724V24.484C404.763 25.804 405.627 26.92 406.803 27.832C407.979 28.744 409.263 29.2 410.655 29.2ZM432.374 31.36C430.574 31.36 428.966 30.916 427.55 30.028C426.158 29.14 425.066 27.964 424.274 26.5C423.482 25.012 423.086 23.404 423.086 21.676C423.086 19.924 423.482 18.316 424.274 16.852C425.09 15.364 426.194 14.176 427.586 13.288C429.002 12.376 430.598 11.92 432.374 11.92C434.174 11.92 435.77 12.376 437.162 13.288C438.578 14.176 439.682 15.364 440.474 16.852C441.29 18.316 441.698 19.924 441.698 21.676C441.698 23.404 441.302 25.012 440.51 26.5C439.718 27.964 438.614 29.14 437.198 30.028C435.806 30.916 434.198 31.36 432.374 31.36ZM425.57 21.712C425.57 23.104 425.87 24.376 426.47 25.528C427.094 26.656 427.922 27.556 428.954 28.228C429.986 28.876 431.126 29.2 432.374 29.2C433.622 29.2 434.762 28.864 435.794 28.192C436.826 27.52 437.654 26.608 438.278 25.456C438.902 24.304 439.214 23.032 439.214 21.64C439.214 20.248 438.902 18.976 438.278 17.824C437.654 16.672 436.826 15.76 435.794 15.088C434.762 14.416 433.622 14.08 432.374 14.08C431.15 14.08 430.022 14.428 428.99 15.124C427.958 15.796 427.13 16.708 426.506 17.86C425.882 19.012 425.57 20.296 425.57 21.712ZM452.348 31.36C450.812 31.36 449.384 31.108 448.064 30.604C446.768 30.076 445.628 29.308 444.644 28.3L445.652 26.572C446.708 27.556 447.764 28.276 448.82 28.732C449.9 29.164 451.04 29.38 452.24 29.38C453.68 29.38 454.856 29.092 455.768 28.516C456.704 27.916 457.172 27.064 457.172 25.96C457.172 25.216 456.944 24.652 456.488 24.268C456.056 23.86 455.42 23.536 454.58 23.296C453.764 23.056 452.78 22.78 451.628 22.468C450.332 22.108 449.24 21.736 448.352 21.352C447.488 20.944 446.828 20.44 446.372 19.84C445.94 19.216 445.724 18.412 445.724 17.428C445.724 16.228 446.024 15.22 446.624 14.404C447.248 13.588 448.088 12.976 449.144 12.568C450.224 12.136 451.424 11.92 452.744 11.92C454.184 11.92 455.456 12.148 456.56 12.604C457.664 13.06 458.564 13.696 459.26 14.512L458.072 16.168C457.424 15.4 456.62 14.836 455.66 14.476C454.724 14.092 453.704 13.9 452.6 13.9C451.832 13.9 451.1 14.008 450.404 14.224C449.708 14.416 449.132 14.752 448.676 15.232C448.244 15.688 448.028 16.324 448.028 17.14C448.028 18.148 448.4 18.844 449.144 19.228C449.888 19.612 451.016 20.02 452.528 20.452C453.944 20.836 455.18 21.22 456.236 21.604C457.292 21.988 458.108 22.504 458.684 23.152C459.26 23.776 459.548 24.652 459.548 25.78C459.548 27.532 458.888 28.9 457.568 29.884C456.248 30.868 454.508 31.36 452.348 31.36ZM462.483 25.6C462.483 24.448 462.819 23.452 463.491 22.612C464.163 21.748 465.087 21.076 466.263 20.596C467.463 20.116 468.843 19.876 470.403 19.876C471.315 19.876 472.263 19.96 473.247 20.128C474.231 20.272 475.107 20.476 475.875 20.74V19.156C475.875 17.572 475.407 16.312 474.471 15.376C473.535 14.44 472.239 13.972 470.583 13.972C469.599 13.972 468.615 14.164 467.631 14.548C466.647 14.908 465.627 15.448 464.571 16.168L463.635 14.44C464.859 13.6 466.059 12.976 467.235 12.568C468.411 12.136 469.611 11.92 470.835 11.92C473.139 11.92 474.963 12.58 476.307 13.9C477.651 15.22 478.323 17.044 478.323 19.372V28.048C478.323 28.696 478.623 29.032 479.223 29.056V31C478.695 31.072 478.323 31.096 478.107 31.072C477.507 31.048 477.051 30.856 476.739 30.496C476.427 30.136 476.259 29.752 476.235 29.344L476.199 27.976C475.359 29.056 474.267 29.896 472.923 30.496C471.579 31.072 470.211 31.36 468.819 31.36C467.595 31.36 466.503 31.108 465.543 30.604C464.583 30.076 463.827 29.38 463.275 28.516C462.747 27.628 462.483 26.656 462.483 25.6ZM475.047 27.04C475.599 26.392 475.875 25.792 475.875 25.24V22.504C474.219 21.856 472.491 21.532 470.691 21.532C468.939 21.532 467.523 21.88 466.443 22.576C465.363 23.272 464.823 24.22 464.823 25.42C464.823 26.452 465.219 27.388 466.011 28.228C466.827 29.068 467.955 29.488 469.395 29.488C470.571 29.488 471.663 29.26 472.671 28.804C473.703 28.348 474.495 27.76 475.047 27.04ZM484.12 4.72H486.568V26.752C486.568 27.688 486.724 28.3 487.036 28.588C487.372 28.876 487.792 29.02 488.296 29.02C488.728 29.02 489.16 28.972 489.592 28.876C490.048 28.78 490.42 28.684 490.708 28.588L491.14 30.568C490.684 30.76 490.12 30.916 489.448 31.036C488.8 31.156 488.236 31.216 487.756 31.216C486.652 31.216 485.764 30.892 485.092 30.244C484.444 29.596 484.12 28.708 484.12 27.58V4.72ZM367.848 67V46.192L358.596 62.356H357.012L347.724 46.192V67H345.204V41.44H347.796L357.768 58.936L367.812 41.44H370.368V67H367.848ZM384.489 67.36C382.689 67.36 381.081 66.916 379.665 66.028C378.249 65.14 377.133 63.952 376.317 62.464C375.501 60.976 375.093 59.344 375.093 57.568C375.093 55.816 375.489 54.208 376.281 52.744C377.097 51.28 378.213 50.116 379.629 49.252C381.045 48.364 382.653 47.92 384.453 47.92C386.301 47.92 387.921 48.364 389.313 49.252C390.705 50.14 391.785 51.316 392.553 52.78C393.345 54.22 393.741 55.804 393.741 57.532C393.741 57.916 393.729 58.24 393.705 58.504H377.649C377.769 59.848 378.153 61.048 378.801 62.104C379.449 63.136 380.277 63.964 381.285 64.588C382.293 65.188 383.397 65.488 384.597 65.488C385.821 65.488 386.973 65.176 388.053 64.552C389.133 63.928 389.901 63.112 390.357 62.104L392.481 62.68C392.097 63.592 391.497 64.408 390.681 65.128C389.889 65.824 388.965 66.376 387.909 66.784C386.853 67.168 385.713 67.36 384.489 67.36ZM377.577 56.74H391.437C391.341 55.396 390.969 54.208 390.321 53.176C389.673 52.12 388.845 51.304 387.837 50.728C386.829 50.128 385.713 49.828 384.489 49.828C383.265 49.828 382.149 50.128 381.141 50.728C380.133 51.304 379.305 52.12 378.657 53.176C378.033 54.208 377.673 55.396 377.577 56.74ZM413.686 67H411.238V56.524C411.238 54.316 410.902 52.708 410.23 51.7C409.582 50.668 408.574 50.152 407.206 50.152C406.246 50.152 405.298 50.392 404.362 50.872C403.426 51.328 402.598 51.964 401.878 52.78C401.182 53.572 400.678 54.484 400.366 55.516V67H397.918V48.244H400.15V52.492C400.894 51.124 401.986 50.02 403.426 49.18C404.866 48.34 406.426 47.92 408.106 47.92C409.498 47.92 410.602 48.256 411.418 48.928C412.234 49.576 412.81 50.512 413.146 51.736C413.506 52.936 413.686 54.364 413.686 56.02V67ZM428.13 66.1C427.842 66.22 427.314 66.436 426.546 66.748C425.778 67.06 424.89 67.216 423.882 67.216C422.826 67.216 421.902 66.916 421.11 66.316C420.318 65.716 419.922 64.816 419.922 63.616V50.188H417.33V48.244H419.922V41.908H422.37V48.244H426.69V50.188H422.37V62.932C422.418 63.628 422.658 64.144 423.09 64.48C423.546 64.792 424.062 64.948 424.638 64.948C425.31 64.948 425.91 64.84 426.438 64.624C426.99 64.384 427.338 64.216 427.482 64.12L428.13 66.1ZM439.265 67.36C437.465 67.36 435.857 66.916 434.441 66.028C433.049 65.14 431.957 63.964 431.165 62.5C430.373 61.012 429.977 59.404 429.977 57.676C429.977 55.924 430.373 54.316 431.165 52.852C431.981 51.364 433.085 50.176 434.477 49.288C435.893 48.376 437.489 47.92 439.265 47.92C441.065 47.92 442.661 48.376 444.053 49.288C445.469 50.176 446.573 51.364 447.365 52.852C448.181 54.316 448.589 55.924 448.589 57.676C448.589 59.404 448.193 61.012 447.401 62.5C446.609 63.964 445.505 65.14 444.089 66.028C442.697 66.916 441.089 67.36 439.265 67.36ZM432.461 57.712C432.461 59.104 432.761 60.376 433.361 61.528C433.985 62.656 434.813 63.556 435.845 64.228C436.877 64.876 438.017 65.2 439.265 65.2C440.513 65.2 441.653 64.864 442.685 64.192C443.717 63.52 444.545 62.608 445.169 61.456C445.793 60.304 446.105 59.032 446.105 57.64C446.105 56.248 445.793 54.976 445.169 53.824C444.545 52.672 443.717 51.76 442.685 51.088C441.653 50.416 440.513 50.08 439.265 50.08C438.041 50.08 436.913 50.428 435.881 51.124C434.849 51.796 434.021 52.708 433.397 53.86C432.773 55.012 432.461 56.296 432.461 57.712ZM462.443 50.404C460.811 50.452 459.371 50.908 458.123 51.772C456.899 52.636 456.035 53.824 455.531 55.336V67H453.083V48.244H455.387V52.744C456.035 51.424 456.887 50.356 457.943 49.54C459.023 48.724 460.163 48.268 461.363 48.172C461.603 48.148 461.807 48.136 461.975 48.136C462.143 48.136 462.299 48.148 462.443 48.172V50.404ZM367.848 103V82.192L358.596 98.356H357.012L347.724 82.192V103H345.204V77.44H347.796L357.768 94.936L367.812 77.44H370.368V103H367.848ZM374.983 97.6C374.983 96.448 375.319 95.452 375.991 94.612C376.663 93.748 377.587 93.076 378.763 92.596C379.963 92.116 381.343 91.876 382.903 91.876C383.815 91.876 384.763 91.96 385.747 92.128C386.731 92.272 387.607 92.476 388.375 92.74V91.156C388.375 89.572 387.907 88.312 386.971 87.376C386.035 86.44 384.739 85.972 383.083 85.972C382.099 85.972 381.115 86.164 380.131 86.548C379.147 86.908 378.127 87.448 377.071 88.168L376.135 86.44C377.359 85.6 378.559 84.976 379.735 84.568C380.911 84.136 382.111 83.92 383.335 83.92C385.639 83.92 387.463 84.58 388.807 85.9C390.151 87.22 390.823 89.044 390.823 91.372V100.048C390.823 100.696 391.123 101.032 391.723 101.056V103C391.195 103.072 390.823 103.096 390.607 103.072C390.007 103.048 389.551 102.856 389.239 102.496C388.927 102.136 388.759 101.752 388.735 101.344L388.699 99.976C387.859 101.056 386.767 101.896 385.423 102.496C384.079 103.072 382.711 103.36 381.319 103.36C380.095 103.36 379.003 103.108 378.043 102.604C377.083 102.076 376.327 101.38 375.775 100.516C375.247 99.628 374.983 98.656 374.983 97.6ZM387.547 99.04C388.099 98.392 388.375 97.792 388.375 97.24V94.504C386.719 93.856 384.991 93.532 383.191 93.532C381.439 93.532 380.023 93.88 378.943 94.576C377.863 95.272 377.323 96.22 377.323 97.42C377.323 98.452 377.719 99.388 378.511 100.228C379.327 101.068 380.455 101.488 381.895 101.488C383.071 101.488 384.163 101.26 385.171 100.804C386.203 100.348 386.995 99.76 387.547 99.04ZM405.872 86.404C404.24 86.452 402.8 86.908 401.552 87.772C400.328 88.636 399.464 89.824 398.96 91.336V103H396.512V84.244H398.816V88.744C399.464 87.424 400.316 86.356 401.372 85.54C402.452 84.724 403.592 84.268 404.792 84.172C405.032 84.148 405.236 84.136 405.404 84.136C405.572 84.136 405.728 84.148 405.872 84.172V86.404ZM422.925 103L415.977 93.388L411.981 97.132V103H409.533V76.72H411.981V94.504L422.601 84.28H425.301L417.633 91.948L425.589 103H422.925ZM436.138 103.36C434.338 103.36 432.73 102.916 431.314 102.028C429.898 101.14 428.782 99.952 427.966 98.464C427.15 96.976 426.742 95.344 426.742 93.568C426.742 91.816 427.138 90.208 427.93 88.744C428.746 87.28 429.862 86.116 431.278 85.252C432.694 84.364 434.302 83.92 436.102 83.92C437.95 83.92 439.57 84.364 440.962 85.252C442.354 86.14 443.434 87.316 444.202 88.78C444.994 90.22 445.39 91.804 445.39 93.532C445.39 93.916 445.378 94.24 445.354 94.504H429.298C429.418 95.848 429.802 97.048 430.45 98.104C431.098 99.136 431.926 99.964 432.934 100.588C433.942 101.188 435.046 101.488 436.246 101.488C437.47 101.488 438.622 101.176 439.702 100.552C440.782 99.928 441.55 99.112 442.006 98.104L444.13 98.68C443.746 99.592 443.146 100.408 442.33 101.128C441.538 101.824 440.614 102.376 439.558 102.784C438.502 103.168 437.362 103.36 436.138 103.36ZM429.226 92.74H443.086C442.99 91.396 442.618 90.208 441.97 89.176C441.322 88.12 440.494 87.304 439.486 86.728C438.478 86.128 437.362 85.828 436.138 85.828C434.914 85.828 433.798 86.128 432.79 86.728C431.782 87.304 430.954 88.12 430.306 89.176C429.682 90.208 429.322 91.396 429.226 92.74ZM458.391 102.1C458.103 102.22 457.575 102.436 456.807 102.748C456.039 103.06 455.151 103.216 454.143 103.216C453.087 103.216 452.163 102.916 451.371 102.316C450.579 101.716 450.183 100.816 450.183 99.616V86.188H447.591V84.244H450.183V77.908H452.631V84.244H456.951V86.188H452.631V98.932C452.679 99.628 452.919 100.144 453.351 100.48C453.807 100.792 454.323 100.948 454.899 100.948C455.571 100.948 456.171 100.84 456.699 100.624C457.251 100.384 457.599 100.216 457.743 100.12L458.391 102.1ZM471.426 103.36C469.866 103.36 468.462 102.952 467.214 102.136C465.99 101.32 465.018 100.312 464.298 99.112V110.668H461.85V84.244H464.046V87.88C464.79 86.704 465.774 85.756 466.998 85.036C468.246 84.292 469.59 83.92 471.03 83.92C472.326 83.92 473.514 84.196 474.594 84.748C475.674 85.276 476.61 85.996 477.402 86.908C478.218 87.82 478.842 88.864 479.274 90.04C479.706 91.192 479.922 92.392 479.922 93.64C479.922 95.392 479.562 97.012 478.842 98.5C478.146 99.964 477.15 101.14 475.854 102.028C474.582 102.916 473.106 103.36 471.426 103.36ZM470.742 101.2C472.11 101.2 473.286 100.84 474.27 100.12C475.278 99.376 476.058 98.428 476.61 97.276C477.162 96.124 477.438 94.912 477.438 93.64C477.438 92.296 477.126 91.048 476.502 89.896C475.878 88.744 475.038 87.82 473.982 87.124C472.95 86.428 471.774 86.08 470.454 86.08C469.638 86.08 468.774 86.296 467.862 86.728C466.974 87.136 466.182 87.7 465.486 88.42C464.814 89.116 464.418 89.884 464.298 90.724V96.484C464.85 97.804 465.714 98.92 466.89 99.832C468.066 100.744 469.35 101.2 470.742 101.2ZM484.577 76.72H487.025V98.752C487.025 99.688 487.181 100.3 487.493 100.588C487.829 100.876 488.249 101.02 488.753 101.02C489.185 101.02 489.617 100.972 490.049 100.876C490.505 100.78 490.877 100.684 491.165 100.588L491.597 102.568C491.141 102.76 490.577 102.916 489.905 103.036C489.257 103.156 488.693 103.216 488.213 103.216C487.109 103.216 486.221 102.892 485.549 102.244C484.901 101.596 484.577 100.708 484.577 99.58V76.72ZM493.165 97.6C493.165 96.448 493.501 95.452 494.173 94.612C494.845 93.748 495.769 93.076 496.945 92.596C498.145 92.116 499.525 91.876 501.085 91.876C501.997 91.876 502.945 91.96 503.929 92.128C504.913 92.272 505.789 92.476 506.557 92.74V91.156C506.557 89.572 506.089 88.312 505.153 87.376C504.217 86.44 502.921 85.972 501.265 85.972C500.281 85.972 499.297 86.164 498.313 86.548C497.329 86.908 496.309 87.448 495.253 88.168L494.317 86.44C495.541 85.6 496.741 84.976 497.917 84.568C499.093 84.136 500.293 83.92 501.517 83.92C503.821 83.92 505.645 84.58 506.989 85.9C508.333 87.22 509.005 89.044 509.005 91.372V100.048C509.005 100.696 509.305 101.032 509.905 101.056V103C509.377 103.072 509.005 103.096 508.789 103.072C508.189 103.048 507.733 102.856 507.421 102.496C507.109 102.136 506.941 101.752 506.917 101.344L506.881 99.976C506.041 101.056 504.949 101.896 503.605 102.496C502.261 103.072 500.893 103.36 499.501 103.36C498.277 103.36 497.185 103.108 496.225 102.604C495.265 102.076 494.509 101.38 493.957 100.516C493.429 99.628 493.165 98.656 493.165 97.6ZM505.729 99.04C506.281 98.392 506.557 97.792 506.557 97.24V94.504C504.901 93.856 503.173 93.532 501.373 93.532C499.621 93.532 498.205 93.88 497.125 94.576C496.045 95.272 495.505 96.22 495.505 97.42C495.505 98.452 495.901 99.388 496.693 100.228C497.509 101.068 498.637 101.488 500.077 101.488C501.253 101.488 502.345 101.26 503.353 100.804C504.385 100.348 505.177 99.76 505.729 99.04ZM522.831 103.36C521.007 103.36 519.387 102.916 517.971 102.028C516.555 101.116 515.439 99.928 514.623 98.464C513.807 96.976 513.399 95.344 513.399 93.568C513.399 91.792 513.795 90.184 514.587 88.744C515.379 87.28 516.483 86.116 517.899 85.252C519.315 84.364 520.947 83.92 522.795 83.92C524.547 83.92 526.083 84.328 527.403 85.144C528.747 85.936 529.755 87.016 530.427 88.384L528.051 89.14C527.523 88.18 526.779 87.436 525.819 86.908C524.883 86.356 523.839 86.08 522.687 86.08C521.415 86.08 520.263 86.404 519.231 87.052C518.223 87.7 517.407 88.6 516.783 89.752C516.183 90.88 515.883 92.152 515.883 93.568C515.883 94.984 516.195 96.268 516.819 97.42C517.443 98.572 518.271 99.496 519.303 100.192C520.335 100.864 521.475 101.2 522.723 101.2C523.539 101.2 524.331 101.056 525.099 100.768C525.867 100.48 526.527 100.096 527.079 99.616C527.631 99.112 528.003 98.572 528.195 97.996L530.607 98.716C530.271 99.604 529.719 100.408 528.951 101.128C528.183 101.824 527.271 102.376 526.215 102.784C525.159 103.168 524.031 103.36 522.831 103.36ZM542.777 103.36C540.977 103.36 539.369 102.916 537.953 102.028C536.537 101.14 535.421 99.952 534.605 98.464C533.789 96.976 533.381 95.344 533.381 93.568C533.381 91.816 533.777 90.208 534.569 88.744C535.385 87.28 536.501 86.116 537.917 85.252C539.333 84.364 540.941 83.92 542.741 83.92C544.589 83.92 546.209 84.364 547.601 85.252C548.993 86.14 550.073 87.316 550.841 88.78C551.633 90.22 552.029 91.804 552.029 93.532C552.029 93.916 552.017 94.24 551.993 94.504H535.937C536.057 95.848 536.441 97.048 537.089 98.104C537.737 99.136 538.565 99.964 539.573 100.588C540.581 101.188 541.685 101.488 542.885 101.488C544.109 101.488 545.261 101.176 546.341 100.552C547.421 99.928 548.189 99.112 548.645 98.104L550.769 98.68C550.385 99.592 549.785 100.408 548.969 101.128C548.177 101.824 547.253 102.376 546.197 102.784C545.141 103.168 544.001 103.36 542.777 103.36ZM535.865 92.74H549.725C549.629 91.396 549.257 90.208 548.609 89.176C547.961 88.12 547.133 87.304 546.125 86.728C545.117 86.128 544.001 85.828 542.777 85.828C541.553 85.828 540.437 86.128 539.429 86.728C538.421 87.304 537.593 88.12 536.945 89.176C536.321 90.208 535.961 91.396 535.865 92.74Z" fill="white"/>
<path d="M11.2 103V3.59999H52.92C57.4 3.59999 61.5067 4.53333 65.24 6.39999C69.0667 8.26666 72.3333 10.74 75.04 13.82C77.84 16.9 79.9867 20.3533 81.48 24.18C82.9733 28.0067 83.72 31.9267 83.72 35.94C83.72 41.54 82.46 46.8133 79.94 51.76C77.42 56.7067 73.92 60.72 69.44 63.8C64.96 66.88 59.7333 68.42 53.76 68.42H26.88V103H11.2ZM26.88 54.56H52.78C57.1667 54.56 60.76 52.7867 63.56 49.24C66.36 45.6933 67.76 41.26 67.76 35.94C67.76 32.3 67.0133 29.1267 65.52 26.42C64.0267 23.62 62.0667 21.4267 59.64 19.84C57.3067 18.2533 54.74 17.46 51.94 17.46H26.88V54.56ZM182.407 103V32.16L153.147 85.92H143.907L114.507 32.16V103H98.8266V3.59999H115.627L148.527 64.36L181.427 3.59999H198.227V103H182.407ZM304.623 103V32.16L275.363 85.92H266.123L236.723 32.16V103H221.043V3.59999H237.843L270.743 64.36L303.643 3.59999H320.443V103H304.623Z" fill="white"/>
</svg>
